<?xml version="1.0" standalone="no"?>
<!DOCTYPE svg PUBLIC "-//W3C//DTD SVG 1.1//EN" "http://www.w3.org/Graphics/SVG/1.1/DTD/svg11.dtd" >
<svg xmlns="http://www.w3.org/2000/svg" xmlns:xlink="http://www.w3.org/1999/xlink" version="1.1">
<metadata></metadata>
<defs>
<font id="plus_jakarta_sanslight" horiz-adv-x="1230" >
<font-face units-per-em="2048" ascent="1638" descent="-410" />
<missing-glyph horiz-adv-x="337" />
<glyph horiz-adv-x="0" />
<glyph unicode="&#xd;" horiz-adv-x="681" />
<glyph unicode=" "  horiz-adv-x="337" />
<glyph unicode="&#x09;" horiz-adv-x="337" />
<glyph unicode="&#xa0;" horiz-adv-x="337" />
<glyph unicode="!" horiz-adv-x="550" d="M207 0v205h139v-205h-139zM209 1526h133l-8 -1094h-117z" />
<glyph unicode="&#x22;" horiz-adv-x="759" d="M170 1526h137l-22 -412h-92zM451 1526h139l-23 -412h-92z" />
<glyph unicode="#" horiz-adv-x="1568" d="M78 418v119h278l131 454h-245v119h280l119 416h135l-119 -416h455l121 416h135l-121 -416h246v-119h-279l-133 -454h246v-119h-278l-121 -418h-135l120 418h-454l-121 -418h-135l121 418h-246zM492 537h454l133 454h-456z" />
<glyph unicode="$" horiz-adv-x="1316" d="M125 371q31 -104 108.5 -194.5t192.5 -145.5q86 -41 190 -51v118q-117 14 -202 78q-115 82 -170 238zM188 1145q0 -137 82 -248t250 -160l96 -28v135l-38 12q-139 43 -199 117t-60 178q0 86 41 149.5t113 98.5q63 31 143 35v116q-117 -4 -210 -51q-102 -53 -160 -143 t-58 -211zM616 -20q35 -4 72 -5q25 0 47 2v-182h-119v185zM616 98v611l119 -35v-578q-25 -2 -49 -2q-37 0 -70 4zM616 844v590h19q53 -1 100 -11v-614zM616 1550v181h119v-189q-49 8 -102 8h-17zM735 -23q113 10 203 52q111 53 170 143q61 90 61 211q2 145 -88 247.5 t-254 151.5l-92 27v-135l64 -19q106 -29 171.5 -94t67.5 -184q0 -86 -45 -150q-47 -63 -125 -98q-61 -27 -133 -33v-119zM735 1423q78 -18 144 -63q106 -74 157 -213l117 43q-31 96 -104.5 178t-176.5 131q-61 29 -137 43v-119z" />
<glyph unicode="%" horiz-adv-x="1947" d="M106 1161q0 104 53.5 194.5t141.5 143.5t195 51q106 2 194 -51t141.5 -143t51.5 -195q2 -109 -51.5 -196.5t-141.5 -141t-194.5 -53.5t-194.5 53.5t-141.5 141.5t-53.5 196zM229 1161.5q0 -71.5 35 -133t96.5 -100.5t135.5 -39q78 0 135 39t94 102q35 63 35 129 q0 72 -35 133q-37 59 -94.5 100.5t-134.5 41.5q-74 0 -135.5 -39t-96.5 -100.5t-35 -133zM268 0l1256 1526h162l-1256 -1526h-162zM1065 367q0 104 53 194t141.5 143.5t194.5 51.5q106 2 194.5 -51.5t141.5 -141.5t51 -196q2 -109 -51 -197t-141 -141.5t-194.5 -53.5 t-195 53.5t-141.5 141.5t-53 197zM1188 366.5q0 -71.5 34.5 -133t96 -100.5t135.5 -39q78 0 135.5 39t93.5 103q35 63 35 129q0 72 -35 133q-37 59 -94 100t-135 41q-74 0 -135.5 -39t-96 -100.5t-34.5 -133z" />
<glyph unicode="&#x26;" horiz-adv-x="1490" d="M115 344q0 94 32.5 164t85.5 127q51 57 111 102q49 37 94 70q-37 41 -78 86q-53 61 -88 139q-37 78 -36 170q2 102 47 180t122.5 123t178.5 45q96 2 174 -43t125 -122.5t47 -176.5q0 -106 -49.5 -184t-118.5 -137q-61 -51 -121 -94l332 -340l207 307h153l-266 -404 l346 -356h-180l-242 246l-10 -15q-47 -63 -108.5 -120.5t-147.5 -98.5q-86 -37 -199 -37q-117 0 -211 45.5t-147 131.5q-53 82 -53 192zM254 346q0 -115 78 -180.5t196 -65.5q86 0 148 29q61 31 110.5 76t85.5 98q12 18 25 37l-369 375q-61 -47 -122 -97q-66 -53 -111 -118 q-41 -66 -41 -154zM369 1206q0 -66 28.5 -125t75.5 -110q41 -45 80 -86q61 43 115 86q57 49 94 106.5t37 130.5q0 94 -61.5 155.5t-153.5 61.5t-153.5 -61t-61.5 -158z" />
<glyph unicode="'" horiz-adv-x="477" d="M170 1526h137l-22 -412h-92z" />
<glyph unicode="(" horiz-adv-x="577" d="M100 627q0 262 82 491.5t236 407.5h119q-147 -199 -225.5 -430.5t-78.5 -468.5q0 -233 78 -466t226 -437h-119q-156 182 -237 415.5t-81 487.5z" />
<glyph unicode=")" horiz-adv-x="577" d="M41 -276q147 205 225 437t78 466q0 238 -78 469t-225 430h119q156 -178 236.5 -407.5t80.5 -491.5q0 -254 -80 -487.5t-237 -415.5h-119z" />
<glyph unicode="*" horiz-adv-x="960" d="M109 1208l36 119l273 -90v289h125v-289l270 90l39 -119l-268 -90l184 -246l-100 -71l-189 243l-186 -243l-100 71l184 246z" />
<glyph unicode="+" d="M104 453v122h451v449h123v-449h450v-122h-450v-453h-123v453h-451z" />
<glyph unicode="," horiz-adv-x="530" d="M166 -188q51 16 75.5 61t26.5 127h-61v205h137v-158q0 -129 -45 -207t-133 -98v70z" />
<glyph unicode="-" horiz-adv-x="989" d="M152 485v119h686v-119h-686z" />
<glyph unicode="." horiz-adv-x="561" d="M211 0v205h139v-205h-139z" />
<glyph unicode="/" horiz-adv-x="845" d="M4 -246l692 1690h146l-692 -1690h-146z" />
<glyph unicode="0" horiz-adv-x="1480" d="M147 764q0 236 74 412t209 276q133 98 311 98q176 0 310 -98q133 -100 206.5 -276.5t75.5 -411.5q0 -236 -73.5 -412t-206.5 -278q-134 -99 -310 -99q-178 0 -313 98.5t-209 278.5q-74 178 -74 412zM281 764q-2 -195 55 -344.5t161.5 -233.5t246 -84t244 84t159.5 231.5 t55 346.5q2 199 -55 346t-160 233q-102 82 -245.5 82t-246 -81.5t-159.5 -233.5q-57 -150 -55 -346z" />
<glyph unicode="1" horiz-adv-x="727" d="M82 1409v117h420v-1526h-133v1409h-287z" />
<glyph unicode="2" horiz-adv-x="1206" d="M104 1143q29 131 98.5 221t172 139t227.5 47q131 2 233.5 -51t159.5 -147q59 -94 60 -219q2 -92 -39 -178.5t-115 -180.5t-188 -215l-402 -440h776v-119h-970v82l428 471q127 139 209 233.5t127 171.5q41 80 41 175q0 145 -86 223t-234 78q-145 0 -243.5 -84t-133.5 -234 z" />
<glyph unicode="3" horiz-adv-x="1236" d="M96 350l113 43q41 -135 143.5 -217t247.5 -82q113 0 199 45t133 127t47 193q0 119 -49 196.5t-135 118.5t-193 39q-23 0 -51.5 -2t-50.5 -6l-23 55l420 549h-737v117h895v-103l-389 -505q113 -4 206 -56q106 -59 172 -161.5t66 -241.5q0 -135 -63.5 -246t-178.5 -172 q-114 -66 -266 -66q-123 0 -225.5 45.5t-176 129t-104.5 200.5z" />
<glyph unicode="4" horiz-adv-x="1265" d="M92 360v109l791 1057h118v-1053h177v-113h-177v-360h-122v360h-787zM184 473l17 -47l35 47h-52zM879 1327l49 66l-49 12v-78z" />
<glyph unicode="5" horiz-adv-x="1253" d="M111 350l110 43q41 -143 147.5 -221t252.5 -78q113 0 194.5 49.5t128.5 135.5t47 196q0 106 -49 192.5t-131 135.5t-188 47q-109 -2 -199 -51t-131 -117l-109 23l113 821h766v-117h-668l-76 -541q45 41 107 66q98 41 203 39q145 -2 255.5 -67.5t176 -178.5t63.5 -252 q2 -143 -63.5 -256t-180 -178.5t-259.5 -65.5q-123 0 -228 45q-102 45 -176 132q-74 84 -106 198z" />
<glyph unicode="6" horiz-adv-x="1212" d="M123 479q0 90 22.5 172t67.5 162t104 162l416 551h160l-479 -637q45 27 94 39q59 14 117 14q133 0 239.5 -61.5t168 -168t63.5 -251.5q2 -137 -63.5 -248t-176.5 -174.5t-248 -63.5t-247.5 65.5t-174.5 176.5q-63 115 -63 262zM258 457q0 -104 45 -186.5t127 -131.5 q80 -45 180.5 -45t180.5 47q82 47 127 129t45 187q0 109 -45.5 190.5t-126.5 128.5q-78 47 -181 47q-98 0 -180 -47t-127 -129t-45 -190z" />
<glyph unicode="7" horiz-adv-x="1091" d="M86 1409v117h918v-113l-705 -1413h-141l700 1409h-772z" />
<glyph unicode="8" horiz-adv-x="1263" d="M131 440q0 150 84 265q72 98 184 145q-80 45 -125 115q-61 90 -59 198q0 111 55.5 197t149.5 139q94 51 213 51q117 0 211 -49t147 -137t56 -201q-2 -113 -60 -198q-47 -68 -123 -115q111 -45 185 -145q86 -117 86 -265q0 -133 -65.5 -239.5t-180.5 -163.5 q-115 -62 -256 -62q-145 0 -258 61.5t-178 164.5q-66 106 -66 239zM264 438q2 -102 47 -180t127 -121t195 -43q111 0 192.5 41t128.5 121q47 78 47 182q0 102 -47 180t-129 121t-192 43q-113 0 -195 -43t-127 -120.5t-47 -180.5zM348 1167q0 -78 37 -137t102 -94 q64 -35 146 -35q80 0 143.5 35t100 94.5t36.5 136.5q0 82 -36.5 139.5t-100 92.5t-143.5 35t-145.5 -35t-102.5 -92.5t-37 -139.5z" />
<glyph unicode="9" horiz-adv-x="1212" d="M117 1067q-2 141 63.5 249.5t176 170t247.5 63.5q141 2 252 -63.5t172.5 -180t61.5 -257.5q0 -90 -20.5 -172t-66 -162t-108.5 -164l-416 -551h-157l479 637q-43 -27 -92 -39q-57 -14 -121 -14q-131 0 -237.5 61.5t-170 170t-63.5 251.5zM252 1069q0 -106 45 -188 t125 -129t182 -47q104 0 182 47t123 129t47 188q0 106 -47 188q-49 82 -126.5 129.5t-178.5 47.5q-104 0 -182 -47.5t-123 -129t-47 -188.5z" />
<glyph unicode=":" horiz-adv-x="561" d="M211 0v205h139v-205h-139zM211 883v204h139v-204h-139z" />
<glyph unicode=";" horiz-adv-x="602" d="M211 -199q55 18 84 67.5t31 131.5h-74v205h139v-158q-2 -129 -47 -207t-133 -98v59zM252 883v204h139v-204h-139z" />
<glyph unicode="&#x3c;" d="M279 492v106l815 399v-135l-660 -317l660 -320v-133z" />
<glyph unicode="=" d="M156 213v123h921v-123h-921zM156 694v123h921v-123h-921z" />
<glyph unicode="&#x3e;" d="M139 92v133l658 320l-658 317v135l813 -399v-106z" />
<glyph unicode="?" horiz-adv-x="997" d="M72 1178q18 117 79.5 198.5t153.5 126.5t205 47q115 0 205 -49t141 -129t51 -176q0 -94 -41 -168t-102.5 -135.5t-122.5 -124.5q-72 -72 -125 -145.5t-53 -176.5v-14h-127v14q0 94 32.5 164t86.5 131q53 59 110 113q78 76 143.5 158t65.5 186q0 61 -31 115q-31 55 -90 88 t-143 33q-121 0 -207 -74t-113 -207zM334 0v205h139v-205h-139z" />
<glyph unicode="@" horiz-adv-x="1900" d="M147 424q0 176 64.5 328.5t179.5 267.5t268.5 178.5t329.5 63.5q186 0 340 -68t265.5 -185.5t172 -266t60.5 -310.5q0 -133 -41 -229.5t-112.5 -149.5t-168.5 -53q-63 0 -121 25q-57 27 -94 73q-23 29 -35 62q-27 -43 -63 -74q-49 -43 -108.5 -64.5t-131.5 -21.5 q-117 0 -211 57.5t-149 155.5t-55 221t55 221.5t149.5 156.5t210.5 58q100 0 187 -45q68 -35 110 -96v121h117v-574q0 -76 37 -116.5t106 -40.5q86 0 138.5 78.5t52.5 232.5q0 152 -52.5 282t-147.5 227t-225 151.5t-285.5 54.5t-288 -55.5t-227.5 -152.5t-148.5 -227 t-53.5 -280q0 -154 52.5 -286t148.5 -233t228.5 -157.5t293.5 -56.5q94 0 180.5 20.5t157.5 61.5l53 -103q-172 -98 -397 -98q-178 0 -331.5 64.5t-268.5 180.5t-178.5 269.5t-63.5 331.5zM664 434q0 -90 37.5 -161.5t103 -112.5t149.5 -41t147.5 41t100.5 112.5t37 163.5 q0 139 -80 226.5t-205 87.5q-82 0 -148.5 -40t-104 -111t-37.5 -165z" />
<glyph unicode="A" horiz-adv-x="1327" d="M35 0l561 1526h137l561 -1526h-143l-139 389h-695l-141 -389h-141zM360 512h607l-303 844z" />
<glyph unicode="B" horiz-adv-x="1421" d="M193 0v1526h628q125 0 218.5 -49.5t145.5 -135.5t52 -198q0 -119 -61 -211q-49 -74 -129 -115q63 -27 112 -72q66 -57 102.5 -137t36.5 -172q0 -199 -125.5 -317.5t-351.5 -118.5h-628zM326 123h487q162 0 257 84t95 227q0 141 -93 226t-249 85h-497v-622zM326 866h483 q133 0 214 76t81 199t-79 192.5t-216 69.5h-483v-537z" />
<glyph unicode="C" horiz-adv-x="1607" d="M147 764q0 170 54.5 314.5t154 250t232.5 163.5t291 58q154 0 276.5 -55t206.5 -141t121 -178l-125 -56q-61 137 -185 221t-294 84q-174 0 -310.5 -84t-212 -232t-75.5 -345t75.5 -346.5t212 -232.5t310.5 -83q170 0 293.5 83t185.5 221l125 -56q-37 -90 -121 -176 t-206.5 -142.5t-276.5 -56.5q-158 0 -291 58.5t-232.5 165t-154 250t-54.5 315.5z" />
<glyph unicode="D" horiz-adv-x="1521" d="M193 0v1526h493q225 0 390 -93.5t255 -264.5t90 -404q0 -231 -90 -403.5t-255 -266.5t-390 -94h-493zM326 123h358q182 0 316.5 80t209 224t74.5 337q0 195 -74.5 338t-210 222t-315.5 79h-358v-1280z" />
<glyph unicode="E" horiz-adv-x="1255" d="M193 0v1526h962v-123h-829v-576h788v-122h-788v-582h829v-123h-962z" />
<glyph unicode="F" horiz-adv-x="1202" d="M193 0v1526h931v-123h-798v-576h727v-122h-727v-705h-133z" />
<glyph unicode="G" horiz-adv-x="1695" d="M147 762q0 172 54.5 315.5t154 250t233.5 164.5t294 58q158 0 281.5 -55t208.5 -141t122 -178l-123 -58q-61 141 -187 224t-302 83q-174 0 -311.5 -84t-214 -232t-76.5 -347q0 -197 76.5 -346.5t213 -231.5t312.5 -82q158 0 283.5 71t198.5 192.5t73 279.5v8h-555v119 h688v-115q0 -143 -52.5 -267t-144.5 -217t-218 -145.5t-273 -52.5q-162 0 -296 58.5t-232.5 164t-153 249t-54.5 315.5z" />
<glyph unicode="H" horiz-adv-x="1509" d="M193 0v1526h133v-695h860v695h133v-1526h-133v709h-860v-709h-133z" />
<glyph unicode="I" horiz-adv-x="516" d="M193 0v1526h133v-1526h-133z" />
<glyph unicode="J" horiz-adv-x="782" d="M125 0v133h80q117 0 185.5 71.5t68.5 205.5v1116h133v-1120q0 -125 -48 -216.5t-135 -140.5t-204 -49h-80z" />
<glyph unicode="K" horiz-adv-x="1337" d="M193 0v1526h133v-854l764 854h172l-578 -649l619 -877h-162l-551 776l-264 -299v-477h-133z" />
<glyph unicode="L" horiz-adv-x="1089" d="M193 0v1526h133v-1403h686v-123h-819z" />
<glyph unicode="M" horiz-adv-x="1693" d="M193 0v1526h112l543 -807l543 807h112v-1526h-133v1264l-520 -777h-6l-518 775v-1262h-133z" />
<glyph unicode="N" horiz-adv-x="1509" d="M193 0v1526h112l881 -1264v1264h133v-1526h-113l-880 1266v-1266h-133z" />
<glyph unicode="O" horiz-adv-x="1804" d="M147 764q0 174 58.5 317.5t163 249t240.5 162.5t294 57q156 0 293 -57t240.5 -162.5t163 -250t59.5 -316.5t-59.5 -316.5t-163 -250t-240.5 -164t-293 -58.5q-158 0 -295 58.5t-240.5 164t-162 250t-58.5 316.5zM281 764q0 -135 45 -255t128 -212t197.5 -143.5 t251.5 -51.5t252 51.5t198 143.5t128 212t45 255q0 133 -45 253t-128 212t-197 144t-253 52t-252.5 -52t-196.5 -144t-128 -212t-45 -253z" />
<glyph unicode="P" horiz-adv-x="1318" d="M193 0v1526h512q145 0 255.5 -57.5t173 -162t62.5 -241.5t-62.5 -240.5t-172 -162t-256.5 -58.5h-379v-604h-133zM326 727h383q104 0 184 42t125 119t45 179t-45 177t-125 117t-184 42h-383v-676z" />
<glyph unicode="Q" horiz-adv-x="1804" d="M147 764q0 174 58.5 317.5t163 249t240.5 162.5t294 57q156 0 293 -57t240.5 -162.5t163 -250t59.5 -316.5t-59.5 -316.5t-161.5 -250.5q-53 -53 -115 -95l190 -286h-153l-150 225q-8 -4 -14 -8q-137 -58 -293 -58q-158 0 -295 58.5t-240.5 164t-162 250t-58.5 316.5z M281 764q0 -135 45 -255t128 -212t197.5 -143.5t251.5 -51.5q129 0 238 45l-307 463h153l266 -401q53 39 99 88q82 92 128 212t46 255q0 133 -45 253t-128 212t-197 144t-253 52t-252.5 -52t-196.5 -144t-128 -212t-45 -253z" />
<glyph unicode="R" horiz-adv-x="1306" d="M193 0v1526h512q145 0 255.5 -57.5t173 -162t62.5 -241.5q0 -164 -89 -279.5t-239 -158.5l361 -627h-158l-342 604h-403v-604h-133zM326 727h383q104 0 184 42t125 119t45 179t-45 177t-125 117t-184 42h-383v-676z" />
<glyph unicode="S" horiz-adv-x="1316" d="M125 371l119 43q57 -156 170.5 -238t271.5 -82q104 0 183 35t124 98.5t45 149.5q0 119 -66.5 184.5t-172.5 93.5l-279 82q-170 49 -251 159t-81 249q0 121 58.5 212t159 142t227.5 51q133 0 238.5 -50t178 -131t103.5 -179l-117 -43q-51 141 -157.5 214t-243.5 73 q-90 0 -162 -35t-113 -98.5t-41 -149.5q0 -104 59.5 -178t199.5 -117l249 -74q164 -49 253 -150.5t89 -248.5q0 -121 -61 -212t-171 -143.5t-249 -52.5q-145 0 -261 55.5t-192.5 145.5t-109.5 195z" />
<glyph unicode="T" horiz-adv-x="1050" d="M35 1403v123h983v-123h-424v-1403h-133v1403h-426z" />
<glyph unicode="U" horiz-adv-x="1423" d="M184 506v1020h133v-1024q0 -119 50.5 -210t139.5 -142.5t205.5 -51.5t206 51.5t138.5 142.5t49 210v1024h133v-1020q0 -156 -65.5 -275.5t-184.5 -187.5t-276.5 -68t-276.5 68t-185.5 187.5t-66.5 275.5z" />
<glyph unicode="V" horiz-adv-x="1337" d="M35 1526h141l494 -1354l491 1354h144l-568 -1526h-135z" />
<glyph unicode="W" horiz-adv-x="2019" d="M35 1526h137l379 -1323l391 1323h137l389 -1323l379 1323h140l-449 -1526h-135l-391 1329l-394 -1329h-137z" />
<glyph unicode="X" horiz-adv-x="1214" d="M35 0l493 780l-475 746h156l397 -631l400 631h153l-475 -746l498 -780h-156l-420 666l-418 -666h-153z" />
<glyph unicode="Y" horiz-adv-x="1277" d="M35 1526h149l455 -695l455 695h149l-536 -830v-696h-134v696z" />
<glyph unicode="Z" horiz-adv-x="1218" d="M57 0v86l910 1317h-856v123h1032v-86l-907 -1317h927v-123h-1106z" />
<glyph unicode="[" horiz-adv-x="610" d="M180 -276v1802h379v-117h-246v-1567h246v-118h-379z" />
<glyph unicode="\" horiz-adv-x="845" d="M4 1444h146l692 -1690h-146z" />
<glyph unicode="]" horiz-adv-x="610" d="M51 -158h246v1567h-246v117h379v-1802h-379v118z" />
<glyph unicode="^" d="M217 874l344 652h109l344 -652h-142l-256 492l-258 -492h-141z" />
<glyph unicode="_" horiz-adv-x="1173" d="M152 0h870v-117h-870v117z" />
<glyph unicode="`" horiz-adv-x="698" d="M211 1618h168l184 -307h-125z" />
<glyph unicode="a" horiz-adv-x="1173" d="M125 283q0 80 35 149.5t112.5 119.5t202.5 71l408 67v62q0 109 -78 176t-203 67q-102 0 -184 -51t-125 -133l-111 59q31 66 94.5 121.5t147.5 88t178 32.5q119 0 210 -46t142.5 -127t51.5 -187v-752h-123v186q-27 -47 -74 -88q-61 -53 -144.5 -88t-183.5 -35 q-102 0 -182 39t-127 109t-47 160zM254 287q0 -88 66.5 -143.5t168.5 -55.5q119 0 207 54.5t137.5 143.5t49.5 195v94l-375 -61q-139 -23 -196.5 -84t-57.5 -143z" />
<glyph unicode="b" horiz-adv-x="1374" d="M170 0v1550h123v-661q59 94 158 151q115 70 264 72q154 0 274.5 -73.5t190 -202.5t69.5 -291t-69.5 -291t-190 -204t-274.5 -75q-150 0 -269 74q-98 61 -153 158v-207h-123zM295 545q0 -127 55.5 -228.5t149.5 -160t210.5 -58.5t209 58.5t145.5 160t53 228.5t-53 227 t-145.5 158.5t-209 58.5t-210.5 -58.5t-149.5 -158.5t-55.5 -227z" />
<glyph unicode="c" horiz-adv-x="1236" d="M125 545q0 164 70.5 292t192.5 201.5t278 73.5q102 0 189 -35t154.5 -94t102.5 -137l-108 -58q-49 94 -137.5 149.5t-200.5 55.5q-117 0 -210.5 -57t-148.5 -158.5t-55 -232.5t55 -232.5t148.5 -159t210.5 -57.5q113 0 200.5 55.5t137.5 151.5l108 -59 q-35 -76 -102.5 -136.5t-154.5 -96.5t-189 -36q-156 0 -278 75t-192.5 204t-70.5 291z" />
<glyph unicode="d" horiz-adv-x="1374" d="M125 545q0 162 69.5 291t191.5 202.5t273 73.5q150 -2 267 -72q98 -59 155 -151v661h123v-1550h-123v207q-57 -96 -155 -158q-120 -74 -267 -74q-152 0 -273.5 75t-191 204t-69.5 291zM256 545q0 -127 53 -228.5t145.5 -160t209.5 -58.5q119 0 212 58.5t148 160t55 228.5 t-55 227t-148.5 158.5t-211.5 58.5q-117 0 -209.5 -58.5t-145.5 -158.5t-53 -227z" />
<glyph unicode="e" horiz-adv-x="1271" d="M125 547q0 162 69.5 290t188.5 201.5t266 73.5q113 0 204 -41t157.5 -113.5t102.5 -166t36 -195.5q0 -20 -2 -43t-6 -47h-889q4 -109 51 -197q55 -102 151.5 -160.5t213.5 -58.5q119 0 207 56.5t143 150.5l104 -55q-37 -76 -104.5 -136.5t-156.5 -95.5t-193 -35 q-154 0 -277 75t-194.5 205t-71.5 292zM254 618h764v9q0 89 -37 164q-47 94 -134 150t-197.5 56t-203 -58t-145.5 -161q-39 -72 -47 -160z" />
<glyph unicode="f" horiz-adv-x="798" d="M61 971v116h222v105q0 115 46 194.5t126 121.5t176 42q23 0 46 -3t40 -7v-110q-16 4 -39 5t-35 1q-106 0 -171.5 -60.5t-65.5 -183.5v-105h270v-116h-270v-971h-123v971h-222z" />
<glyph unicode="g" horiz-adv-x="1357" d="M125 565.5q0 151.5 68.5 275.5t188.5 197.5t273 73.5q143 -2 258 -72q94 -59 154 -149v196h123v-1046q0 -141 -65.5 -253t-181 -175.5t-265.5 -63.5q-109 0 -201 35t-159.5 94.5t-106.5 135.5l111 59q45 -88 136 -145.5t218 -57.5q102 0 190 40t144.5 123t56.5 208v205 q-55 -94 -152 -156q-117 -74 -260 -74q-152 0 -272.5 74t-189 199t-68.5 276.5zM256 565.5q0 -116.5 51 -214t142 -155t210 -57.5q115 0 206 57.5t144.5 155t53.5 214t-53.5 212.5t-144.5 153.5t-206 57.5q-117 0 -209 -57.5t-143 -153.5t-51 -212.5z" />
<glyph unicode="h" horiz-adv-x="1171" d="M170 0v1550h123v-606q35 63 100 105q94 63 223 63q113 0 205 -51t147.5 -142.5t55.5 -207.5v-711h-123v676q0 98 -40 168.5t-108.5 108.5t-154.5 38q-92 0 -160.5 -43t-106.5 -118.5t-38 -174.5v-655h-123z" />
<glyph unicode="i" horiz-adv-x="460" d="M170 0v1087h123v-1087h-123zM170 1300v226h123v-226h-123z" />
<glyph unicode="j" horiz-adv-x="460" d="M-123 -328q39 -6 80 -6q96 0 154.5 55.5t58.5 163.5v1202h123v-1202q0 -109 -44 -183.5t-119 -113.5t-171 -39q-20 0 -42.5 3.5t-39.5 7.5v112zM170 1300v226h123v-226h-123z" />
<glyph unicode="k" horiz-adv-x="1114" d="M170 0v1550h123v-1038l579 575h168l-438 -438l479 -649h-153l-418 561l-217 -223v-338h-123z" />
<glyph unicode="l" horiz-adv-x="460" d="M170 0v1550h123v-1550h-123z" />
<glyph unicode="m" horiz-adv-x="1861" d="M170 0v1087h123v-143q39 68 108 111q90 57 205 57h7q123 0 225 -72q82 -57 125 -145q37 88 118 145q102 72 232 72q109 0 200 -51t147 -142.5t56 -207.5v-711h-123v676q0 98 -40 168.5t-105.5 108.5t-147.5 38q-88 0 -154.5 -43t-104 -118.5t-37.5 -174.5v-655h-123v676 q0 98 -39 168.5t-105.5 108.5t-148.5 38q-88 0 -154.5 -43t-103.5 -118.5t-37 -174.5v-655h-123z" />
<glyph unicode="n" horiz-adv-x="1171" d="M170 0v1087h123v-143q35 63 100 105q94 63 223 63q113 0 205 -51t147.5 -142.5t55.5 -207.5v-711h-123v676q0 98 -39 168.5t-107.5 108.5t-156.5 38q-92 0 -161.5 -43t-106.5 -118.5t-37 -174.5v-655h-123z" />
<glyph unicode="o" horiz-adv-x="1349" d="M125 545q0 162 72.5 291t196.5 202.5t282 73.5q156 0 280.5 -73.5t196.5 -201.5t72 -292t-74 -293t-197.5 -203t-277.5 -74q-156 0 -281 74t-197.5 204t-72.5 292zM256 545q0 -127 56.5 -229.5t150.5 -161t213 -58.5q117 0 212 58.5t150.5 161t55.5 229.5t-55.5 227 t-149.5 159.5t-213 59.5t-214 -58.5t-150.5 -159.5t-55.5 -228z" />
<glyph unicode="p" horiz-adv-x="1374" d="M170 -410v1497h123v-198q59 94 158 151q115 70 264 72q154 0 274.5 -73.5t190 -202.5t69.5 -293q0 -160 -69.5 -289t-190.5 -204t-274 -75q-150 0 -269 74q-98 61 -153 158v-617h-123zM295 545q0 -127 55.5 -228.5t148.5 -160t212 -58.5q117 0 209 58.5t145 160t53 228.5 t-53 227t-145.5 158.5t-209 58.5t-210.5 -58.5t-149.5 -158.5t-55.5 -227z" />
<glyph unicode="q" horiz-adv-x="1374" d="M125 545q0 162 69.5 291t191.5 202.5t273 73.5q150 -2 267 -72q98 -57 155 -151v198h123v-1497h-123v617q-57 -96 -155 -158q-119 -74 -267 -74q-152 0 -273.5 75t-191 204t-69.5 291zM256 545q0 -127 53 -228.5t145.5 -160t209.5 -58.5q119 0 212 58.5t148 160t55 228.5 t-55 227t-148.5 158.5t-211.5 58.5q-117 0 -209.5 -58.5t-145.5 -158.5t-53 -227z" />
<glyph unicode="r" horiz-adv-x="694" d="M170 0v1087h123v-137q35 59 96 99q86 53 203 53h70v-123h-84q-133 0 -209 -85t-76 -228v-666h-123z" />
<glyph unicode="s" horiz-adv-x="1040" d="M102 258l107 49q51 -100 137 -158.5t191 -58.5q106 0 178.5 52.5t72.5 138.5q0 53 -27.5 90t-70.5 60.5t-92 35.5l-168 47q-141 39 -207.5 115t-66.5 178q0 92 47 160.5t127 106.5t176 38q135 0 245.5 -69.5t155.5 -188.5l-110 -51q-43 92 -121 144t-172 52 q-98 0 -159.5 -52t-61.5 -132q0 -51 24.5 -85t64.5 -55.5t83 -33.5l182 -53q133 -37 205.5 -117t72.5 -188q0 -88 -49 -158t-134.5 -110t-194.5 -40q-152 0 -266.5 76t-168.5 207z" />
<glyph unicode="t" horiz-adv-x="786" d="M78 971v116h78q61 0 94 37t33 101v116h123v-254h237v-116h-237v-682q0 -45 13 -88t52 -70t113 -27q16 0 39.5 2.5t38.5 4.5v-111q-23 -6 -52 -9t-45 -3q-135 0 -208.5 76.5t-73.5 224.5v682h-205z" />
<glyph unicode="u" horiz-adv-x="1171" d="M147 393v694h123v-684q0 -96 40 -164.5t108.5 -105.5t154.5 -37q94 0 163 43t106 120t37 175v653h122v-1087h-122v145q-37 -59 -101 -104q-94 -66 -223 -66q-111 0 -204 51.5t-148.5 144.5t-55.5 222z" />
<glyph unicode="v" horiz-adv-x="1060" d="M35 1087h137l356 -917l359 917h141l-436 -1087h-127z" />
<glyph unicode="w" horiz-adv-x="1603" d="M35 1087h137l297 -901l270 901h125l271 -901l299 901h137l-375 -1087h-125l-268 899l-271 -899h-124z" />
<glyph unicode="x" horiz-adv-x="985" d="M35 0l383 545l-381 542h153l304 -436l303 436h153l-381 -542l381 -545h-153l-303 438l-306 -438h-153z" />
<glyph unicode="y" horiz-adv-x="1091" d="M41 1087h135l371 -925l373 925h137l-508 -1239q-29 -68 -76 -137t-120 -115.5t-179 -46.5q-29 0 -62.5 5.5t-64.5 15.5v115q25 -6 56.5 -10.5t58.5 -4.5q100 2 157.5 49.5t104.5 155.5l53 127z" />
<glyph unicode="z" horiz-adv-x="905" d="M57 0v98l633 873h-596v116h762v-96l-631 -872h635v-119h-803z" />
<glyph unicode="{" horiz-adv-x="622" d="M39 565v119h57q72 0 104.5 44t32.5 114v405q0 125 77 202t198 77h63v-117h-63q-66 0 -103.5 -45t-37.5 -115v-403v-12q0 -57 -19 -107q-20 -55 -72 -102q51 -41 72 -101q20 -53 19 -108v-10v-406q0 -68 37.5 -113t103.5 -45h63v-118h-63q-121 0 -198 76.5t-77 201.5v408 q0 70 -32.5 112.5t-104.5 42.5h-57z" />
<glyph unicode="|" horiz-adv-x="583" d="M225 -389v2120h133v-2120h-133z" />
<glyph unicode="}" horiz-adv-x="622" d="M51 -158h64q68 0 105.5 45t35.5 113v406q0 59 21.5 118.5t68.5 100.5q-51 47 -72 102q-20 51 -18 109v10v403q2 70 -36 115t-105 45h-64v117h64q123 0 198.5 -77t75.5 -202v-405q0 -70 34 -114t105 -44h56v-119h-56q-72 0 -105.5 -43t-33.5 -112v-408 q0 -125 -75.5 -201.5t-198.5 -76.5h-64v118z" />
<glyph unicode="~" d="M172 442q8 133 80 199t174 66q68 0 116 -24t88 -54.5t82 -54t95 -23.5q55 0 92 32.5t49 114.5h113q-8 -131 -77 -197.5t-171 -66.5q-68 0 -116 23.5t-88 54.5t-82 54.5t-95 23.5q-57 0 -97 -34t-50 -114h-113z" />
<glyph unicode="&#xa1;" horiz-adv-x="550" d="M207 883v204h139v-204h-139zM209 -438l8 1093h117l8 -1093h-133z" />
<glyph unicode="&#xa2;" horiz-adv-x="1236" d="M125 766q2 -162 72 -291q70 -131 192 -205q94 -57 209 -69v118q-78 12 -143 54q-94 57 -148 159q-55 102 -55 232q0 133 55 235q53 102 148 156q66 39 143 53v121q-115 -14 -209 -72q-123 -74 -192.5 -200.5t-71.5 -290.5zM598 0v201q33 -4 68 -4q27 0 51 2v-199h-119z M598 319v889q33 4 68 4q26 0 51 -2v-893q-25 -2 -51 -2q-35 0 -68 4zM598 1329v197h119v-195q-25 2 -51 2q-35 0 -68 -4zM717 199q74 6 139 32q86 35 153.5 96.5t102.5 137.5l-108 57q-49 -96 -138 -151q-67 -44 -149 -54v-118zM717 1210q82 -10 149 -51q88 -53 138 -151 l108 57q-35 78 -102.5 139.5t-153.5 93.5q-65 27 -139 33v-121z" />
<glyph unicode="&#xa3;" horiz-adv-x="1323" d="M96 0v119h205v600h-205v112h205v269q0 133 57.5 235.5t162 159.5t239.5 55q125 -2 223 -47t163.5 -133t80.5 -213l-121 -27q-18 147 -110.5 225.5t-235.5 78.5q-150 0 -238 -90.5t-88 -243.5v-269h379v-112h-379v-600h705v-119h-1043z" />
<glyph unicode="&#xa4;" horiz-adv-x="1200" d="M125 158l154 153q-41 53 -61.5 114.5t-20.5 125t20.5 125t61.5 117.5l-154 153l82 82l153 -154q53 37 115 59.5t125 22.5q63 -2 124.5 -22.5t117.5 -59.5l153 154l82 -82l-153 -153q39 -55 59.5 -117t20.5 -125.5t-20.5 -124.5t-59.5 -115l153 -153l-82 -82l-153 153 q-55 -41 -116.5 -61.5t-125.5 -20.5q-57 0 -120.5 20.5t-119.5 61.5l-153 -153zM319 551q0 -76 39 -137.5t103 -102.5q63 -37 139 -37q80 0 141.5 37t98.5 103q37 61 39 137q-2 80 -39 141.5t-98.5 98t-141.5 38.5q-76 -2 -139.5 -38.5t-102.5 -98t-39 -141.5z" />
<glyph unicode="&#xa5;" horiz-adv-x="1277" d="M35 1526h149l455 -695l455 695h149l-506 -783h260v-112h-290v-205h290v-113h-290v-313h-134v313h-292v113h292v205h-292v112h262z" />
<glyph unicode="&#xa6;" horiz-adv-x="583" d="M225 -389v856h133v-856h-133zM225 877v854h133v-854h-133z" />
<glyph unicode="&#xa7;" horiz-adv-x="1101" d="M102 96l111 54q53 -109 147.5 -170.5t202.5 -61.5q111 0 186.5 57.5t75.5 147.5q2 57 -26.5 94t-73.5 63.5t-100 41.5l-179 51q-147 45 -216.5 122.5t-71.5 184.5q2 94 51 168t131 113q6 2 12 6q49 -27 115 -45l33 -9q-88 -6 -146 -61q-66 -61 -65 -156q2 -53 26.5 -92 t65.5 -63.5t90 -38.5l188 -56q-37 -8 -79 -8v-88q115 2 204 43h4q55 -31 93 -71q78 -84 75 -197q-2 -92 -51 -166t-139 -115t-205 -43q-160 -2 -282.5 80t-176.5 215zM178 1229q2 -106 72 -185q39 -45 102 -77q78 35 174 34l-2 -88h-24l145 -43q55 -14 100.5 -42.5 t73.5 -65.5q29 -41 27 -100q2 -100 -76 -162q-47 -39 -111 -54h5q69 -22 124 -53q88 41 138 115q51 74 51 166q2 113 -76 198.5t-217 122.5l-192 56q-49 14 -90.5 38.5t-65.5 59.5q-25 37 -27 88q0 82 65.5 139.5t170.5 57.5q98 0 180 -55.5t129 -151.5l113 53 q-49 123 -164 196.5t-254 73.5q-104 0 -188.5 -41t-133.5 -112.5t-49 -167.5z" />
<glyph unicode="&#xa8;" horiz-adv-x="854" d="M211 1311v180h174v-180h-174zM549 1311v180h174v-180h-174z" />
<glyph unicode="&#xa9;" horiz-adv-x="1832" d="M129 764q-2 162 59.5 305t169.5 250q109 109 252.5 170t307 61t307 -61.5t250.5 -169.5q106 -106 167.5 -249.5t61.5 -305.5q0 -166 -61.5 -309.5t-170 -250t-251.5 -168t-303 -61.5q-164 0 -307.5 61.5t-252.5 168.5q-109 109 -170 252t-59 307zM252 764q0 -137 51 -260 q53 -123 143.5 -213t210.5 -144q121 -51 260.5 -51t260.5 51q121 53 211 143.5t141 213.5t51 260t-49 258t-143 213q-90 92 -211 143.5t-260.5 51.5t-260 -51.5t-211 -141.5t-143.5 -213q-51 -121 -51 -260zM518 764q0 125 53 221q51 96 145.5 151.5t211.5 55.5 q86 0 155 -29q68 -29 117 -78t70 -104l-109 -53q-27 63 -88 108t-145 43q-127 -2 -207 -88t-80 -227t80 -229.5t207 -88.5q86 0 145.5 43t87.5 109l109 -51q-20 -55 -69.5 -104.5t-117.5 -77.5q-69 -31 -155 -31q-117 -2 -211 55t-146 156q-53 98 -53 219z" />
<glyph unicode="&#xaa;" horiz-adv-x="933" d="M125 963q0 90 61.5 155.5t190.5 85.5l268 45v37q0 70 -49 111t-129 41q-70 0 -123 -33t-78 -92l-104 55q35 78 121 127t186 51q131 2 213 -71.5t82 -188.5v-524h-115v112q-35 -51 -92 -83q-78 -46 -176 -46q-111 0 -184.5 61.5t-71.5 156.5zM250 966.5q0 -53.5 41 -86 t102 -34.5q76 0 133 33q57 31 88 88t31 125v55l-242 -39q-84 -14 -118.5 -51t-34.5 -90.5z" />
<glyph unicode="&#xab;" horiz-adv-x="1036" d="M59 551l312 385h139l-305 -385l305 -385h-139zM526 551l312 385h139l-305 -385l305 -385h-139z" />
<glyph unicode="&#xac;" d="M104 453v122h1024v-493h-122v371h-902z" />
<glyph unicode="&#xad;" horiz-adv-x="989" d="M152 485v119h686v-119h-686z" />
<glyph unicode="&#xae;" horiz-adv-x="1308" d="M129 1081q2 145 72 265q70 121 188.5 190.5t265.5 69.5q111 0 205 -41t166 -113t113 -166t41 -205q0 -143 -70 -262t-190 -192q-120 -70 -265 -70q-147 0 -266 69.5t-188 192.5q-70 119 -72 262zM233 1081.5q0 -118.5 57.5 -213t151.5 -151.5t213 -55q119 0 213.5 55 t151.5 151.5t55 212.5q2 119 -55 213.5t-151.5 151.5t-213.5 55q-119 2 -213 -55t-151.5 -151.5t-57.5 -213zM465 807v553h213q84 0 137 -45t55 -131q2 -53 -22.5 -94t-75.5 -64l129 -219h-119l-112 201h-101v-201h-104zM569 1100h109q39 0 63.5 24.5t24.5 59.5 q0 37 -24.5 59.5t-63.5 22.5h-109v-166z" />
<glyph unicode="&#xaf;" horiz-adv-x="894" d="M211 1352v112h532v-112h-532z" />
<glyph unicode="&#xb0;" horiz-adv-x="944" d="M170 1249q-2 86 39 153.5t110.5 108.5t153.5 39q86 2 154 -39q66 -41 106.5 -110.5t40.5 -153.5q0 -86 -41 -153.5t-106 -106.5q-68 -39 -156 -39q-82 0 -152 39q-70 37 -110.5 106.5t-38.5 155.5zM274 1247q0 -88 57.5 -141t139.5 -55q78 2 139.5 55t59.5 141 q2 92 -59.5 145.5t-139.5 55.5q-78 -2 -137.5 -55.5t-59.5 -145.5z" />
<glyph unicode="&#xb1;" d="M104 0v123h1024v-123h-1024zM104 678v123h451v377h123v-377h450v-123h-450v-381h-123v381h-451z" />
<glyph unicode="&#xb2;" horiz-adv-x="876" d="M80 1260q18 88 68.5 150.5t124 97t159.5 34.5q96 0 169 -37.5t115 -103t42 -153.5q0 -98 -58.5 -185.5t-164.5 -202.5l-273 -292h518v-111h-692v88l297 320q86 94 140.5 155.5t80 111.5t25.5 109q0 88 -53.5 138.5t-143.5 50.5q-92 0 -155.5 -52.5t-85.5 -148.5z" />
<glyph unicode="&#xb3;" horiz-adv-x="886" d="M76 699l108 41q29 -86 94.5 -136.5t157.5 -50.5q106 0 173 62.5t67 169.5q0 109 -68.5 167t-171.5 58q-45 0 -84 -10l-26 55l288 360h-487v111h633v-100l-254 -322q74 -6 135 -39q74 -41 118 -112.5t44 -168t-47 -174t-130.5 -123.5t-189.5 -46q-86 0 -159.5 31.5 t-125 89t-75.5 137.5z" />
<glyph unicode="&#xb4;" horiz-adv-x="698" d="M211 1311l184 307h168l-227 -307h-125z" />
<glyph unicode="&#xb5;" horiz-adv-x="1171" d="M147 -287v1374h123v-684q0 -96 41 -165.5t107 -104.5q70 -37 155 -37q94 0 164 43q70 41 105 119q37 78 37 176v653h122v-1087h-122v147q-39 -70 -111 -114q-92 -57 -213 -58q-94 0 -178 39q-61 29 -107 74v-375h-123z" />
<glyph unicode="&#xb6;" horiz-adv-x="774" d="M98 1213q0 90 41 161.5t113 112.5t164 39h133v-1731h-133v1102q-92 0 -162 41t-115 113q-41 72 -41 162z" />
<glyph unicode="&#xb7;" horiz-adv-x="561" d="M211 451v204h139v-204h-139z" />
<glyph unicode="&#xb8;" horiz-adv-x="782" d="M211 -383l37 88q33 -33 75 -50t80 -17q49 0 78 25.5t29 62.5q0 53 -52 81.5t-155 38.5l51 174h99l-29 -108q96 -18 149.5 -68.5t53.5 -119.5q0 -82 -59.5 -133.5t-151.5 -51.5q-57 0 -112.5 20.5t-92.5 57.5z" />
<glyph unicode="&#xb9;" horiz-adv-x="608" d="M51 1415v111h328v-1069h-127v958h-201z" />
<glyph unicode="&#xba;" horiz-adv-x="1036" d="M125 1147q0 115 52 205t142.5 142t201 52t199.5 -52t141 -142t52 -205q0 -117 -53 -207t-142 -142.5t-198 -52.5q-111 0 -201 52.5t-142 143.5t-52 206zM250 1147q0 -80 36 -145.5t97 -103.5t137 -38q74 0 134.5 38t96 102.5t35.5 146.5t-35.5 146.5t-95 102.5t-135.5 38 t-137 -38t-97 -102.5t-36 -146.5z" />
<glyph unicode="&#xbb;" horiz-adv-x="1036" d="M59 166l308 385l-308 385h142l309 -385l-309 -385h-142zM526 166l308 385l-308 385h142l309 -385l-309 -385h-142z" />
<glyph unicode="&#xbc;" horiz-adv-x="1796" d="M51 1421v105h283v-854h-121v749h-162zM250 0l913 1526h137l-913 -1526h-137zM1065 195v100l411 561h119v-561h115v-100h-115v-195h-114v195h-416zM1137 295l18 -43l31 43h-49zM1481 700l34 48l-34 10v-58z" />
<glyph unicode="&#xbd;" horiz-adv-x="1728" d="M51 1421v105h283v-854h-121v749h-162zM250 0l913 1526h137l-913 -1526h-137zM1067 645q14 70 55 120t100.5 76.5t129.5 26.5q117 0 191.5 -66.5t74.5 -170.5q0 -82 -50.5 -151.5t-121.5 -147.5l-211 -228h399v-104h-561v86l236 252q68 72 108.5 119t60 85t19.5 81 q0 66 -40 101.5t-105.5 35.5t-112.5 -38t-66 -110z" />
<glyph unicode="&#xbe;" horiz-adv-x="1984" d="M76 864l102 39q23 -66 73 -102.5t118 -36.5q78 0 127 47t49 125q0 80 -49.5 124t-126.5 44q-18 0 -40 -3t-36 -9l-25 55l228 276h-377v103h512v-96l-193 -238q92 -8 154 -70q74 -70 74 -184q0 -78 -38 -141.5t-105.5 -101.5t-153.5 -38q-104 0 -185.5 56.5t-107.5 150.5z M439 0l913 1526h137l-913 -1526h-137zM1254 195v100l411 561h119v-561h115v-100h-115v-195h-114v195h-416zM1326 295l18 -43l31 43h-49zM1670 700l34 48l-34 10v-58z" />
<glyph unicode="&#xbf;" horiz-adv-x="997" d="M90 -109q0 96 41 170t102.5 136.5t122.5 124.5q70 70 124.5 146.5t54.5 172.5v14h127v-14q0 -92 -33 -163.5t-85 -130t-112 -111.5q-80 -78 -144.5 -158t-64.5 -189q0 -59 32 -113.5t90 -88t142 -33.5q123 0 208 75.5t112 204.5l119 -24q-18 -113 -80 -197t-154 -130 t-205 -46q-115 0 -204.5 49t-141 130t-51.5 175zM524 883v204h140v-204h-140z" />
<glyph unicode="&#xc0;" horiz-adv-x="1327" d="M35 0l561 1526h137l561 -1526h-143l-139 389h-695l-141 -389h-141zM360 512h607l-303 844zM375 2056h168l184 -307h-125z" />
<glyph unicode="&#xc1;" horiz-adv-x="1327" d="M35 0l561 1526h137l561 -1526h-143l-139 389h-695l-141 -389h-141zM360 512h607l-303 844zM602 1749l184 307h168l-227 -307h-125z" />
<glyph unicode="&#xc2;" horiz-adv-x="1327" d="M35 0l561 1526h137l561 -1526h-143l-139 389h-695l-141 -389h-141zM348 1749l252 307h129l254 -307h-144l-174 211l-174 -211h-143zM360 512h607l-303 844z" />
<glyph unicode="&#xc3;" horiz-adv-x="1327" d="M35 0l561 1526h137l561 -1526h-143l-139 389h-695l-141 -389h-141zM356 1757q0 111 49 173t137 62q51 0 83 -20.5t55.5 -48t47 -48t58.5 -20.5q39 0 61.5 33t22.5 96h102q0 -104 -50 -169.5t-138 -65.5q-53 0 -86 20.5t-56.5 48t-46 48t-57.5 20.5t-56.5 -29.5 t-21.5 -99.5h-104zM360 512h607l-303 844z" />
<glyph unicode="&#xc4;" horiz-adv-x="1327" d="M35 0l561 1526h137l561 -1526h-143l-139 389h-695l-141 -389h-141zM360 512h607l-303 844zM408 1749v180h174v-180h-174zM746 1749v180h174v-180h-174z" />
<glyph unicode="&#xc5;" horiz-adv-x="1327" d="M35 0l561 1526h137l561 -1526h-143l-139 389h-695l-141 -389h-141zM360 512h607l-303 844zM455 1915q0 94 61.5 150t147.5 56t148.5 -56t62.5 -150q0 -96 -62.5 -151.5t-148.5 -55.5q-84 0 -146.5 55t-62.5 152zM553 1915q0 -53 33 -84t78 -31q47 0 79.5 30.5t32.5 82.5 q0 53 -32.5 83.5t-79.5 30.5q-45 0 -78 -30.5t-33 -81.5z" />
<glyph unicode="&#xc6;" horiz-adv-x="2019" d="M35 0l561 1526h1323v-123h-829v-576h788v-122h-788v-582h829v-123h-963v389h-639l-141 -389h-141zM360 512h596v891h-274z" />
<glyph unicode="&#xc7;" horiz-adv-x="1607" d="M147 764q0 170 54.5 314.5t154 250t232.5 163.5t291 58q154 0 276.5 -55t206.5 -141t121 -178l-125 -56q-61 137 -185 221t-294 84q-174 0 -310.5 -84t-212 -232t-75.5 -345t75.5 -346.5t212 -232.5t310.5 -83q170 0 293.5 83t185.5 221l125 -56q-37 -90 -121 -176 t-206.5 -142.5t-276.5 -56.5q-158 0 -291 58.5t-232.5 165t-154 250t-54.5 315.5zM694 -383l37 88q33 -33 75 -50t80 -17q49 0 78 25.5t29 62.5q0 53 -52 81.5t-155 38.5l51 174h99l-29 -108q96 -18 149.5 -68.5t53.5 -119.5q0 -82 -59.5 -133.5t-151.5 -51.5 q-57 0 -112.5 20.5t-92.5 57.5z" />
<glyph unicode="&#xc8;" horiz-adv-x="1255" d="M193 0v1526h962v-123h-829v-576h788v-122h-788v-582h829v-123h-962zM385 2056h168l184 -307h-125z" />
<glyph unicode="&#xc9;" horiz-adv-x="1255" d="M193 0v1526h962v-123h-829v-576h788v-122h-788v-582h829v-123h-962zM610 1749l184 307h168l-227 -307h-125z" />
<glyph unicode="&#xca;" horiz-adv-x="1255" d="M193 0v1526h962v-123h-829v-576h788v-122h-788v-582h829v-123h-962zM356 1749l252 307h129l254 -307h-144l-174 211l-174 -211h-143z" />
<glyph unicode="&#xcb;" horiz-adv-x="1255" d="M193 0v1526h962v-123h-829v-576h788v-122h-788v-582h829v-123h-962zM418 1749v180h174v-180h-174zM756 1749v180h174v-180h-174z" />
<glyph unicode="&#xcc;" horiz-adv-x="516" d="M-31 2056h168l184 -307h-125zM193 0v1526h133v-1526h-133z" />
<glyph unicode="&#xcd;" horiz-adv-x="516" d="M193 0v1526h133v-1526h-133zM197 1749l184 307h168l-227 -307h-125z" />
<glyph unicode="&#xce;" horiz-adv-x="516" d="M-57 1749l252 307h129l254 -307h-144l-174 211l-174 -211h-143zM193 0v1526h133v-1526h-133z" />
<glyph unicode="&#xcf;" horiz-adv-x="516" d="M2 1749v180h174v-180h-174zM193 0v1526h133v-1526h-133zM340 1749v180h174v-180h-174z" />
<glyph unicode="&#xd0;" horiz-adv-x="1521" d="M59 705v118h134v703h493q225 0 390 -93.5t255 -264.5t90 -404q0 -231 -90 -403.5t-255 -266.5t-390 -94h-493v705h-134zM326 123h358q182 0 316.5 80t209 224t74.5 337q0 195 -74.5 338t-210 222t-315.5 79h-358v-580h338v-118h-338v-582z" />
<glyph unicode="&#xd1;" horiz-adv-x="1509" d="M193 0v1526h112l881 -1264v1264h133v-1526h-113l-880 1266v-1266h-133zM447 1757q0 111 49 173t137 62q51 0 83 -20.5t55.5 -48t47 -48t58.5 -20.5q39 0 61.5 33t22.5 96h102q0 -104 -50 -169.5t-138 -65.5q-53 0 -86 20.5t-56.5 48t-46 48t-57.5 20.5t-56.5 -29.5 t-21.5 -99.5h-104z" />
<glyph unicode="&#xd2;" horiz-adv-x="1804" d="M147 764q0 174 58.5 317.5t163 249t240.5 162.5t294 57q156 0 293 -57t240.5 -162.5t163 -250t59.5 -316.5t-59.5 -316.5t-163 -250t-240.5 -164t-293 -58.5q-158 0 -295 58.5t-240.5 164t-162 250t-58.5 316.5zM281 764q0 -135 45 -255t128 -212t197.5 -143.5 t251.5 -51.5t252 51.5t198 143.5t128 212t45 255q0 133 -45 253t-128 212t-197 144t-253 52t-252.5 -52t-196.5 -144t-128 -212t-45 -253zM614 2056h168l184 -307h-125z" />
<glyph unicode="&#xd3;" horiz-adv-x="1804" d="M147 764q0 174 58.5 317.5t163 249t240.5 162.5t294 57q156 0 293 -57t240.5 -162.5t163 -250t59.5 -316.5t-59.5 -316.5t-163 -250t-240.5 -164t-293 -58.5q-158 0 -295 58.5t-240.5 164t-162 250t-58.5 316.5zM281 764q0 -135 45 -255t128 -212t197.5 -143.5 t251.5 -51.5t252 51.5t198 143.5t128 212t45 255q0 133 -45 253t-128 212t-197 144t-253 52t-252.5 -52t-196.5 -144t-128 -212t-45 -253zM840 1749l184 307h168l-227 -307h-125z" />
<glyph unicode="&#xd4;" horiz-adv-x="1804" d="M147 764q0 174 58.5 317.5t163 249t240.5 162.5t294 57q156 0 293 -57t240.5 -162.5t163 -250t59.5 -316.5t-59.5 -316.5t-163 -250t-240.5 -164t-293 -58.5q-158 0 -295 58.5t-240.5 164t-162 250t-58.5 316.5zM281 764q0 -135 45 -255t128 -212t197.5 -143.5 t251.5 -51.5t252 51.5t198 143.5t128 212t45 255q0 133 -45 253t-128 212t-197 144t-253 52t-252.5 -52t-196.5 -144t-128 -212t-45 -253zM586 1749l252 307h129l254 -307h-144l-174 211l-174 -211h-143z" />
<glyph unicode="&#xd5;" horiz-adv-x="1804" d="M147 764q0 174 58.5 317.5t163 249t240.5 162.5t294 57q156 0 293 -57t240.5 -162.5t163 -250t59.5 -316.5t-59.5 -316.5t-163 -250t-240.5 -164t-293 -58.5q-158 0 -295 58.5t-240.5 164t-162 250t-58.5 316.5zM281 764q0 -135 45 -255t128 -212t197.5 -143.5 t251.5 -51.5t252 51.5t198 143.5t128 212t45 255q0 133 -45 253t-128 212t-197 144t-253 52t-252.5 -52t-196.5 -144t-128 -212t-45 -253zM594 1757q0 111 49 173t137 62q51 0 83 -20.5t55.5 -48t47 -48t58.5 -20.5q39 0 61.5 33t22.5 96h102q0 -104 -50 -169.5t-138 -65.5 q-53 0 -86 20.5t-56.5 48t-46 48t-57.5 20.5t-56.5 -29.5t-21.5 -99.5h-104z" />
<glyph unicode="&#xd6;" horiz-adv-x="1804" d="M147 764q0 174 58.5 317.5t163 249t240.5 162.5t294 57q156 0 293 -57t240.5 -162.5t163 -250t59.5 -316.5t-59.5 -316.5t-163 -250t-240.5 -164t-293 -58.5q-158 0 -295 58.5t-240.5 164t-162 250t-58.5 316.5zM281 764q0 -135 45 -255t128 -212t197.5 -143.5 t251.5 -51.5t252 51.5t198 143.5t128 212t45 255q0 133 -45 253t-128 212t-197 144t-253 52t-252.5 -52t-196.5 -144t-128 -212t-45 -253zM647 1749v180h174v-180h-174zM985 1749v180h174v-180h-174z" />
<glyph unicode="&#xd7;" d="M180 86l348 350l-346 346l86 86l348 -346l347 346l86 -86l-347 -346l349 -350l-86 -86l-349 348l-348 -348z" />
<glyph unicode="&#xd8;" horiz-adv-x="1804" d="M147.5 763.5q-0.5 174.5 58 318t163 249t240.5 162.5t294 57q156 0 293 -57q80 -33 150 -84l96 117h172l-168 -205q96 -100 153 -240q59 -143 59.5 -316t-59 -317.5t-163 -250t-240.5 -164t-293 -58.5q-158 0 -295 58q-80 35 -147 84l-96 -117h-172l167 205 q-98 102 -155 241q-57 143 -57.5 317.5zM281 764q0 -137 45 -256q43 -113 118 -201l820 1002q-51 35 -109 63q-115 53 -253 53t-251.5 -52t-196.5 -144t-128 -212t-45 -253zM543 217q51 -37 108 -63q115 -52 252 -52t252 51.5t198 143.5t128 212t45 255q0 133 -45 252 q-43 113 -119 203z" />
<glyph unicode="&#xd9;" horiz-adv-x="1423" d="M184 506v1020h133v-1024q0 -119 50.5 -210t139.5 -142.5t205.5 -51.5t206 51.5t138.5 142.5t49 210v1024h133v-1020q0 -156 -65.5 -275.5t-184.5 -187.5t-276.5 -68t-276.5 68t-185.5 187.5t-66.5 275.5zM424 2056h168l184 -307h-125z" />
<glyph unicode="&#xda;" horiz-adv-x="1423" d="M184 506v1020h133v-1024q0 -119 50.5 -210t139.5 -142.5t205.5 -51.5t206 51.5t138.5 142.5t49 210v1024h133v-1020q0 -156 -65.5 -275.5t-184.5 -187.5t-276.5 -68t-276.5 68t-185.5 187.5t-66.5 275.5zM649 1749l184 307h168l-227 -307h-125z" />
<glyph unicode="&#xdb;" horiz-adv-x="1423" d="M184 506v1020h133v-1024q0 -119 50.5 -210t139.5 -142.5t205.5 -51.5t206 51.5t138.5 142.5t49 210v1024h133v-1020q0 -156 -65.5 -275.5t-184.5 -187.5t-276.5 -68t-276.5 68t-185.5 187.5t-66.5 275.5zM395 1749l252 307h129l254 -307h-144l-174 211l-174 -211h-143z " />
<glyph unicode="&#xdc;" horiz-adv-x="1423" d="M184 506v1020h133v-1024q0 -119 50.5 -210t139.5 -142.5t205.5 -51.5t206 51.5t138.5 142.5t49 210v1024h133v-1020q0 -156 -65.5 -275.5t-184.5 -187.5t-276.5 -68t-276.5 68t-185.5 187.5t-66.5 275.5zM457 1749v180h174v-180h-174zM795 1749v180h174v-180h-174z" />
<glyph unicode="&#xdd;" horiz-adv-x="1277" d="M35 1526h149l455 -695l455 695h149l-536 -830v-696h-134v696zM578 1749l184 307h168l-227 -307h-125z" />
<glyph unicode="&#xde;" horiz-adv-x="1300" d="M180 0v1526h133v-301h379q145 0 256 -58q113 -57 174 -163q61 -104 62 -242q0 -139 -61.5 -241.5t-172 -160t-258.5 -57.5h-379v-303h-133zM313 426h383q104 0 184.5 41t125.5 119t45 178q0 102 -45 178q-45 78 -125 119t-185 41h-383v-676z" />
<glyph unicode="&#xdf;" horiz-adv-x="1236" d="M193 -297v1415q0 133 57 229.5t155.5 149.5t223.5 53q125 2 219 -47t147.5 -137t55.5 -207q2 -137 -68 -229q-55 -74 -141 -115q121 -49 190 -131q82 -98 82 -250q0 -131 -61.5 -229.5t-163.5 -151.5q-106 -53 -248 -53h-131v119h131q150 0 244 86t94 229.5t-94 229.5 t-250 86h-125v118h111q88 0 153.5 37t104.5 99q39 66 39 149q0 82 -37 145q-37 61 -102.5 98.5t-151.5 37.5q-90 0 -160 -39t-111 -108.5t-41 -168.5v-1415h-122z" />
<glyph unicode="&#xe0;" horiz-adv-x="1173" d="M125 283q0 80 35 149.5t112.5 119.5t202.5 71l408 67v62q0 109 -78 176t-203 67q-102 0 -184 -51t-125 -133l-111 59q31 66 94.5 121.5t147.5 88t178 32.5q119 0 210 -46t142.5 -127t51.5 -187v-752h-123v186q-27 -47 -74 -88q-61 -53 -144.5 -88t-183.5 -35 q-102 0 -182 39t-127 109t-47 160zM254 287q0 -88 66.5 -143.5t168.5 -55.5q119 0 207 54.5t137.5 143.5t49.5 195v94l-375 -61q-139 -23 -196.5 -84t-57.5 -143zM313 1618h168l184 -307h-125z" />
<glyph unicode="&#xe1;" horiz-adv-x="1173" d="M125 283q0 80 35 149.5t112.5 119.5t202.5 71l408 67v62q0 109 -78 176t-203 67q-102 0 -184 -51t-125 -133l-111 59q31 66 94.5 121.5t147.5 88t178 32.5q119 0 210 -46t142.5 -127t51.5 -187v-752h-123v186q-27 -47 -74 -88q-61 -53 -144.5 -88t-183.5 -35 q-102 0 -182 39t-127 109t-47 160zM254 287q0 -88 66.5 -143.5t168.5 -55.5q119 0 207 54.5t137.5 143.5t49.5 195v94l-375 -61q-139 -23 -196.5 -84t-57.5 -143zM539 1311l184 307h168l-227 -307h-125z" />
<glyph unicode="&#xe2;" horiz-adv-x="1173" d="M125 283q0 80 35 149.5t112.5 119.5t202.5 71l408 67v62q0 109 -78 176t-203 67q-102 0 -184 -51t-125 -133l-111 59q31 66 94.5 121.5t147.5 88t178 32.5q119 0 210 -46t142.5 -127t51.5 -187v-752h-123v186q-27 -47 -74 -88q-61 -53 -144.5 -88t-183.5 -35 q-102 0 -182 39t-127 109t-47 160zM254 287q0 -88 66.5 -143.5t168.5 -55.5q119 0 207 54.5t137.5 143.5t49.5 195v94l-375 -61q-139 -23 -196.5 -84t-57.5 -143zM285 1311l252 307h129l254 -307h-144l-174 211l-174 -211h-143z" />
<glyph unicode="&#xe3;" horiz-adv-x="1173" d="M125 283q0 80 35 149.5t112.5 119.5t202.5 71l408 67v62q0 109 -78 176t-203 67q-102 0 -184 -51t-125 -133l-111 59q31 66 94.5 121.5t147.5 88t178 32.5q119 0 210 -46t142.5 -127t51.5 -187v-752h-123v186q-27 -47 -74 -88q-61 -53 -144.5 -88t-183.5 -35 q-102 0 -182 39t-127 109t-47 160zM254 287q0 -88 66.5 -143.5t168.5 -55.5q119 0 207 54.5t137.5 143.5t49.5 195v94l-375 -61q-139 -23 -196.5 -84t-57.5 -143zM293 1319q0 111 49 173t137 62q51 0 83 -20.5t55.5 -48t47 -48t58.5 -20.5q39 0 61.5 33t22.5 96h102 q0 -104 -50 -169.5t-138 -65.5q-53 0 -86 20.5t-56.5 48t-46 48t-57.5 20.5t-56.5 -29.5t-21.5 -99.5h-104z" />
<glyph unicode="&#xe4;" horiz-adv-x="1173" d="M125 283q0 80 35 149.5t112.5 119.5t202.5 71l408 67v62q0 109 -78 176t-203 67q-102 0 -184 -51t-125 -133l-111 59q31 66 94.5 121.5t147.5 88t178 32.5q119 0 210 -46t142.5 -127t51.5 -187v-752h-123v186q-27 -47 -74 -88q-61 -53 -144.5 -88t-183.5 -35 q-102 0 -182 39t-127 109t-47 160zM254 287q0 -88 66.5 -143.5t168.5 -55.5q119 0 207 54.5t137.5 143.5t49.5 195v94l-375 -61q-139 -23 -196.5 -84t-57.5 -143zM346 1311v180h174v-180h-174zM684 1311v180h174v-180h-174z" />
<glyph unicode="&#xe5;" horiz-adv-x="1173" d="M125 283q0 80 35 149.5t112.5 119.5t202.5 71l408 67v62q0 109 -78 176t-203 67q-102 0 -184 -51t-125 -133l-111 59q31 66 94.5 121.5t147.5 88t178 32.5q119 0 210 -46t142.5 -127t51.5 -187v-752h-123v186q-27 -47 -74 -88q-61 -53 -144.5 -88t-183.5 -35 q-102 0 -182 39t-127 109t-47 160zM254 287q0 -88 66.5 -143.5t168.5 -55.5q119 0 207 54.5t137.5 143.5t49.5 195v94l-375 -61q-139 -23 -196.5 -84t-57.5 -143zM391 1477q0 94 61.5 150t147.5 56t148.5 -56t62.5 -150q0 -96 -62.5 -151.5t-148.5 -55.5q-84 0 -146.5 55 t-62.5 152zM489 1477q0 -53 33 -84t78 -31q47 0 79.5 30.5t32.5 82.5q0 53 -32.5 83.5t-79.5 30.5q-45 0 -78 -30.5t-33 -81.5z" />
<glyph unicode="&#xe6;" horiz-adv-x="2033" d="M125 283q0 80 35 149.5t112.5 119.5t202.5 71l406 67v62q0 109 -77 176t-202 67q-102 0 -184 -51t-125 -133l-111 59q31 66 94.5 121.5t147.5 88t178 32.5q152 0 258 -76q86 -61 121 -157q63 96 162 157q119 74 268 76q111 0 203 -41t157.5 -113.5t101.5 -166t36 -195.5 q0 -20 -1 -43t-5 -47h-891q6 -123 63.5 -216t149.5 -146.5t205 -53.5q119 0 206.5 56.5t141.5 150.5l104 -55q-35 -76 -102.5 -136.5t-156.5 -95.5t-193 -35q-143 0 -263 68q-96 55 -161 143v-186h-125v186q-29 -45 -70 -86q-61 -57 -145.5 -91t-184.5 -34q-102 0 -182 39 t-127 109t-47 160zM254 287q0 -88 66.5 -143.5t168.5 -55.5q119 0 207 54.5t136.5 143.5t48.5 195v94l-373 -61q-139 -23 -196.5 -84t-57.5 -143zM1016 618h764q0 111 -49.5 196t-133.5 134t-186 49q-100 0 -186 -48t-141.5 -133t-67.5 -198z" />
<glyph unicode="&#xe7;" horiz-adv-x="1236" d="M125 545q0 164 70.5 292t192.5 201.5t278 73.5q102 0 189 -35t154.5 -94t102.5 -137l-108 -58q-49 94 -137.5 149.5t-200.5 55.5q-117 0 -210.5 -57t-148.5 -158.5t-55 -232.5t55 -232.5t148.5 -159t210.5 -57.5q113 0 200.5 55.5t137.5 151.5l108 -59 q-35 -76 -102.5 -136.5t-154.5 -96.5t-189 -36q-156 0 -278 75t-192.5 204t-70.5 291zM481 -383l37 88q33 -33 75 -50t80 -17q49 0 78 25.5t29 62.5q0 53 -52 81.5t-155 38.5l51 174h99l-29 -108q96 -18 149.5 -68.5t53.5 -119.5q0 -82 -59.5 -133.5t-151.5 -51.5 q-57 0 -112.5 20.5t-92.5 57.5z" />
<glyph unicode="&#xe8;" horiz-adv-x="1271" d="M125 547q0 162 69.5 290t188.5 201.5t266 73.5q113 0 204 -41t157.5 -113.5t102.5 -166t36 -195.5q0 -20 -2 -43t-6 -47h-889q4 -109 51 -197q55 -102 151.5 -160.5t213.5 -58.5q119 0 207 56.5t143 150.5l104 -55q-37 -76 -104.5 -136.5t-156.5 -95.5t-193 -35 q-154 0 -277 75t-194.5 205t-71.5 292zM254 618h764q2 94 -37 173q-47 94 -134 150t-197.5 56t-203 -58t-145.5 -161q-39 -72 -47 -160zM348 1618h168l184 -307h-125z" />
<glyph unicode="&#xe9;" horiz-adv-x="1271" d="M125 547q0 162 69.5 290t188.5 201.5t266 73.5q113 0 204 -41t157.5 -113.5t102.5 -166t36 -195.5q0 -20 -2 -43t-6 -47h-889q4 -109 51 -197q55 -102 151.5 -160.5t213.5 -58.5q119 0 207 56.5t143 150.5l104 -55q-37 -76 -104.5 -136.5t-156.5 -95.5t-193 -35 q-154 0 -277 75t-194.5 205t-71.5 292zM254 618h764q2 94 -37 173q-47 94 -134 150t-197.5 56t-203 -58t-145.5 -161q-39 -72 -47 -160zM576 1311l184 307h168l-227 -307h-125z" />
<glyph unicode="&#xea;" horiz-adv-x="1271" d="M125 547q0 162 69.5 290t188.5 201.5t266 73.5q113 0 204 -41t157.5 -113.5t102.5 -166t36 -195.5q0 -20 -2 -43t-6 -47h-889q4 -109 51 -197q55 -102 151.5 -160.5t213.5 -58.5q119 0 207 56.5t143 150.5l104 -55q-37 -76 -104.5 -136.5t-156.5 -95.5t-193 -35 q-154 0 -277 75t-194.5 205t-71.5 292zM254 618h764q2 94 -37 173q-47 94 -134 150t-197.5 56t-203 -58t-145.5 -161q-39 -72 -47 -160zM322 1311l252 307h129l254 -307h-144l-174 211l-174 -211h-143z" />
<glyph unicode="&#xeb;" horiz-adv-x="1271" d="M125 547q0 162 69.5 290t188.5 201.5t266 73.5q113 0 204 -41t157.5 -113.5t102.5 -166t36 -195.5q0 -20 -2 -43t-6 -47h-889q4 -109 51 -197q55 -102 151.5 -160.5t213.5 -58.5q119 0 207 56.5t143 150.5l104 -55q-37 -76 -104.5 -136.5t-156.5 -95.5t-193 -35 q-154 0 -277 75t-194.5 205t-71.5 292zM254 618h764q2 94 -37 173q-47 94 -134 150t-197.5 56t-203 -58t-145.5 -161q-39 -72 -47 -160zM381 1311v180h174v-180h-174zM719 1311v180h174v-180h-174z" />
<glyph unicode="&#xec;" horiz-adv-x="393" d="M-92 1618h168l184 -307h-125zM135 0v1087h123v-1087h-123z" />
<glyph unicode="&#xed;" horiz-adv-x="393" d="M133 1311l184 307h168l-227 -307h-125zM135 0v1087h123v-1087h-123z" />
<glyph unicode="&#xee;" horiz-adv-x="393" d="M-121 1311l252 307h129l254 -307h-144l-174 211l-174 -211h-143zM135 0v1087h123v-1087h-123z" />
<glyph unicode="&#xef;" horiz-adv-x="393" d="M-59 1311v180h174v-180h-174zM135 0v1087h123v-1087h-123zM279 1311v180h174v-180h-174z" />
<glyph unicode="&#xf0;" horiz-adv-x="1351" d="M125 537q2 156 71.5 282.5t194.5 200.5t285 72q82 0 166 -25q84 -27 157 -84q37 -29 68 -70q-6 37 -18 70q-33 111 -95 205q-49 76 -112 135l-336 -119v105l248 88q-63 45 -138 73q-104 41 -221 43q-51 -2 -108.5 -10t-114.5 -28l-31 112q135 43 262 43q162 0 293 -57 q111 -47 197 -125l201 72v-107l-123 -43q70 -80 123 -178q66 -127 98 -274q33 -143 35 -287q2 -225 -72 -370.5t-196.5 -215.5t-272.5 -70q-121 0 -223.5 43t-179.5 119q-74 76 -115 178.5t-43 221.5zM256 537q0 -127 57 -226q59 -98 153.5 -155.5t209.5 -59.5 q119 0 213 59.5t149.5 160t55.5 223.5q0 121 -53.5 219t-147.5 155.5t-217 57.5t-217 -57.5t-147.5 -156t-55.5 -220.5z" />
<glyph unicode="&#xf1;" horiz-adv-x="1171" d="M170 0v1087h123v-143q35 63 100 105q94 63 223 63q113 0 205 -51t147.5 -142.5t55.5 -207.5v-711h-123v676q0 98 -39 168.5t-107.5 108.5t-156.5 38q-92 0 -161.5 -43t-106.5 -118.5t-37 -174.5v-655h-123zM279 1319q0 111 49 173t137 62q51 0 83 -20.5t55.5 -48t47 -48 t58.5 -20.5q39 0 61.5 33t22.5 96h102q0 -104 -50 -169.5t-138 -65.5q-53 0 -86 20.5t-56.5 48t-46 48t-57.5 20.5t-56.5 -29.5t-21.5 -99.5h-104z" />
<glyph unicode="&#xf2;" horiz-adv-x="1349" d="M125 545q0 162 72.5 291t196.5 202.5t282 73.5q156 0 280.5 -73.5t196.5 -201.5t72 -292t-74 -293t-197.5 -203t-277.5 -74q-156 0 -281 74t-197.5 204t-72.5 292zM256 545q0 -127 56.5 -229.5t150.5 -161t213 -58.5q117 0 212 58.5t150.5 161t55.5 229.5t-55.5 227 t-149.5 159.5t-213 59.5t-214 -58.5t-150.5 -159.5t-55.5 -228zM387 1618h168l184 -307h-125z" />
<glyph unicode="&#xf3;" horiz-adv-x="1349" d="M125 545q0 162 72.5 291t196.5 202.5t282 73.5q156 0 280.5 -73.5t196.5 -201.5t72 -292t-74 -293t-197.5 -203t-277.5 -74q-156 0 -281 74t-197.5 204t-72.5 292zM256 545q0 -127 56.5 -229.5t150.5 -161t213 -58.5q117 0 212 58.5t150.5 161t55.5 229.5t-55.5 227 t-149.5 159.5t-213 59.5t-214 -58.5t-150.5 -159.5t-55.5 -228zM612 1311l184 307h168l-227 -307h-125z" />
<glyph unicode="&#xf4;" horiz-adv-x="1349" d="M125 545q0 162 72.5 291t196.5 202.5t282 73.5q156 0 280.5 -73.5t196.5 -201.5t72 -292t-74 -293t-197.5 -203t-277.5 -74q-156 0 -281 74t-197.5 204t-72.5 292zM256 545q0 -127 56.5 -229.5t150.5 -161t213 -58.5q117 0 212 58.5t150.5 161t55.5 229.5t-55.5 227 t-149.5 159.5t-213 59.5t-214 -58.5t-150.5 -159.5t-55.5 -228zM358 1311l252 307h129l254 -307h-144l-174 211l-174 -211h-143z" />
<glyph unicode="&#xf5;" horiz-adv-x="1349" d="M125 545q0 162 72.5 291t196.5 202.5t282 73.5q156 0 280.5 -73.5t196.5 -201.5t72 -292t-74 -293t-197.5 -203t-277.5 -74q-156 0 -281 74t-197.5 204t-72.5 292zM256 545q0 -127 56.5 -229.5t150.5 -161t213 -58.5q117 0 212 58.5t150.5 161t55.5 229.5t-55.5 227 t-149.5 159.5t-213 59.5t-214 -58.5t-150.5 -159.5t-55.5 -228zM367 1319q0 111 49 173t137 62q51 0 83 -20.5t55.5 -48t47 -48t58.5 -20.5q39 0 61.5 33t22.5 96h102q0 -104 -50 -169.5t-138 -65.5q-53 0 -86 20.5t-56.5 48t-46 48t-57.5 20.5t-56.5 -29.5t-21.5 -99.5 h-104z" />
<glyph unicode="&#xf6;" horiz-adv-x="1349" d="M125 545q0 162 72.5 291t196.5 202.5t282 73.5q156 0 280.5 -73.5t196.5 -201.5t72 -292t-74 -293t-197.5 -203t-277.5 -74q-156 0 -281 74t-197.5 204t-72.5 292zM256 545q0 -127 56.5 -229.5t150.5 -161t213 -58.5q117 0 212 58.5t150.5 161t55.5 229.5t-55.5 227 t-149.5 159.5t-213 59.5t-214 -58.5t-150.5 -159.5t-55.5 -228zM420 1311v180h174v-180h-174zM758 1311v180h174v-180h-174z" />
<glyph unicode="&#xf7;" d="M104 453v122h1024v-122h-1024zM547 0v186h139v-186h-139zM547 840v184h139v-184h-139z" />
<glyph unicode="&#xf8;" horiz-adv-x="1349" d="M106 0l150 168q-35 41 -59 86q-74 131 -73 292t73.5 290t196.5 202.5t282 73.5q156 0 280 -74q23 -12 43 -28l68 77h176l-147 -167q33 -39 57 -84q72 -127 72 -291t-74 -293t-197.5 -203t-277.5 -74q-156 0 -281 74q-23 14 -43 29l-69 -78h-177zM256 545q-2 -127 55 -230 q14 -25 31 -47l571 647q-12 8 -24 17q-94 59 -213 59t-214 -58.5t-150.5 -159.5t-55.5 -228zM436 174q12 -10 27 -18q94 -58 213 -60q117 0 212 58.5t150.5 161t55.5 229.5t-56 227q-14 27 -30 49z" />
<glyph unicode="&#xf9;" horiz-adv-x="1171" d="M147 393v694h123v-684q0 -96 40 -164.5t108.5 -105.5t154.5 -37q94 0 163 43t106 120t37 175v653h122v-1087h-122v145q-37 -59 -101 -104q-94 -66 -223 -66q-111 0 -204 51.5t-148.5 144.5t-55.5 222zM297 1618h168l184 -307h-125z" />
<glyph unicode="&#xfa;" horiz-adv-x="1171" d="M147 393v694h123v-684q0 -96 40 -164.5t108.5 -105.5t154.5 -37q94 0 163 43t106 120t37 175v653h122v-1087h-122v145q-37 -59 -101 -104q-94 -66 -223 -66q-111 0 -204 51.5t-148.5 144.5t-55.5 222zM524 1311l184 307h168l-227 -307h-125z" />
<glyph unicode="&#xfb;" horiz-adv-x="1171" d="M147 393v694h123v-684q0 -96 40 -164.5t108.5 -105.5t154.5 -37q94 0 163 43t106 120t37 175v653h122v-1087h-122v145q-37 -59 -101 -104q-94 -66 -223 -66q-111 0 -204 51.5t-148.5 144.5t-55.5 222zM270 1311l252 307h129l254 -307h-144l-174 211l-174 -211h-143z" />
<glyph unicode="&#xfc;" horiz-adv-x="1171" d="M147 393v694h123v-684q0 -96 40 -164.5t108.5 -105.5t154.5 -37q94 0 163 43t106 120t37 175v653h122v-1087h-122v145q-37 -59 -101 -104q-94 -66 -223 -66q-111 0 -204 51.5t-148.5 144.5t-55.5 222zM330 1311v180h174v-180h-174zM668 1311v180h174v-180h-174z" />
<glyph unicode="&#xfd;" horiz-adv-x="1091" d="M41 1087h135l371 -925l373 925h137l-508 -1239q-29 -68 -76 -137t-120 -115.5t-179 -46.5q-29 0 -62.5 5.5t-64.5 15.5v115q25 -6 56.5 -10.5t58.5 -4.5q100 2 157.5 49.5t104.5 155.5l53 127zM483 1311l184 307h168l-227 -307h-125z" />
<glyph unicode="&#xfe;" horiz-adv-x="1374" d="M170 -410v1936h123v-637q59 94 158 151q115 70 264 72q154 0 274.5 -73.5t190 -202.5t69.5 -291t-69 -291q-70 -131 -191 -205t-274 -74q-150 0 -269 74q-98 61 -153 158v-617h-123zM295 545q0 -127 55.5 -229.5t149.5 -160t210.5 -57.5t209 57.5t145.5 160t53 229.5 t-53 227t-145.5 157.5t-208.5 59.5q-117 -2 -211 -59.5t-149.5 -157.5t-55.5 -227z" />
<glyph unicode="&#x2000;" horiz-adv-x="1060" />
<glyph unicode="&#x2001;" horiz-adv-x="2121" />
<glyph unicode="&#x2002;" horiz-adv-x="1060" />
<glyph unicode="&#x2003;" horiz-adv-x="2121" />
<glyph unicode="&#x2004;" horiz-adv-x="707" />
<glyph unicode="&#x2005;" horiz-adv-x="530" />
<glyph unicode="&#x2006;" horiz-adv-x="353" />
<glyph unicode="&#x2007;" horiz-adv-x="353" />
<glyph unicode="&#x2008;" horiz-adv-x="265" />
<glyph unicode="&#x2009;" horiz-adv-x="424" />
<glyph unicode="&#x200a;" horiz-adv-x="117" />
<glyph unicode="&#x2010;" horiz-adv-x="989" d="M152 485v119h686v-119h-686z" />
<glyph unicode="&#x2011;" horiz-adv-x="989" d="M152 485v119h686v-119h-686z" />
<glyph unicode="&#x2012;" horiz-adv-x="989" d="M152 485v119h686v-119h-686z" />
<glyph unicode="&#x2013;" horiz-adv-x="1327" d="M152 485v119h1024v-119h-1024z" />
<glyph unicode="&#x2014;" horiz-adv-x="2351" d="M152 485v119h2048v-119h-2048z" />
<glyph unicode="&#x202f;" horiz-adv-x="424" />
<glyph unicode="&#x205f;" horiz-adv-x="530" />
<glyph unicode="&#x25fc;" horiz-adv-x="1085" d="M0 0v1085h1085v-1085h-1085z" />
</font>
</defs>
</svg>
