<?xml version="1.0" standalone="no"?>
<!DOCTYPE svg PUBLIC "-//W3C//DTD SVG 1.1//EN" "http://www.w3.org/Graphics/SVG/1.1/DTD/svg11.dtd" >
<svg xmlns="http://www.w3.org/2000/svg" xmlns:xlink="http://www.w3.org/1999/xlink" version="1.1">
<metadata></metadata>
<defs>
<font id="plus_jakarta_sansextralight" horiz-adv-x="1220" >
<font-face units-per-em="2048" ascent="1638" descent="-410" />
<missing-glyph horiz-adv-x="327" />
<glyph horiz-adv-x="0" />
<glyph unicode="&#xd;" horiz-adv-x="681" />
<glyph unicode=" "  horiz-adv-x="327" />
<glyph unicode="&#x09;" horiz-adv-x="327" />
<glyph unicode="&#xa0;" horiz-adv-x="327" />
<glyph unicode="!" horiz-adv-x="522" d="M207 0v184h112v-184h-112zM211 1526h102l-6 -1100h-92z" />
<glyph unicode="&#x22;" horiz-adv-x="708" d="M170 1526h113l-21 -379h-72zM426 1526h113l-21 -379h-72z" />
<glyph unicode="#" horiz-adv-x="1519" d="M74 436v92h272l135 471h-245v93h272l125 434h106l-125 -434h480l127 434h106l-127 -434h246v-95h-270l-138 -469h246v-92h-272l-125 -436h-107l125 436h-479l-125 -436h-106l124 436h-245zM453 528h479l137 471h-481z" />
<glyph unicode="$" horiz-adv-x="1308" d="M135 356l92 29q59 -156 174 -238q96 -70 226 -81v653l-101 29q-176 51 -251.5 159.5t-75.5 245.5q0 117 57 207t156 139q96 49 215 51v181h92v-187q76 -12 141 -45q102 -49 172 -131t101 -174l-93 -29q-53 145 -161 221q-74 51 -160 68v-655l110 -33q150 -45 236 -147.5 t86 -243.5q0 -117 -61.5 -207t-167.5 -141q-90 -44 -203 -50v-182h-92v182q-115 6 -205 52q-111 53 -184 143q-74 88 -103 184zM297 1151q0 -113 59.5 -186.5t214.5 -120.5l56 -17v635q-90 0 -164 -37q-78 -37 -121 -108q-45 -70 -45 -166zM719 66q84 8 151 36 q84 37 133.5 107t49.5 168q0 123 -74 192.5t-168 96.5l-92 26v-626z" />
<glyph unicode="%" horiz-adv-x="1900" d="M106 1169q0 106 53.5 192.5t137.5 137.5q86 51 188 51q100 0 186.5 -51t137.5 -137t51 -193q0 -104 -51 -190t-137 -139q-87 -52 -187 -52q-102 0 -188 52q-84 53 -137.5 139t-53.5 190zM199 1169q2 -76 38.5 -141t102 -108t145.5 -43q82 0 145.5 43t100.5 110.5 t37 138.5q0 76 -37 141.5t-100.5 108.5t-145.5 43q-80 0 -145.5 -41t-101.5 -110q-37 -68 -39 -142zM254 0l1259 1526h125l-1259 -1526h-125zM1040 356.5q0 106.5 53.5 192.5t137.5 137q86 51 188 51q100 0 186.5 -51t137.5 -137t51 -192.5t-51 -192.5t-137.5 -137.5 t-186.5 -51.5q-102 0 -188 52q-84 51 -137.5 137t-53.5 192.5zM1133 356q2 -74 38.5 -139t102.5 -111q65 -43 145 -43q82 0 145.5 43.5t100.5 111t37 138.5q0 74 -37 139.5t-100 110.5q-63 43 -146 43q-80 -2 -145.5 -43t-102 -108.5t-38.5 -141.5z" />
<glyph unicode="&#x26;" horiz-adv-x="1478" d="M115 332q0 86 28.5 151.5t79.5 123t113 108.5q57 47 115 92q-37 37 -82 90q-53 61 -95 143q-41 80 -41 174q0 96 45.5 172t119 121t167.5 43q90 0 166 -43q76 -45 121 -118.5t45 -172t-45 -176t-115 -137.5q-63 -55 -129 -106l363 -365l221 332h123l-271 -406l359 -358 h-143l-273 272q-12 -18 -24 -34q-45 -66 -107 -123q-61 -61 -147 -100.5t-197 -39.5q-113 0 -203 45q-88 45 -141 123q-53 80 -53 189zM217 332q0 -119 82 -188.5t213 -69.5q90 0 159.5 32.5t121 86t92.5 110.5q14 23 28 43l-389 387q-86 -66 -151 -123q-74 -61 -115 -126.5 t-41 -151.5zM336 1214q0 -72 32.5 -135t82.5 -116q45 -50 84 -93q74 55 129 105q61 53 96 110.5t35 131.5q0 104 -68 169.5t-162 65.5q-98 2 -163.5 -67.5t-65.5 -170.5z" />
<glyph unicode="'" horiz-adv-x="452" d="M170 1526h113l-21 -379h-72z" />
<glyph unicode="(" horiz-adv-x="550" d="M102 631q0 262 78 491.5t226 403.5h104q-147 -195 -226 -426.5t-79 -468.5q0 -229 78.5 -463t226.5 -434h-104q-150 178 -227 413.5t-77 483.5z" />
<glyph unicode=")" horiz-adv-x="550" d="M41 -266q147 201 226 434t79 463q0 238 -79 469t-226 426h104q147 -174 225.5 -403.5t78.5 -491.5q0 -248 -77 -483.5t-227 -413.5h-104z" />
<glyph unicode="*" horiz-adv-x="940" d="M106 1225l29 96l283 -92v297h102v-297l281 92l33 -96l-277 -95l193 -256l-82 -59l-199 256l-197 -256l-82 59l195 256z" />
<glyph unicode="+" d="M98 467v92h467v465h92v-465h465v-92h-465v-467h-92v467h-467z" />
<glyph unicode="," horiz-adv-x="507" d="M166 -182q43 14 65.5 59t22.5 123h-47v184h112v-143q0 -123 -40.5 -196.5t-112.5 -96.5v70z" />
<glyph unicode="-" horiz-adv-x="958" d="M152 494v92h655v-92h-655z" />
<glyph unicode="." horiz-adv-x="534" d="M211 0v184h113v-184h-113z" />
<glyph unicode="/" horiz-adv-x="813" d="M4 -246l692 1690h113l-692 -1690h-113z" />
<glyph unicode="0" horiz-adv-x="1462" d="M147 764q0 236 74 412t205 274t305 100q174 0 305 -98q131 -100 205 -276.5t74 -412t-74 -411.5t-203 -278q-131 -99 -305 -99q-176 0 -307 98.5t-205 278.5q-74 178 -74 412zM250 764q0 -203 57.5 -358.5t166 -243.5t260 -88t258 88t163.5 243.5t57 358.5t-57 358.5 t-163.5 241.5t-260.5 88q-152 -2 -260 -88q-106 -86 -163.5 -241.5t-57.5 -358.5z" />
<glyph unicode="1" horiz-adv-x="692" d="M78 1434v92h389v-1526h-102v1434h-287z" />
<glyph unicode="2" horiz-adv-x="1183" d="M102 1139q29 133 98.5 225t172 139t219.5 47q125 -2 227.5 -51t159.5 -139q59 -90 59 -217q0 -102 -43 -193q-45 -90 -122.5 -188t-188.5 -215l-418 -455h799v-92h-950v61l430 471q131 139 217 237.5t131 184.5t43 189q0 147 -90 231t-254 84q-156 0 -258.5 -90 t-138.5 -250z" />
<glyph unicode="3" horiz-adv-x="1226" d="M98 387l95 25q33 -158 135 -252t270 -92q123 0 213 49q90 47 143 137q49 90 50 205q0 123 -53.5 204.5t-147.5 122.5q-90 41 -201 41q-20 0 -45 -2t-47 -6l-12 41l426 574h-770v92h901v-62l-412 -553h4q111 2 209 -47q111 -53 176 -159q70 -102 70 -248 q0 -133 -61.5 -244t-176.5 -172q-112 -66 -264 -66q-125 0 -229.5 49.5t-173.5 139.5q-70 92 -99 223z" />
<glyph unicode="4" horiz-adv-x="1241" d="M88 360v82l807 1084h92v-1073h166v-93h-166v-360h-102v360h-797zM168 453l14 -37l29 37h-43zM885 1352l47 63l-47 10v-73z" />
<glyph unicode="5" horiz-adv-x="1245" d="M115 387l94 25q35 -164 143.5 -254t270.5 -90q119 -2 207 51t137 145t49 211q0 111 -53.5 201t-139.5 141q-90 51 -198 51q-119 0 -213.5 -53t-137.5 -127l-88 21l111 817h758v-92h-678l-80 -592q47 47 121 80q98 41 211 43q139 2 250 -64q109 -66 174 -176.5t65 -249.5 q0 -145 -63 -258q-63 -111 -174 -176.5t-258 -65.5q-129 0 -236 50q-109 49 -178 143q-70 92 -94 219z" />
<glyph unicode="6" horiz-adv-x="1202" d="M123 477q0 98 24.5 182t73.5 166q47 82 115 170l401 531h121l-481 -645q53 31 110 43q70 16 127 16q131 2 237.5 -59.5t170 -168t63.5 -251.5q0 -141 -65.5 -252t-171.5 -172q-111 -62 -246 -62q-137 0 -246 66q-111 66 -172 176q-61 115 -61 260zM227 455 q2 -113 51.5 -201t135.5 -137t190 -49q109 2 195 51t133 135q49 86 49 200.5t-49 204.5q-47 90 -133 139.5t-195 49.5q-106 0 -192 -49t-135.5 -139.5t-49.5 -204.5z" />
<glyph unicode="7" horiz-adv-x="1071" d="M84 1434v92h901v-82l-721 -1444h-112l714 1434h-782z" />
<glyph unicode="8" horiz-adv-x="1241" d="M129 438q0 152 86 269q76 102 195 149q-82 45 -131 115q-61 86 -60 198q0 109 53 195q55 86 145.5 135t203.5 51q115 0 204 -49q88 -49 141.5 -135t53.5 -196.5t-57 -194.5q-47 -70 -132 -119q119 -45 195 -147q86 -119 86 -271q2 -133 -63 -237q-66 -102 -176.5 -164 t-252 -62t-252 61.5t-175.5 164.5q-66 104 -64 237zM231.5 434.5q-0.5 -110.5 49.5 -192.5q51 -82 137 -127t203 -47q117 2 202.5 47t137.5 127q49 82 49 192.5t-49 192.5q-51 82 -138 131q-86 45 -202.5 45t-202.5 -45t-137 -131q-49 -82 -49.5 -192.5zM321.5 1180 q0.5 -82 39 -145.5t106.5 -100.5t154 -37q88 0 153.5 37t104.5 100.5t39 145.5t-39 143t-104.5 98t-153.5 37q-84 0 -154 -37t-107 -98q-39 -61 -38.5 -143z" />
<glyph unicode="9" horiz-adv-x="1202" d="M117 1065q-2 143 63.5 251.5t176 170t243.5 63.5q137 2 245.5 -63.5t170 -180t63.5 -257.5q0 -94 -24 -181q-23 -86 -72 -168t-117 -170l-401 -530h-121l481 647q-53 -31 -108 -45q-68 -16 -129 -16q-129 0 -235.5 61.5t-172.5 167.5q-63 106 -63 250zM221 1071 q0 -113 49 -203t135.5 -139t192.5 -51q106 2 192.5 51t135.5 139t49 203q0 117 -49 203t-135 135t-192.5 49t-193 -49t-135.5 -139q-49 -86 -49 -199z" />
<glyph unicode=":" horiz-adv-x="534" d="M211 0v184h113v-184h-113zM211 893v184h113v-184h-113z" />
<glyph unicode=";" horiz-adv-x="575" d="M211 -193q43 12 69.5 61.5t28.5 131.5h-57v184h113v-143q0 -123 -41 -196.5t-113 -96.5v59zM252 893v184h113v-184h-113z" />
<glyph unicode="&#x3c;" d="M303 502v73l789 400v-103l-654 -333l654 -334v-103z" />
<glyph unicode="=" d="M150 227v92h921v-92h-921zM150 709v92h921v-92h-921z" />
<glyph unicode="&#x3e;" d="M129 102v103l653 334l-653 333v103l789 -400v-73z" />
<glyph unicode="?" horiz-adv-x="970" d="M72 1180q20 115 79.5 196.5t149.5 128.5q90 45 198.5 45t194.5 -47q88 -45 137.5 -122.5t49.5 -172.5q0 -98 -43 -174t-106.5 -141.5t-127.5 -126.5q-72 -74 -129 -151.5t-55 -180.5v-8h-92v8q0 94 32.5 166t86 131.5t114.5 114.5q86 80 151.5 166t65.5 200 q0 61 -32.5 119t-94 94.5t-151.5 34.5q-127 -2 -217 -79.5t-121 -219.5zM319 0v184h113v-184h-113z" />
<glyph unicode="@" horiz-adv-x="1896" d="M158 420q0 176 63.5 327.5t177 265t265 177t325.5 63.5q188 0 341 -67.5t261.5 -184t167 -264t58.5 -309.5q0 -135 -41 -231.5t-110 -146.5t-153 -50q-66 0 -120 29q-53 27 -90 75q-23 33 -37 70q-25 -45 -58 -80q-49 -49 -110.5 -71.5t-132.5 -22.5q-117 0 -210 56.5 t-147.5 154.5t-54.5 221q0 121 54.5 219.5t148.5 155.5t209 57q100 0 190 -49q63 -33 102 -92v121h99v-580q0 -76 41 -124t121 -48q86 0 143 87t57 251q0 154 -53 287t-151.5 233.5t-231.5 155.5t-293 55q-162 0 -297 -57t-232.5 -158.5t-150.5 -233.5t-53 -282 q0 -158 54.5 -295t152.5 -241.5t234.5 -163t301.5 -58.5q94 0 181.5 21.5t158.5 66.5l43 -84q-170 -96 -393 -96q-176 0 -327.5 64.5t-264 179.5t-176 267.5t-63.5 328.5zM651 432q0 -98 41 -175t110.5 -121t158 -44t155 44t104 121t37.5 175q0 152 -81.5 246t-212.5 94 q-86 0 -157 -42t-113 -118.5t-42 -179.5z" />
<glyph unicode="A" horiz-adv-x="1318" d="M45 0l565 1526h99l565 -1526h-113l-147 403h-709l-147 -403h-113zM338 496h643l-322 878z" />
<glyph unicode="B" horiz-adv-x="1423" d="M203 0v1526h616q123 0 214 -50.5t142.5 -137.5t51.5 -197v-7q0 -115 -64 -204q-55 -80 -147 -117q74 -25 131 -72q68 -57 104.5 -138t36.5 -177q0 -193 -120.5 -309.5t-348.5 -116.5h-616zM305 92h496q180 0 282.5 91t102.5 241q0 152 -99.5 243t-265.5 91h-516v-666z M305 850h502q145 0 231 80t86 213t-83 212t-234 79h-502v-584z" />
<glyph unicode="C" horiz-adv-x="1613" d="M158 764q0 170 54 314.5t152.5 250t229.5 163.5t287 58q152 0 272.5 -56t204.5 -141t121 -173l-97 -43q-68 143 -197.5 229t-303.5 86q-182 0 -322.5 -87t-219.5 -241.5t-79 -359.5t79 -360.5t219 -242.5t323 -87q174 0 304 86t197 229l97 -43q-37 -88 -121 -173 t-204.5 -141.5t-272.5 -56.5q-156 0 -287 58.5t-229.5 165t-152.5 250t-54 315.5z" />
<glyph unicode="D" horiz-adv-x="1523" d="M203 0v1526h487q221 0 383 -93.5t250 -264.5t88 -404q0 -231 -88 -403.5t-250 -266.5t-383 -94h-487zM305 92h381q186 0 326.5 84t218.5 235.5t78 352.5t-78 351.5t-218.5 234.5t-326.5 84h-381v-1342z" />
<glyph unicode="E" horiz-adv-x="1257" d="M203 0v1526h942v-92h-840v-623h799v-92h-799v-627h840v-92h-942z" />
<glyph unicode="F" horiz-adv-x="1214" d="M203 0v1526h921v-92h-819v-623h737v-92h-737v-719h-102z" />
<glyph unicode="G" horiz-adv-x="1708" d="M158 762q0 172 54 315.5t152.5 250t231.5 164.5t293 58q158 0 282.5 -56t208.5 -141t121 -173l-96 -43q-68 143 -200 229t-316 86q-182 0 -324.5 -87t-223.5 -242.5t-81 -360.5t81 -360.5t222.5 -241.5t323.5 -86q168 0 299 75.5t206.5 206.5t75.5 297v9h-579v92h682 v-101q0 -137 -50.5 -260t-141.5 -217t-215.5 -147.5t-276.5 -53.5q-160 0 -293 58.5t-231.5 164t-151.5 249t-53 315.5z" />
<glyph unicode="H" horiz-adv-x="1511" d="M203 0v1526h102v-703h901v703h103v-1526h-103v731h-901v-731h-102z" />
<glyph unicode="I" horiz-adv-x="507" d="M203 0v1526h102v-1526h-102z" />
<glyph unicode="J" horiz-adv-x="780" d="M135 0v102h78q123 0 192.5 75t69.5 220v1129h103v-1135q0 -121 -45.5 -209t-127 -135t-192.5 -47h-78z" />
<glyph unicode="K" horiz-adv-x="1333" d="M203 0v1526h102v-881l799 881h137l-590 -654l637 -872h-127l-581 799l-275 -305v-494h-102z" />
<glyph unicode="L" horiz-adv-x="1091" d="M203 0v1526h102v-1434h696v-92h-798z" />
<glyph unicode="M" horiz-adv-x="1675" d="M203 0v1526h82l551 -842l555 842h82v-1526h-103v1321l-530 -817h-4l-531 811v-1315h-102z" />
<glyph unicode="N" horiz-adv-x="1511" d="M203 0v1526h82l921 -1319v1319h103v-1526h-82l-922 1319v-1319h-102z" />
<glyph unicode="O" horiz-adv-x="1810" d="M158 764q0 174 58 317.5t161.5 249t239 162.5t289 57t288.5 -57t238.5 -162.5t162 -250t58.5 -316.5q0 -174 -58.5 -318.5t-161 -250t-238.5 -163t-289.5 -57.5t-290 57.5t-239 163t-160.5 250t-58 318.5zM260 764q0 -139 46 -264t132 -221.5t205 -150.5t262.5 -54 t262 54t204.5 150.5t132 221.5t46 264q0 137 -46 261t-131 220t-203.5 151.5t-264.5 55.5q-143 0 -262 -55.5t-205 -151.5t-132 -220t-46 -261z" />
<glyph unicode="P" horiz-adv-x="1320" d="M203 0v1526h499q143 0 252 -57.5t170.5 -161t61.5 -238.5t-61.5 -237.5t-170 -160t-252.5 -57.5h-397v-614h-102zM305 707h397q113 0 198 46t134 129t49 189q0 109 -48 189.5t-134 127t-199 46.5h-397v-727z" />
<glyph unicode="Q" horiz-adv-x="1810" d="M158 764q0 174 58 317.5t161.5 249t239 162.5t289 57t288.5 -57t238.5 -162.5t162 -250t58.5 -316.5q0 -174 -60 -318q-57 -143 -159 -249q-53 -55 -115 -99l182 -282h-121l-149 233q-14 -8 -35 -16q-135 -58 -291 -58q-154 0 -290 57.5t-238.5 163t-160.5 250t-58 318.5 zM260 764q0 -139 46 -264t132 -221.5t205 -150.5t262.5 -54t261.5 53q4 2 9 6l-308 477h121l275 -428q59 41 108 97q86 96 132 221t46 264q0 137 -46 261t-131 220t-203.5 151.5t-264.5 55.5q-143 0 -262 -55.5t-205 -151.5t-132 -220t-46 -261z" />
<glyph unicode="R" horiz-adv-x="1300" d="M203 0v1526h499q143 0 252 -57.5t170.5 -161t61.5 -238.5q0 -166 -92.5 -282.5t-247.5 -155.5l364 -631h-120l-351 614h-434v-614h-102zM305 707h397q113 0 198 46t134 129t49 189q0 109 -48 189.5t-134 127t-199 46.5h-397v-727z" />
<glyph unicode="S" horiz-adv-x="1308" d="M135 356l92 29q59 -156 174 -239t277 -83q109 0 192.5 38t133 108t49.5 168q0 125 -73 193.5t-169 95.5l-285 82q-176 51 -251.5 159.5t-75.5 245.5q0 119 57 208t155.5 139t221.5 50q127 0 228.5 -50t172 -131t99.5 -175l-93 -29q-53 145 -161.5 221t-243.5 76 q-94 0 -171 -38t-122 -107.5t-45 -165.5q0 -113 59.5 -186.5t214.5 -120.5l258 -78q150 -45 236 -146.5t86 -244.5q0 -119 -61.5 -208t-168 -140.5t-241.5 -51.5q-145 0 -257 54.5t-184.5 142.5t-103.5 184z" />
<glyph unicode="T" horiz-adv-x="1052" d="M45 1434v92h963v-92h-428v-1434h-103v1434h-432z" />
<glyph unicode="U" horiz-adv-x="1413" d="M195 514v1012h102v-1020q0 -129 51 -227.5t144.5 -154.5t214.5 -56q123 0 215 56t143 154.5t51 227.5v1020h103v-1012q0 -162 -64.5 -282.5t-179 -188.5t-268.5 -68q-152 0 -267.5 68t-180 188.5t-64.5 282.5z" />
<glyph unicode="V" horiz-adv-x="1339" d="M45 1526h113l512 -1374l512 1374h112l-575 -1526h-98z" />
<glyph unicode="W" horiz-adv-x="2023" d="M45 1526h111l395 -1346l412 1346h98l412 -1346l395 1346h110l-456 -1526h-99l-411 1352l-412 -1352h-98z" />
<glyph unicode="X" horiz-adv-x="1206" d="M45 0l492 782l-471 744h127l409 -652l410 652h125l-471 -744l495 -782h-127l-432 690l-430 -690h-127z" />
<glyph unicode="Y" horiz-adv-x="1277" d="M45 1526h117l479 -729l475 729h117l-543 -844v-682h-102v682z" />
<glyph unicode="Z" horiz-adv-x="1241" d="M68 0v61l946 1373h-891v92h1030v-62l-944 -1372h965v-92h-1106z" />
<glyph unicode="[" horiz-adv-x="575" d="M180 -266v1792h348v-92h-245v-1608h245v-92h-348z" />
<glyph unicode="\" horiz-adv-x="813" d="M4 1444h113l692 -1690h-113z" />
<glyph unicode="]" horiz-adv-x="575" d="M47 -174h246v1608h-246v92h348v-1792h-348v92z" />
<glyph unicode="^" d="M231 877l342 649h74l342 -649h-106l-273 518l-272 -518h-107z" />
<glyph unicode="_" horiz-adv-x="1122" d="M152 0h819v-92h-819v92z" />
<glyph unicode="`" horiz-adv-x="675" d="M211 1618h125l188 -307h-92z" />
<glyph unicode="a" horiz-adv-x="1175" d="M135 279q0 74 34 142t110.5 119.5t205.5 71.5l418 70v66q0 121 -83 193.5t-220 72.5q-104 0 -192.5 -51.5t-137.5 -135.5l-82 43q31 61 91.5 113.5t142.5 85.5t178 33q117 0 206 -45t139 -125t50 -184v-748h-92v217q-27 -57 -80 -108q-61 -59 -147.5 -96.5t-190.5 -37.5 q-98 0 -177 38t-126 106.5t-47 159.5zM229 283q0 -102 76 -162t189 -60q125 0 216 59.5t142 157t51 209.5v107l-387 -64q-160 -27 -223.5 -94t-63.5 -153z" />
<glyph unicode="b" horiz-adv-x="1380" d="M180 0v1550h92v-710q59 111 166 180q123 82 277 82q152 0 271.5 -74t189 -202t69.5 -287.5t-69.5 -286.5t-189 -202t-271.5 -75q-154 0 -277 82q-106 70 -166 181v-238h-92zM279 539q0 -135 57 -242t156.5 -168t222.5 -61q125 0 222 61t153.5 167.5t56.5 242t-56.5 242 t-153.5 168t-222 61.5q-123 0 -222.5 -61.5t-156.5 -167t-57 -242.5z" />
<glyph unicode="c" horiz-adv-x="1243" d="M135 539q0 162 72 288.5t193.5 200.5t271.5 74q100 0 185 -33t149.5 -90t101.5 -131l-78 -43q-57 102 -149.5 156.5t-208.5 54.5q-125 0 -225.5 -59.5t-160 -167t-59.5 -251t59.5 -251t160 -167t225.5 -59.5q117 0 209 55.5t149 155.5l78 -41q-37 -72 -101.5 -130 t-149.5 -92t-185 -34q-150 0 -271.5 74t-193.5 202t-72 288z" />
<glyph unicode="d" horiz-adv-x="1380" d="M135 538.5q0 159.5 69.5 287.5t190.5 202t271 74q156 0 278 -82q106 -70 164 -178v708h92v-1550h-92v236q-57 -109 -164 -179q-122 -82 -278 -82q-150 0 -271 75t-190.5 202t-69.5 286.5zM233 538.5q0 -135.5 56.5 -242t154 -167.5t222.5 -61t223 61t155.5 167.5 t57.5 242.5q0 137 -57.5 242.5t-155.5 167t-223 61.5t-222.5 -61.5t-154 -168t-56.5 -242z" />
<glyph unicode="e" horiz-adv-x="1284" d="M135 539q0 160 69.5 287.5t187.5 201.5t265 74q104 0 194.5 -39t157 -108.5t103.5 -163t37 -201.5q0 -20 -1 -39t-5 -41h-916q6 -119 60 -215q59 -109 160.5 -171.5t230.5 -62.5q117 0 211 55.5t151 155.5l78 -41q-39 -78 -106.5 -136t-152.5 -89t-181 -31 q-154 0 -276.5 75t-194.5 203t-72 286zM229 592h826q0 113 -45 203q-51 102 -143.5 161.5t-209.5 59.5q-121 0 -218 -63.5t-154 -170.5q-45 -86 -56 -190z" />
<glyph unicode="f" horiz-adv-x="792" d="M70 995v82h223v109q0 115 42 196.5t116.5 124.5t173.5 43q25 0 45 -3t35 -7v-84q-16 4 -37 5t-37 1q-115 0 -180.5 -72.5t-65.5 -203.5v-109h272v-82h-272v-995h-92v995h-223z" />
<glyph unicode="g" horiz-adv-x="1359" d="M135 559.5q0 149.5 67.5 272t185.5 196.5t267 74q156 0 275 -82q100 -68 157 -170v227h93v-1040q0 -141 -64.5 -252t-177.5 -173.5t-260 -62.5q-104 0 -193.5 34t-157 92.5t-106.5 129.5l78 45q59 -100 157.5 -157.5t221.5 -57.5q102 0 195.5 42t153.5 131.5t60 228.5 v231q-59 -104 -157 -170q-119 -82 -275 -82q-150 0 -267.5 74t-185 197t-67.5 272.5zM233 559q0 -125 53.5 -227.5t148.5 -162.5t220 -60t220.5 60t150.5 162.5t55 227.5q0 127 -55 228.5t-150.5 162t-220.5 60.5t-220 -60.5t-148.5 -163t-53.5 -227.5z" />
<glyph unicode="h" horiz-adv-x="1167" d="M180 0v1550h92v-630q35 68 105 116q98 66 227 66q109 0 201 -49t148.5 -138.5t56.5 -207.5v-707h-92v696q0 98 -43.5 169t-116 110t-162.5 39q-102 0 -175 -48t-111 -129t-38 -182v-655h-92z" />
<glyph unicode="i" horiz-adv-x="452" d="M180 0v1077h92v-1077h-92zM180 1300v226h92v-226h-92z" />
<glyph unicode="j" horiz-adv-x="452" d="M-117 -356q35 -6 74 -6q106 0 164.5 60t58.5 175v1204h92v-1204q0 -104 -38.5 -177t-107.5 -110t-163 -37q-25 0 -44 3.5t-36 7.5v84zM180 1300v226h92v-226h-92z" />
<glyph unicode="k" horiz-adv-x="1105" d="M180 0v1550h92v-1071l609 598h139l-447 -436l488 -641h-123l-440 578l-226 -230v-348h-92z" />
<glyph unicode="l" horiz-adv-x="452" d="M180 0v1550h92v-1550h-92z" />
<glyph unicode="m" horiz-adv-x="1863" d="M180 0v1077h92v-157q35 72 109 120q94 61 213 62q127 0 233 -74q86 -59 127 -156q35 90 119 152q104 78 238 78q104 0 194 -49t145.5 -138.5t55.5 -207.5v-707h-92v696q0 98 -43 169t-114 110t-154 39q-96 0 -167 -48t-109 -129t-38 -182v-655h-92v696q0 98 -43 169 t-113.5 110t-154.5 39q-96 0 -167 -48t-109 -129t-38 -182v-655h-92z" />
<glyph unicode="n" horiz-adv-x="1167" d="M180 0v1077h92v-157q35 68 105 116q98 66 227 66q109 0 201 -49t148.5 -138.5t56.5 -207.5v-707h-92v696q0 98 -43.5 169t-116 110t-162.5 39q-102 0 -175 -48t-111 -129t-38 -182v-655h-92z" />
<glyph unicode="o" horiz-adv-x="1355" d="M135 539q0 162 72 288.5t194.5 200.5t276.5 74q156 0 277.5 -74t193.5 -201t72 -288q0 -160 -72 -288t-193.5 -202t-277.5 -74q-154 0 -276.5 74t-194.5 202t-72 288zM233 539q0 -133 59.5 -242t160 -171.5t225.5 -62.5t225.5 62.5t159.5 171.5t59 242q0 135 -58 242.5 t-158.5 170t-225.5 62.5q-127 0 -228.5 -62.5t-160 -170t-58.5 -242.5z" />
<glyph unicode="p" horiz-adv-x="1380" d="M180 -410v1487h92v-237q59 111 166 180q123 82 277 82q152 0 271.5 -74t189 -202t69.5 -287.5t-69.5 -286.5t-189.5 -202t-271 -75q-154 0 -277 82q-106 70 -166 181v-648h-92zM279 541q0 -137 57 -244t156.5 -168t222.5 -61q125 0 222 61t153.5 167.5t56.5 242 t-56.5 242t-153.5 168t-222 61.5q-123 0 -222.5 -61.5t-156.5 -167t-57 -240.5z" />
<glyph unicode="q" horiz-adv-x="1380" d="M135 538.5q0 159.5 69.5 287.5t190.5 202t271 74q156 0 278 -82q107 -69 164 -178v235h92v-1487h-92v646q-57 -109 -164 -179q-123 -82 -278 -82q-150 0 -271 75t-190.5 202t-69.5 286.5zM233 538.5q0 -135.5 56.5 -242t154 -167.5t222.5 -61t223 61t155.5 167.5 t57.5 242.5q0 137 -57.5 242.5t-155.5 167t-223 61.5t-222.5 -61.5t-154 -168t-56.5 -242z" />
<glyph unicode="r" horiz-adv-x="696" d="M180 0v1077h92v-155q35 66 99 106q92 61 213 62h67v-93h-69q-147 0 -228.5 -96t-81.5 -246v-655h-92z" />
<glyph unicode="s" horiz-adv-x="1036" d="M113 242l86 39q53 -102 140 -160t193 -58q115 0 194 57.5t79 151.5q0 49 -22.5 88t-66.5 69t-108 46l-178 49q-131 35 -196.5 108t-65.5 177q0 86 44 152.5t120 103.5t168 37q131 0 238.5 -66.5t148.5 -175.5l-90 -41q-45 92 -123 143.5t-174 51.5q-102 0 -170 -57.5 t-68 -145.5q0 -45 20.5 -81t61.5 -62.5t100 -42.5l181 -52q133 -37 204.5 -113.5t71.5 -183.5q0 -86 -49 -154.5t-132.5 -107.5t-187.5 -39q-143 0 -253.5 71t-165.5 196z" />
<glyph unicode="t" horiz-adv-x="776" d="M88 995v82h102q53 0 78 26.5t25 84.5v143h92v-254h233v-82h-233v-737q0 -37 11.5 -80t49 -72.5t115.5 -29.5q16 0 41 2t39 4v-82q-20 -6 -48 -9t-40 -3q-125 0 -192.5 67.5t-67.5 202.5v737h-205z" />
<glyph unicode="u" horiz-adv-x="1167" d="M158 381v696h92v-696q0 -102 44 -174t117.5 -108t159.5 -36q104 0 177 48.5t110 130.5t37 180v655h92v-1077h-92v158q-39 -68 -104 -115q-95 -68 -228 -68q-106 0 -198.5 47.5t-149.5 137.5t-57 221z" />
<glyph unicode="v" horiz-adv-x="1062" d="M45 1077h105l380 -948l381 948h107l-440 -1077h-99z" />
<glyph unicode="w" horiz-adv-x="1574" d="M45 1077h102l316 -940l274 940h99l274 -938l317 938h103l-371 -1077h-98l-275 932l-274 -932h-98z" />
<glyph unicode="x" horiz-adv-x="970" d="M45 0l383 539l-379 538h117l319 -454l320 454h119l-379 -538l381 -539h-119l-322 455l-323 -455h-117z" />
<glyph unicode="y" horiz-adv-x="1083" d="M45 -348q29 -8 60.5 -11t54.5 -3q100 2 160.5 54t103.5 152l68 160l-435 1073h105l383 -946l387 946h106l-516 -1243q-23 -55 -66.5 -121.5t-114.5 -115t-175 -48.5q-25 0 -57.5 4.5t-63.5 14.5v84z" />
<glyph unicode="z" horiz-adv-x="890" d="M68 0v61l647 934h-609v82h734v-61l-650 -934h656v-82h-778z" />
<glyph unicode="{" horiz-adv-x="595" d="M37 584v94h55q78 0 112 46t34 120v413q0 119 71.5 194t182.5 75h57v-92h-57q-70 0 -111 -49.5t-41 -122.5v-418q0 -61 -17.5 -113.5t-64.5 -99.5q47 -45 64.5 -103.5t17.5 -111.5v-418q0 -74 41 -123t111 -49h57v-92h-57q-111 0 -182.5 74.5t-71.5 193.5v418 q0 72 -34 118t-112 46h-55z" />
<glyph unicode="|" horiz-adv-x="552" d="M225 -389v2120h103v-2120h-103z" />
<glyph unicode="}" horiz-adv-x="595" d="M47 -174h57q72 0 112 49t40 123v418q0 53 17.5 111.5t64.5 103.5q-47 47 -64.5 99t-17.5 114v418q0 74 -40 123t-112 49h-57v92h57q111 0 182.5 -75t71.5 -194v-413q0 -74 35 -120t111 -46h55v-94h-55q-76 0 -111 -46t-35 -118v-418q0 -119 -71.5 -193.5t-182.5 -74.5 h-57v92z" />
<glyph unicode="~" d="M178 428q4 127 76 187.5t164 60.5q68 0 116 -25.5t89 -58.5t85 -58.5t101 -25.5q55 0 95 31.5t50 124.5h88q-4 -125 -75.5 -186.5t-163.5 -61.5q-68 0 -116 25.5t-89 58t-85 58.5t-101 26q-55 0 -95.5 -32t-50.5 -124h-88z" />
<glyph unicode="&#xa1;" horiz-adv-x="522" d="M207 893v184h112v-184h-112zM211 -449l4 1100h92l6 -1100h-102z" />
<glyph unicode="&#xa2;" horiz-adv-x="1243" d="M135 764q0 -162 72 -289t194 -201q103 -61 222 -71v86q-96 10 -177 57q-100 59 -159.5 165.5t-59.5 252t59.5 252t159.5 166.5q80 47 177 57v86q-119 -10 -222 -72q-123 -74 -194.5 -200.5t-71.5 -288.5zM623 0v203q25 -2 49 -2q23 0 43 2v-203h-92zM623 289v950 q25 2 49 2q23 0 43 -2v-950q-20 -2 -43 -2q-25 0 -49 2zM623 1325v201h92v-201q-20 2 -43 2q-24 0 -49 -2zM715 203q76 6 141 30q86 33 152 95q66 57 100 129l-78 41q-57 -100 -149 -156q-76 -45 -166 -53v-86zM715 1239q90 -6 166 -51q92 -53 149 -158l78 43 q-35 74 -100.5 131.5t-151.5 89.5q-65 25 -141 31v-86z" />
<glyph unicode="&#xa3;" horiz-adv-x="1327" d="M102 0v92h205v637h-205v92h205v273q0 137 57.5 239.5t155.5 159.5q102 57 236 57q121 0 219 -45q98 -47 166 -133q66 -86 84 -213l-92 -20q-23 152 -121.5 235.5t-256 83.5t-251.5 -98t-94 -266v-273h409v-92h-409v-637h714v-92h-1022z" />
<glyph unicode="&#xa4;" horiz-adv-x="1196" d="M135 154l152 151q-45 55 -65.5 118.5t-20.5 127t20.5 127t65.5 121.5l-152 153l64 62l151 -152q53 41 119 65.5t129 24.5q66 0 131.5 -24.5t116.5 -65.5l151 152l64 -62l-150 -153q43 -57 63.5 -121t20.5 -127q0 -68 -20.5 -129.5t-63.5 -116.5l150 -151l-64 -66 l-151 152q-59 -45 -125 -65.5t-123 -20.5t-122.5 20.5t-125.5 65.5l-151 -152zM293 551q2 -82 43 -149.5t110.5 -108.5t151.5 -41t151.5 41t110.5 108.5t41 149.5q0 80 -41 149.5t-110.5 110.5t-151.5 41t-151.5 -41t-110.5 -110.5t-43 -149.5z" />
<glyph unicode="&#xa5;" horiz-adv-x="1277" d="M45 1526h117l479 -729l475 729h117l-516 -803h280v-92h-307v-225h307v-93h-307v-313h-102v313h-307v93h307v225h-307v92h280z" />
<glyph unicode="&#xa6;" horiz-adv-x="552" d="M225 -389v856h103v-856h-103zM225 877v854h103v-854h-103z" />
<glyph unicode="&#xa7;" horiz-adv-x="1118" d="M113 96l90 41q55 -113 153.5 -170t208.5 -59q117 0 197 61.5t80 159.5q2 51 -22.5 92t-69.5 74t-115 49l-189 53q-137 37 -206.5 115t-69.5 184q0 90 47 160q49 70 127 111q18 10 39 16q47 -25 104 -41l29 -8q-106 0 -176 -66q-72 -66 -72 -170q2 -43 22.5 -81.5 t63.5 -67.5t107 -49l190 -54q12 -4 23 -6q-37 -8 -78 -8v-72q100 0 182 35q51 -31 88 -71q76 -82 76 -191q0 -88 -49 -161.5t-135 -114.5t-199 -41q-152 0 -272.5 77.5t-173.5 202.5zM211 1241q0 -106 70 -184q39 -43 102 -74q63 23 137 23v-72h-4l160 -45q70 -16 115 -49 t69.5 -74t22.5 -92q-2 -106 -84 -174q-55 -45 -125 -60q57 -18 104 -45q8 4 15 6q88 41 139 115t51 162q0 109 -76 190.5t-215 122.5l-190 53q-63 20 -106.5 49t-64 68t-22.5 82q0 92 72 153.5t180 61.5q102 0 184 -53t129 -152l95 43q-45 113 -158 182.5t-248 71.5 q-100 2 -180 -39t-125 -110.5t-47 -159.5z" />
<glyph unicode="&#xa8;" horiz-adv-x="815" d="M211 1311v153h143v-153h-143zM518 1311v153h144v-153h-144z" />
<glyph unicode="&#xa9;" horiz-adv-x="1832" d="M129 764q-2 162 59.5 305t169.5 250q109 109 252.5 170t307 61t307 -61.5t250.5 -169.5q106 -106 167.5 -249.5t61.5 -305.5q0 -166 -61.5 -309.5t-170 -250t-251.5 -168t-303 -61.5q-164 0 -307.5 61.5t-252.5 168.5q-109 109 -170 252t-59 307zM231 764 q-2 -141 51.5 -268t147.5 -221.5t219 -147.5t268.5 -53t266.5 53t219 147q92 94 145.5 221.5t53.5 268.5t-53.5 266t-145.5 219q-96 94 -219 150q-123 53 -266.5 53t-268.5 -53t-219 -147.5t-147.5 -219.5t-51.5 -268zM520 764q0 125 53.5 221t143.5 151.5t207 55.5 q84 0 153.5 -31t116.5 -78t68 -100l-91 -43q-29 68 -94 113t-153 45q-133 0 -217 -94.5t-84 -239.5q0 -150 84 -244t217 -92q92 0 153.5 45t93.5 113l91 -43q-20 -51 -67.5 -100.5t-117.5 -77.5q-69 -31 -153 -31q-117 -2 -207 55t-143.5 155.5t-53.5 219.5z" />
<glyph unicode="&#xaa;" horiz-adv-x="933" d="M135 965q0 82 57.5 149.5t190.5 89.5l283 47v41q-2 76 -55.5 123t-141.5 47q-72 0 -129 -34.5t-86 -94.5l-80 45q35 70 117 119t178 49q129 0 207 -71.5t78 -182.5v-524h-88v131q-31 -55 -99 -98q-80 -49 -182 -49t-176 59t-74 154zM229 969q0 -61 47.5 -100.5 t114.5 -39.5q84 2 145.5 39t94.5 98.5t35 137.5v65l-260 -43q-98 -16 -137.5 -57t-39.5 -100z" />
<glyph unicode="&#xab;" horiz-adv-x="966" d="M59 551l310 381h96l-301 -381l301 -381h-96zM502 551l309 381h96l-301 -381l301 -381h-96z" />
<glyph unicode="&#xac;" d="M98 467v92h1024v-477h-92v385h-932z" />
<glyph unicode="&#xad;" horiz-adv-x="958" d="M152 494v92h655v-92h-655z" />
<glyph unicode="&#xae;" horiz-adv-x="1308" d="M129 1081q2 143 71.5 262t188.5 191t266 72q111 0 205 -41t166 -115t113 -166q41 -94 41 -203q0 -145 -72 -264q-72 -121 -191 -190.5t-262 -69.5q-147 0 -266 69.5t-188 190.5q-70 119 -72 264zM219 1081q2 -123 59.5 -221t155.5 -155.5t221 -59.5q121 2 219 60 q100 57 158 155t58 221q0 121 -58 219q-57 100 -158 158q-98 57 -219 58q-123 0 -221 -57.5t-155 -158.5q-57 -98 -60 -219zM473 807v553h205q82 0 135 -45t53 -129q0 -47 -24.5 -92t-79.5 -68l129 -219h-103l-116 207h-109v-207h-90zM563 1092h115q45 0 71.5 26.5 t26.5 69.5q0 41 -26.5 65.5t-71.5 24.5h-115v-186z" />
<glyph unicode="&#xaf;" horiz-adv-x="886" d="M211 1352v82h512v-82h-512z" />
<glyph unicode="&#xb0;" horiz-adv-x="901" d="M174 1272q-2 80 35 141.5t100 99.5q63 37 142 37q82 0 143 -36.5t98 -100t35 -143.5q2 -78 -35 -139.5t-98 -98.5t-143 -37q-78 0 -141.5 37t-100.5 98.5t-35 141.5zM254 1272q0 -92 59.5 -145.5t137.5 -53.5q74 0 135 53.5t61 145.5t-61.5 145t-135 53t-135 -53 t-61.5 -145z" />
<glyph unicode="&#xb1;" d="M98 0v92h1024v-92h-1024zM98 702v93h467v403h92v-403h465v-93h-465v-405h-92v405h-467z" />
<glyph unicode="&#xb2;" horiz-adv-x="876" d="M84 1256q18 88 66.5 151.5t121 99t160.5 35.5q90 0 162 -36.5t114 -101t42 -152.5q0 -96 -60.5 -186.5t-177.5 -217.5l-283 -305h543v-86h-680v61l301 326q88 94 145.5 159.5t86 122t28.5 124.5q0 96 -58 151t-161 55q-100 0 -169.5 -57t-94.5 -164z" />
<glyph unicode="&#xb3;" horiz-adv-x="880" d="M80 705l82 31q29 -98 99.5 -154.5t172.5 -56.5q117 0 189.5 69.5t72.5 186.5q0 121 -76.5 182t-185.5 61q-37 0 -74 -6l-16 41l295 381h-514v86h627v-74l-271 -352q78 -4 144 -41q76 -41 122 -111.5t46 -168.5q0 -92 -46.5 -169t-126.5 -123t-186 -46q-86 0 -158.5 31.5 t-123 91t-72.5 141.5z" />
<glyph unicode="&#xb4;" horiz-adv-x="675" d="M211 1311l188 307h125l-221 -307h-92z" />
<glyph unicode="&#xb5;" horiz-adv-x="1167" d="M158 -287v1364h92v-696q0 -102 45 -174t117 -109q74 -37 159 -35q104 -2 178 47.5t109 131.5q37 82 37 180v655h92v-1077h-92v158q-37 -72 -111 -121q-94 -61 -221 -62q-104 0 -196 45q-70 35 -117 93v-400h-92z" />
<glyph unicode="&#xb6;" horiz-adv-x="733" d="M98 1227q0 90 37 157.5t106.5 104.5t164.5 37h102v-1731h-102v1133q-90 0 -160 36.5t-109 104.5t-39 158z" />
<glyph unicode="&#xb7;" horiz-adv-x="534" d="M211 463v184h113v-184h-113z" />
<glyph unicode="&#xb8;" horiz-adv-x="782" d="M211 -371l31 66q33 -35 76.5 -54.5t84.5 -19.5q51 0 81 27.5t30 66.5q0 57 -57.5 89t-153.5 40l51 176h88l-32 -120q88 -14 140 -63.5t52 -115.5q0 -78 -54 -125t-140 -47q-57 0 -108.5 20.5t-88.5 59.5z" />
<glyph unicode="&#xb9;" horiz-adv-x="598" d="M57 1440v86h297v-1069h-96v983h-201z" />
<glyph unicode="&#xba;" horiz-adv-x="1042" d="M135 1149q0 115 51.5 204t139.5 141t196.5 52t195.5 -52t138 -141t51 -204t-51 -205t-138 -141t-195.5 -51t-196.5 52t-139.5 142t-51.5 203zM229 1149q0 -86 39 -156.5t105.5 -112.5t148.5 -42q80 0 145.5 41t105.5 111.5t40 158.5t-39 158.5t-104.5 111.5t-147.5 41 t-148.5 -41t-105.5 -111.5t-39 -158.5z" />
<glyph unicode="&#xbb;" horiz-adv-x="966" d="M59 170l301 381l-301 381h97l309 -381l-309 -381h-97zM502 170l301 381l-301 381h96l309 -381l-309 -381h-96z" />
<glyph unicode="&#xbc;" horiz-adv-x="1767" d="M57 1444v82h254v-856h-92v774h-162zM250 0l913 1526h107l-914 -1526h-106zM1049 199v75l432 582h84v-580h107v-77h-107v-199h-86v199h-430zM1108 276l13 -32l24 32h-37zM1479 727l31 41l-31 8v-49z" />
<glyph unicode="&#xbd;" horiz-adv-x="1710" d="M57 1444v82h254v-856h-92v774h-162zM250 0l913 1526h107l-914 -1526h-106zM1049 641q16 72 55 122t97.5 77.5t128.5 27.5q113 0 185.5 -65.5t72.5 -169.5q0 -82 -52.5 -156t-130.5 -158l-221 -237h422v-82h-551v61l240 258q70 76 113.5 126.5t65 92.5t21.5 91 q0 74 -45 114.5t-118 40.5q-76 0 -128.5 -43t-72.5 -123z" />
<glyph unicode="&#xbe;" horiz-adv-x="1957" d="M80 864l78 31q23 -74 78 -116t131 -42q88 0 142 52.5t54 140.5q0 90 -56 138t-140 48q-16 0 -35 -2t-31 -6l-16 41l231 295h-397v82h504v-74l-207 -266q94 -10 164 -72q78 -70 77 -184q0 -76 -36.5 -137.5t-102 -98.5t-151.5 -37q-102 0 -181.5 55.5t-105.5 151.5zM440 0 l913 1526h107l-914 -1526h-106zM1239 199v75l432 582h84v-580h107v-77h-107v-199h-86v199h-430zM1298 276l13 -32l24 32h-37zM1669 727l31 41l-31 8v-49z" />
<glyph unicode="&#xbf;" horiz-adv-x="970" d="M90 -131q0 98 43 174t106.5 140.5t127.5 127.5q72 74 128 153t56 179v8h92v-8q0 -94 -32.5 -165.5t-86 -131t-114.5 -115.5q-84 -80 -150.5 -165.5t-66.5 -200.5q0 -61 32.5 -118.5t95 -93.5t150.5 -36q129 0 218 79t120 220l90 -18q-18 -115 -78.5 -198t-150.5 -128 t-199 -45q-106 0 -193.5 47t-137.5 125t-50 170zM539 893v184h112v-184h-112z" />
<glyph unicode="&#xc0;" horiz-adv-x="1318" d="M45 0l565 1526h99l565 -1526h-113l-147 403h-709l-147 -403h-113zM338 496h643l-322 878zM393 2067h125l188 -307h-92z" />
<glyph unicode="&#xc1;" horiz-adv-x="1318" d="M45 0l565 1526h99l565 -1526h-113l-147 403h-709l-147 -403h-113zM338 496h643l-322 878zM612 1760l188 307h125l-221 -307h-92z" />
<glyph unicode="&#xc2;" horiz-adv-x="1318" d="M45 0l565 1526h99l565 -1526h-113l-147 403h-709l-147 -403h-113zM338 496h643l-322 878zM358 1760l256 307h88l258 -307h-104l-197 233l-197 -233h-104z" />
<glyph unicode="&#xc3;" horiz-adv-x="1318" d="M45 0l565 1526h99l565 -1526h-113l-147 403h-709l-147 -403h-113zM338 496h643l-322 878zM369 1768q0 98 44 157.5t126 59.5q51 0 82 -21.5t54.5 -51t47 -51t58.5 -21.5q43 0 65.5 33.5t22.5 103.5h82q0 -94 -45.5 -155.5t-129.5 -61.5q-51 0 -84.5 21.5t-57 51t-46 51 t-55.5 21.5q-39 0 -60.5 -32.5t-21.5 -104.5h-82z" />
<glyph unicode="&#xc4;" horiz-adv-x="1318" d="M45 0l565 1526h99l565 -1526h-113l-147 403h-709l-147 -403h-113zM338 496h643l-322 878zM434 1760v153h143v-153h-143zM741 1760v153h144v-153h-144z" />
<glyph unicode="&#xc5;" horiz-adv-x="1318" d="M45 0l565 1526h99l565 -1526h-113l-147 403h-709l-147 -403h-113zM338 496h643l-322 878zM465 1911q0 88 57.5 140.5t134.5 52.5q80 0 137.5 -53.5t57.5 -139.5q0 -88 -57 -140t-135 -52q-80 0 -137.5 52t-57.5 140zM543 1911.5q0 -53.5 33.5 -86.5t81 -33t83 33 t35.5 86.5t-35.5 85t-83 31.5t-81 -31.5t-33.5 -85z" />
<glyph unicode="&#xc6;" horiz-adv-x="2021" d="M45 0l565 1526h1299v-92h-840v-623h799v-92h-799v-627h840v-92h-942v403h-662l-147 -403h-113zM338 496h629v938h-285z" />
<glyph unicode="&#xc7;" horiz-adv-x="1613" d="M158 764q0 170 54 314.5t152.5 250t229.5 163.5t287 58q152 0 272.5 -56t204.5 -141t121 -173l-97 -43q-68 143 -197.5 229t-303.5 86q-182 0 -322.5 -87t-219.5 -241.5t-79 -359.5t79 -360.5t219 -242.5t323 -87q174 0 304 86t197 229l97 -43q-37 -88 -121 -173 t-204.5 -141.5t-272.5 -56.5q-156 0 -287 58.5t-229.5 165t-152.5 250t-54 315.5zM700 -371l31 66q33 -35 76.5 -54.5t84.5 -19.5q51 0 81 27.5t30 66.5q0 57 -57.5 89t-153.5 40l51 176h88l-32 -120q88 -14 140 -63.5t52 -115.5q0 -78 -54 -125t-140 -47q-57 0 -108.5 20.5 t-88.5 59.5z" />
<glyph unicode="&#xc8;" horiz-adv-x="1257" d="M203 0v1526h942v-92h-840v-623h799v-92h-799v-627h840v-92h-942zM408 2067h125l188 -307h-92z" />
<glyph unicode="&#xc9;" horiz-adv-x="1257" d="M203 0v1526h942v-92h-840v-623h799v-92h-799v-627h840v-92h-942zM627 1760l188 307h125l-221 -307h-92z" />
<glyph unicode="&#xca;" horiz-adv-x="1257" d="M203 0v1526h942v-92h-840v-623h799v-92h-799v-627h840v-92h-942zM373 1760l256 307h88l258 -307h-104l-197 233l-197 -233h-104z" />
<glyph unicode="&#xcb;" horiz-adv-x="1257" d="M203 0v1526h942v-92h-840v-623h799v-92h-799v-627h840v-92h-942zM449 1760v153h143v-153h-143zM756 1760v153h144v-153h-144z" />
<glyph unicode="&#xcc;" horiz-adv-x="507" d="M-12 2067h125l188 -307h-92zM203 0v1526h102v-1526h-102z" />
<glyph unicode="&#xcd;" horiz-adv-x="507" d="M203 0v1526h102v-1526h-102zM207 1760l188 307h125l-221 -307h-92z" />
<glyph unicode="&#xce;" horiz-adv-x="507" d="M-47 1760l256 307h88l258 -307h-104l-197 233l-197 -233h-104zM203 0v1526h102v-1526h-102z" />
<glyph unicode="&#xcf;" horiz-adv-x="507" d="M29 1760v153h143v-153h-143zM203 0v1526h102v-1526h-102zM336 1760v153h144v-153h-144z" />
<glyph unicode="&#xd0;" horiz-adv-x="1523" d="M59 717v92h144v717h487q221 0 383 -93.5t250 -264.5t88 -404q0 -231 -88 -403.5t-250 -266.5t-383 -94h-487v717h-144zM305 92h381q186 0 326.5 84t218.5 235.5t78 352.5t-78 351.5t-218.5 234.5t-326.5 84h-381v-625h348v-92h-348v-625z" />
<glyph unicode="&#xd1;" horiz-adv-x="1511" d="M203 0v1526h82l921 -1319v1319h103v-1526h-82l-922 1319v-1319h-102zM465 1768q0 98 44 157.5t126 59.5q51 0 82 -21.5t54.5 -51t47 -51t58.5 -21.5q43 0 65.5 33.5t22.5 103.5h82q0 -94 -45.5 -155.5t-129.5 -61.5q-51 0 -84.5 21.5t-57 51t-46 51t-55.5 21.5 q-39 0 -60.5 -32.5t-21.5 -104.5h-82z" />
<glyph unicode="&#xd2;" horiz-adv-x="1810" d="M158 764q0 174 58 317.5t161.5 249t239 162.5t289 57t288.5 -57t238.5 -162.5t162 -250t58.5 -316.5q0 -174 -58.5 -318.5t-161 -250t-238.5 -163t-289.5 -57.5t-290 57.5t-239 163t-160.5 250t-58 318.5zM260 764q0 -139 46 -264t132 -221.5t205 -150.5t262.5 -54 t262 54t204.5 150.5t132 221.5t46 264q0 137 -46 261t-131 220t-203.5 151.5t-264.5 55.5q-143 0 -262 -55.5t-205 -151.5t-132 -220t-46 -261zM639 2067h125l188 -307h-92z" />
<glyph unicode="&#xd3;" horiz-adv-x="1810" d="M158 764q0 174 58 317.5t161.5 249t239 162.5t289 57t288.5 -57t238.5 -162.5t162 -250t58.5 -316.5q0 -174 -58.5 -318.5t-161 -250t-238.5 -163t-289.5 -57.5t-290 57.5t-239 163t-160.5 250t-58 318.5zM260 764q0 -139 46 -264t132 -221.5t205 -150.5t262.5 -54 t262 54t204.5 150.5t132 221.5t46 264q0 137 -46 261t-131 220t-203.5 151.5t-264.5 55.5q-143 0 -262 -55.5t-205 -151.5t-132 -220t-46 -261zM858 1760l188 307h125l-221 -307h-92z" />
<glyph unicode="&#xd4;" horiz-adv-x="1810" d="M158 764q0 174 58 317.5t161.5 249t239 162.5t289 57t288.5 -57t238.5 -162.5t162 -250t58.5 -316.5q0 -174 -58.5 -318.5t-161 -250t-238.5 -163t-289.5 -57.5t-290 57.5t-239 163t-160.5 250t-58 318.5zM260 764q0 -139 46 -264t132 -221.5t205 -150.5t262.5 -54 t262 54t204.5 150.5t132 221.5t46 264q0 137 -46 261t-131 220t-203.5 151.5t-264.5 55.5q-143 0 -262 -55.5t-205 -151.5t-132 -220t-46 -261zM604 1760l256 307h88l258 -307h-104l-197 233l-197 -233h-104z" />
<glyph unicode="&#xd5;" horiz-adv-x="1810" d="M158 764q0 174 58 317.5t161.5 249t239 162.5t289 57t288.5 -57t238.5 -162.5t162 -250t58.5 -316.5q0 -174 -58.5 -318.5t-161 -250t-238.5 -163t-289.5 -57.5t-290 57.5t-239 163t-160.5 250t-58 318.5zM260 764q0 -139 46 -264t132 -221.5t205 -150.5t262.5 -54 t262 54t204.5 150.5t132 221.5t46 264q0 137 -46 261t-131 220t-203.5 151.5t-264.5 55.5q-143 0 -262 -55.5t-205 -151.5t-132 -220t-46 -261zM614 1768q0 98 44 157.5t126 59.5q51 0 82 -21.5t54.5 -51t47 -51t58.5 -21.5q43 0 65.5 33.5t22.5 103.5h82 q0 -94 -45.5 -155.5t-129.5 -61.5q-51 0 -84.5 21.5t-57 51t-46 51t-55.5 21.5q-39 0 -60.5 -32.5t-21.5 -104.5h-82z" />
<glyph unicode="&#xd6;" horiz-adv-x="1810" d="M158 764q0 174 58 317.5t161.5 249t239 162.5t289 57t288.5 -57t238.5 -162.5t162 -250t58.5 -316.5q0 -174 -58.5 -318.5t-161 -250t-238.5 -163t-289.5 -57.5t-290 57.5t-239 163t-160.5 250t-58 318.5zM260 764q0 -139 46 -264t132 -221.5t205 -150.5t262.5 -54 t262 54t204.5 150.5t132 221.5t46 264q0 137 -46 261t-131 220t-203.5 151.5t-264.5 55.5q-143 0 -262 -55.5t-205 -151.5t-132 -220t-46 -261zM680 1760v153h143v-153h-143zM987 1760v153h144v-153h-144z" />
<glyph unicode="&#xd7;" d="M186 63l359 361l-357 356l64 66l358 -357l359 357l63 -66l-356 -356l358 -361l-65 -63l-359 358l-358 -358z" />
<glyph unicode="&#xd8;" horiz-adv-x="1810" d="M159 764q-1 174 57 317.5t161.5 249t239 162.5t289 57t288.5 -57q90 -37 164 -96l106 129h131l-161 -197q102 -104 159.5 -247.5t59.5 -317.5q0 -174 -58.5 -318.5t-161 -250t-238.5 -163t-290 -57.5q-156 0 -291 58q-90 37 -163 96l-105 -129h-131l162 197 q-102 106 -159.5 249.5t-58.5 317.5zM260 764q0 -139 46 -264t132 -221l2 -3l854 1043q-57 45 -125 78q-119 55 -264 55q-143 0 -262 -55.5t-205 -151.5t-132 -220t-46 -261zM514 207q59 -47 129 -80q119 -53 262.5 -53t262 54t204.5 150.5t132 221.5t46 264q0 137 -46 261 t-132 220q-2 2 -2 4z" />
<glyph unicode="&#xd9;" horiz-adv-x="1413" d="M195 514v1012h102v-1020q0 -129 51 -227.5t144.5 -154.5t214.5 -56q123 0 215 56t143 154.5t51 227.5v1020h103v-1012q0 -162 -64.5 -282.5t-179 -188.5t-268.5 -68q-152 0 -267.5 68t-180 188.5t-64.5 282.5zM440 2067h125l188 -307h-92z" />
<glyph unicode="&#xda;" horiz-adv-x="1413" d="M195 514v1012h102v-1020q0 -129 51 -227.5t144.5 -154.5t214.5 -56q123 0 215 56t143 154.5t51 227.5v1020h103v-1012q0 -162 -64.5 -282.5t-179 -188.5t-268.5 -68q-152 0 -267.5 68t-180 188.5t-64.5 282.5zM660 1760l188 307h125l-221 -307h-92z" />
<glyph unicode="&#xdb;" horiz-adv-x="1413" d="M195 514v1012h102v-1020q0 -129 51 -227.5t144.5 -154.5t214.5 -56q123 0 215 56t143 154.5t51 227.5v1020h103v-1012q0 -162 -64.5 -282.5t-179 -188.5t-268.5 -68q-152 0 -267.5 68t-180 188.5t-64.5 282.5zM406 1760l256 307h88l258 -307h-104l-197 233l-197 -233 h-104z" />
<glyph unicode="&#xdc;" horiz-adv-x="1413" d="M195 514v1012h102v-1020q0 -129 51 -227.5t144.5 -154.5t214.5 -56q123 0 215 56t143 154.5t51 227.5v1020h103v-1012q0 -162 -64.5 -282.5t-179 -188.5t-268.5 -68q-152 0 -267.5 68t-180 188.5t-64.5 282.5zM481 1760v153h143v-153h-143zM788 1760v153h144v-153h-144z " />
<glyph unicode="&#xdd;" horiz-adv-x="1277" d="M45 1526h117l479 -729l475 729h117l-543 -844v-682h-102v682zM592 1760l188 307h125l-221 -307h-92z" />
<glyph unicode="&#xde;" horiz-adv-x="1300" d="M195 0v1526h102v-307h397q143 0 252 -58q109 -59 170.5 -161.5t61.5 -237.5t-61.5 -237.5t-170 -160t-252.5 -57.5h-397v-307h-102zM297 399h397q113 2 199 47.5t133 126.5q49 82 49 191q2 109 -47 190.5t-135 126.5t-199 45h-397v-727z" />
<glyph unicode="&#xdf;" horiz-adv-x="1239" d="M203 -287v1415q0 129 57 223.5t153.5 147.5t215.5 51q113 2 207 -47t149 -137t55 -209q0 -141 -75 -227q-61 -70 -160 -117q133 -45 209 -129q90 -100 90 -256q2 -129 -59.5 -225.5t-164 -149.5t-237.5 -53h-141v92h141q160 0 258 92t98 242q0 152 -102 244t-268 92h-127 v92h112q90 0 164 37q74 35 115 104q43 70 43 162q0 84 -39 154q-41 70 -110.5 108.5t-162 38.5t-166 -41t-118.5 -114.5t-43 -174.5v-1415h-94z" />
<glyph unicode="&#xe0;" horiz-adv-x="1175" d="M135 279q0 74 34 142t110.5 119.5t205.5 71.5l418 70v66q0 121 -83 193.5t-220 72.5q-104 0 -192.5 -51.5t-137.5 -135.5l-82 43q31 61 91.5 113.5t142.5 85.5t178 33q117 0 206 -45t139 -125t50 -184v-748h-92v217q-27 -57 -80 -108q-61 -59 -147.5 -96.5t-190.5 -37.5 q-98 0 -177 38t-126 106.5t-47 159.5zM229 283q0 -102 76 -162t189 -60q125 0 216 59.5t142 157t51 209.5v107l-387 -64q-160 -27 -223.5 -94t-63.5 -153zM334 1618h125l188 -307h-92z" />
<glyph unicode="&#xe1;" horiz-adv-x="1175" d="M135 279q0 74 34 142t110.5 119.5t205.5 71.5l418 70v66q0 121 -83 193.5t-220 72.5q-104 0 -192.5 -51.5t-137.5 -135.5l-82 43q31 61 91.5 113.5t142.5 85.5t178 33q117 0 206 -45t139 -125t50 -184v-748h-92v217q-27 -57 -80 -108q-61 -59 -147.5 -96.5t-190.5 -37.5 q-98 0 -177 38t-126 106.5t-47 159.5zM229 283q0 -102 76 -162t189 -60q125 0 216 59.5t142 157t51 209.5v107l-387 -64q-160 -27 -223.5 -94t-63.5 -153zM553 1311l188 307h125l-221 -307h-92z" />
<glyph unicode="&#xe2;" horiz-adv-x="1175" d="M135 279q0 74 34 142t110.5 119.5t205.5 71.5l418 70v66q0 121 -83 193.5t-220 72.5q-104 0 -192.5 -51.5t-137.5 -135.5l-82 43q31 61 91.5 113.5t142.5 85.5t178 33q117 0 206 -45t139 -125t50 -184v-748h-92v217q-27 -57 -80 -108q-61 -59 -147.5 -96.5t-190.5 -37.5 q-98 0 -177 38t-126 106.5t-47 159.5zM229 283q0 -102 76 -162t189 -60q125 0 216 59.5t142 157t51 209.5v107l-387 -64q-160 -27 -223.5 -94t-63.5 -153zM299 1311l256 307h88l258 -307h-104l-197 233l-197 -233h-104z" />
<glyph unicode="&#xe3;" horiz-adv-x="1175" d="M135 279q0 74 34 142t110.5 119.5t205.5 71.5l418 70v66q0 121 -83 193.5t-220 72.5q-104 0 -192.5 -51.5t-137.5 -135.5l-82 43q31 61 91.5 113.5t142.5 85.5t178 33q117 0 206 -45t139 -125t50 -184v-748h-92v217q-27 -57 -80 -108q-61 -59 -147.5 -96.5t-190.5 -37.5 q-98 0 -177 38t-126 106.5t-47 159.5zM229 283q0 -102 76 -162t189 -60q125 0 216 59.5t142 157t51 209.5v107l-387 -64q-160 -27 -223.5 -94t-63.5 -153zM309 1319q0 98 44 157.5t126 59.5q51 0 82 -21.5t54.5 -51t47 -51t58.5 -21.5q43 0 65.5 33.5t22.5 103.5h82 q0 -94 -45.5 -155.5t-129.5 -61.5q-51 0 -84.5 21.5t-57 51t-46 51t-55.5 21.5q-39 0 -60.5 -32.5t-21.5 -104.5h-82z" />
<glyph unicode="&#xe4;" horiz-adv-x="1175" d="M135 279q0 74 34 142t110.5 119.5t205.5 71.5l418 70v66q0 121 -83 193.5t-220 72.5q-104 0 -192.5 -51.5t-137.5 -135.5l-82 43q31 61 91.5 113.5t142.5 85.5t178 33q117 0 206 -45t139 -125t50 -184v-748h-92v217q-27 -57 -80 -108q-61 -59 -147.5 -96.5t-190.5 -37.5 q-98 0 -177 38t-126 106.5t-47 159.5zM229 283q0 -102 76 -162t189 -60q125 0 216 59.5t142 157t51 209.5v107l-387 -64q-160 -27 -223.5 -94t-63.5 -153zM375 1311v153h143v-153h-143zM682 1311v153h144v-153h-144z" />
<glyph unicode="&#xe5;" horiz-adv-x="1175" d="M135 279q0 74 34 142t110.5 119.5t205.5 71.5l418 70v66q0 121 -83 193.5t-220 72.5q-104 0 -192.5 -51.5t-137.5 -135.5l-82 43q31 61 91.5 113.5t142.5 85.5t178 33q117 0 206 -45t139 -125t50 -184v-748h-92v217q-27 -57 -80 -108q-61 -59 -147.5 -96.5t-190.5 -37.5 q-98 0 -177 38t-126 106.5t-47 159.5zM229 283q0 -102 76 -162t189 -60q125 0 216 59.5t142 157t51 209.5v107l-387 -64q-160 -27 -223.5 -94t-63.5 -153zM406 1462q0 88 57.5 140.5t134.5 52.5q80 0 137.5 -53.5t57.5 -139.5q0 -88 -57 -140t-135 -52q-80 0 -137.5 52 t-57.5 140zM484 1462.5q0 -53.5 33.5 -86.5t81 -33t83 33t35.5 86.5t-35.5 85t-83 31.5t-81 -31.5t-33.5 -85z" />
<glyph unicode="&#xe6;" horiz-adv-x="2052" d="M135 279q0 74 34 142t110.5 119.5t205.5 71.5l416 70v66q0 121 -82 193.5t-219 72.5q-104 0 -192.5 -51.5t-137.5 -135.5l-82 43q31 61 91.5 113.5t142.5 85.5t178 33q162 0 268 -84q88 -70 115 -174q61 109 164 176q123 82 278 82q104 0 194.5 -39t157 -108.5 t103.5 -163t37 -201.5q0 -20 -1 -39t-5 -41h-916q8 -129 67.5 -230.5t159 -160t224.5 -58.5q117 0 211 55.5t151 155.5l78 -41q-39 -78 -106.5 -136t-152.5 -89t-181 -31q-156 0 -283 78q-104 66 -168 166v-219h-94v211q-25 -49 -70 -94q-61 -63 -149 -102.5t-197 -39.5 q-98 0 -177 38t-126 106.5t-47 159.5zM229 283q0 -102 76 -162t189 -60q125 0 216 59.5t141 157t50 209.5v107l-385 -64q-160 -27 -223.5 -94t-63.5 -153zM997 592h826q0 121 -52.5 216t-142.5 151.5t-202.5 56.5t-206 -55.5t-152 -151.5t-70.5 -217z" />
<glyph unicode="&#xe7;" horiz-adv-x="1243" d="M135 539q0 162 72 288.5t193.5 200.5t271.5 74q100 0 185 -33t149.5 -90t101.5 -131l-78 -43q-57 102 -149.5 156.5t-208.5 54.5q-125 0 -225.5 -59.5t-160 -167t-59.5 -251t59.5 -251t160 -167t225.5 -59.5q117 0 209 55.5t149 155.5l78 -41q-37 -72 -101.5 -130 t-149.5 -92t-185 -34q-150 0 -271.5 74t-193.5 202t-72 288zM492 -371l31 66q33 -35 76.5 -54.5t84.5 -19.5q51 0 81 27.5t30 66.5q0 57 -57.5 89t-153.5 40l51 176h88l-32 -120q88 -14 140 -63.5t52 -115.5q0 -78 -54 -125t-140 -47q-57 0 -108.5 20.5t-88.5 59.5z" />
<glyph unicode="&#xe8;" horiz-adv-x="1284" d="M135 539q0 160 69.5 287.5t187.5 201.5t265 74q104 0 194.5 -39t157 -108.5t103.5 -163t37 -201.5q0 -20 -1 -39t-5 -41h-916q6 -119 60 -215q59 -109 160.5 -171.5t230.5 -62.5q117 0 211 55.5t151 155.5l78 -41q-39 -78 -106.5 -136t-152.5 -89t-181 -31 q-154 0 -276.5 75t-194.5 203t-72 286zM229 592h826q0 113 -45 203q-51 102 -143.5 161.5t-209.5 59.5q-121 0 -218 -63.5t-154 -170.5q-45 -86 -56 -190zM377 1618h125l188 -307h-92z" />
<glyph unicode="&#xe9;" horiz-adv-x="1284" d="M135 539q0 160 69.5 287.5t187.5 201.5t265 74q104 0 194.5 -39t157 -108.5t103.5 -163t37 -201.5q0 -20 -1 -39t-5 -41h-916q6 -119 60 -215q59 -109 160.5 -171.5t230.5 -62.5q117 0 211 55.5t151 155.5l78 -41q-39 -78 -106.5 -136t-152.5 -89t-181 -31 q-154 0 -276.5 75t-194.5 203t-72 286zM229 592h826q0 113 -45 203q-51 102 -143.5 161.5t-209.5 59.5q-121 0 -218 -63.5t-154 -170.5q-45 -86 -56 -190zM596 1311l188 307h125l-221 -307h-92z" />
<glyph unicode="&#xea;" horiz-adv-x="1284" d="M135 539q0 160 69.5 287.5t187.5 201.5t265 74q104 0 194.5 -39t157 -108.5t103.5 -163t37 -201.5q0 -20 -1 -39t-5 -41h-916q6 -119 60 -215q59 -109 160.5 -171.5t230.5 -62.5q117 0 211 55.5t151 155.5l78 -41q-39 -78 -106.5 -136t-152.5 -89t-181 -31 q-154 0 -276.5 75t-194.5 203t-72 286zM229 592h826q0 113 -45 203q-51 102 -143.5 161.5t-209.5 59.5q-121 0 -218 -63.5t-154 -170.5q-45 -86 -56 -190zM342 1311l256 307h88l258 -307h-104l-197 233l-197 -233h-104z" />
<glyph unicode="&#xeb;" horiz-adv-x="1284" d="M135 539q0 160 69.5 287.5t187.5 201.5t265 74q104 0 194.5 -39t157 -108.5t103.5 -163t37 -201.5q0 -20 -1 -39t-5 -41h-916q6 -119 60 -215q59 -109 160.5 -171.5t230.5 -62.5q117 0 211 55.5t151 155.5l78 -41q-39 -78 -106.5 -136t-152.5 -89t-181 -31 q-154 0 -276.5 75t-194.5 203t-72 286zM229 592h826q0 113 -45 203q-51 102 -143.5 161.5t-209.5 59.5q-121 0 -218 -63.5t-154 -170.5q-45 -86 -56 -190zM418 1311v153h143v-153h-143zM725 1311v153h144v-153h-144z" />
<glyph unicode="&#xec;" horiz-adv-x="378" d="M-78 1618h125l188 -307h-92zM143 0v1077h93v-1077h-93z" />
<glyph unicode="&#xed;" horiz-adv-x="378" d="M141 1311l188 307h125l-221 -307h-92zM143 0v1077h93v-1077h-93z" />
<glyph unicode="&#xee;" horiz-adv-x="378" d="M-113 1311l256 307h88l258 -307h-104l-197 233l-197 -233h-104zM143 0v1077h93v-1077h-93z" />
<glyph unicode="&#xef;" horiz-adv-x="378" d="M-37 1311v153h143v-153h-143zM143 0v1077h93v-1077h-93zM270 1311v153h144v-153h-144z" />
<glyph unicode="&#xf0;" horiz-adv-x="1359" d="M135 530q0 156 70 281q70 123 192.5 196.5t282.5 73.5q92 0 184 -30.5t170 -104.5q41 -39 74 -92q-8 39 -21 84q-35 115 -100 225q-53 88 -125 162l-348 -121v86l281 99q-74 61 -164 102q-111 49 -240 51q-47 0 -98 -8t-107 -27l-26 86q123 37 241 37q160 0 291 -59 q119 -55 211 -144l176 62v-88l-114 -39q70 -84 122 -184q68 -133 103 -276.5t35 -285.5q0 -211 -72 -354t-194.5 -215t-272.5 -72q-117 0 -219 41t-176 119q-74 74 -115 176.5t-41 218.5zM233 530q0 -133 61.5 -239.5t160.5 -165.5q102 -62 223 -62q125 2 225.5 63.5 t159.5 168t59 237.5q0 129 -57 233.5t-157.5 166t-229.5 61.5t-229 -61q-100 -59 -158 -166t-58 -236z" />
<glyph unicode="&#xf1;" horiz-adv-x="1167" d="M180 0v1077h92v-157q35 68 105 116q98 66 227 66q109 0 201 -49t148.5 -138.5t56.5 -207.5v-707h-92v696q0 98 -43.5 169t-116 110t-162.5 39q-102 0 -175 -48t-111 -129t-38 -182v-655h-92zM293 1319q0 98 44 157.5t126 59.5q51 0 82 -21.5t54.5 -51t47 -51t58.5 -21.5 q43 0 65.5 33.5t22.5 103.5h82q0 -94 -45.5 -155.5t-129.5 -61.5q-51 0 -84.5 21.5t-57 51t-46 51t-55.5 21.5q-39 0 -60.5 -32.5t-21.5 -104.5h-82z" />
<glyph unicode="&#xf2;" horiz-adv-x="1355" d="M135 539q0 162 72 288.5t194.5 200.5t276.5 74q156 0 277.5 -74t193.5 -201t72 -288q0 -160 -72 -288t-193.5 -202t-277.5 -74q-154 0 -276.5 74t-194.5 202t-72 288zM233 539q0 -133 59.5 -242t160 -171.5t225.5 -62.5t225.5 62.5t159.5 171.5t59 242q0 135 -58 242.5 t-158.5 170t-225.5 62.5q-127 0 -228.5 -62.5t-160 -170t-58.5 -242.5zM412 1618h125l188 -307h-92z" />
<glyph unicode="&#xf3;" horiz-adv-x="1355" d="M135 539q0 162 72 288.5t194.5 200.5t276.5 74q156 0 277.5 -74t193.5 -201t72 -288q0 -160 -72 -288t-193.5 -202t-277.5 -74q-154 0 -276.5 74t-194.5 202t-72 288zM233 539q0 -133 59.5 -242t160 -171.5t225.5 -62.5t225.5 62.5t159.5 171.5t59 242q0 135 -58 242.5 t-158.5 170t-225.5 62.5q-127 0 -228.5 -62.5t-160 -170t-58.5 -242.5zM631 1311l188 307h125l-221 -307h-92z" />
<glyph unicode="&#xf4;" horiz-adv-x="1355" d="M135 539q0 162 72 288.5t194.5 200.5t276.5 74q156 0 277.5 -74t193.5 -201t72 -288q0 -160 -72 -288t-193.5 -202t-277.5 -74q-154 0 -276.5 74t-194.5 202t-72 288zM233 539q0 -133 59.5 -242t160 -171.5t225.5 -62.5t225.5 62.5t159.5 171.5t59 242q0 135 -58 242.5 t-158.5 170t-225.5 62.5q-127 0 -228.5 -62.5t-160 -170t-58.5 -242.5zM377 1311l256 307h88l258 -307h-104l-197 233l-197 -233h-104z" />
<glyph unicode="&#xf5;" horiz-adv-x="1355" d="M135 539q0 162 72 288.5t194.5 200.5t276.5 74q156 0 277.5 -74t193.5 -201t72 -288q0 -160 -72 -288t-193.5 -202t-277.5 -74q-154 0 -276.5 74t-194.5 202t-72 288zM233 539q0 -133 59.5 -242t160 -171.5t225.5 -62.5t225.5 62.5t159.5 171.5t59 242q0 135 -58 242.5 t-158.5 170t-225.5 62.5q-127 0 -228.5 -62.5t-160 -170t-58.5 -242.5zM387 1319q0 98 44 157.5t126 59.5q51 0 82 -21.5t54.5 -51t47 -51t58.5 -21.5q43 0 65.5 33.5t22.5 103.5h82q0 -94 -45.5 -155.5t-129.5 -61.5q-51 0 -84.5 21.5t-57 51t-46 51t-55.5 21.5 q-39 0 -60.5 -32.5t-21.5 -104.5h-82z" />
<glyph unicode="&#xf6;" horiz-adv-x="1355" d="M135 539q0 162 72 288.5t194.5 200.5t276.5 74q156 0 277.5 -74t193.5 -201t72 -288q0 -160 -72 -288t-193.5 -202t-277.5 -74q-154 0 -276.5 74t-194.5 202t-72 288zM233 539q0 -133 59.5 -242t160 -171.5t225.5 -62.5t225.5 62.5t159.5 171.5t59 242q0 135 -58 242.5 t-158.5 170t-225.5 62.5q-127 0 -228.5 -62.5t-160 -170t-58.5 -242.5zM453 1311v153h143v-153h-143zM760 1311v153h144v-153h-144z" />
<glyph unicode="&#xf7;" d="M98 467v92h1024v-92h-1024zM555 0v160h113v-160h-113zM555 864v160h113v-160h-113z" />
<glyph unicode="&#xf8;" horiz-adv-x="1355" d="M129 0l141 160q-37 41 -63 90q-72 127 -72 288.5t72 288.5t194.5 201t276 74t276.5 -74q29 -18 58 -39l78 88h135l-142 -157q37 -41 66 -93q72 -127 72 -288q0 -160 -72 -288t-193.5 -202t-277.5 -74q-154 0 -277 74q-31 18 -57 39l-80 -88h-135zM233 539q0 -133 60 -242 q18 -35 43 -66l614 689q-20 14 -45 30q-100 61 -225 64q-127 0 -228.5 -62.5t-160 -170t-58.5 -242.5zM406 160q23 -16 47 -33q100 -62 225 -64q125 0 225.5 62.5t159.5 171.5t59 242q0 137 -57 243q-20 37 -45 66z" />
<glyph unicode="&#xf9;" horiz-adv-x="1167" d="M158 381v696h92v-696q0 -102 44 -174t117.5 -108t159.5 -36q104 0 177 48.5t110 130.5t37 180v655h92v-1077h-92v158q-39 -68 -104 -115q-95 -68 -228 -68q-106 0 -198.5 47.5t-149.5 137.5t-57 221zM317 1618h125l188 -307h-92z" />
<glyph unicode="&#xfa;" horiz-adv-x="1167" d="M158 381v696h92v-696q0 -102 44 -174t117.5 -108t159.5 -36q104 0 177 48.5t110 130.5t37 180v655h92v-1077h-92v158q-39 -68 -104 -115q-95 -68 -228 -68q-106 0 -198.5 47.5t-149.5 137.5t-57 221zM537 1311l188 307h125l-221 -307h-92z" />
<glyph unicode="&#xfb;" horiz-adv-x="1167" d="M158 381v696h92v-696q0 -102 44 -174t117.5 -108t159.5 -36q104 0 177 48.5t110 130.5t37 180v655h92v-1077h-92v158q-39 -68 -104 -115q-95 -68 -228 -68q-106 0 -198.5 47.5t-149.5 137.5t-57 221zM283 1311l256 307h88l258 -307h-104l-197 233l-197 -233h-104z" />
<glyph unicode="&#xfc;" horiz-adv-x="1167" d="M158 381v696h92v-696q0 -102 44 -174t117.5 -108t159.5 -36q104 0 177 48.5t110 130.5t37 180v655h92v-1077h-92v158q-39 -68 -104 -115q-95 -68 -228 -68q-106 0 -198.5 47.5t-149.5 137.5t-57 221zM358 1311v153h143v-153h-143zM665 1311v153h144v-153h-144z" />
<glyph unicode="&#xfd;" horiz-adv-x="1083" d="M45 -348q29 -8 60.5 -11t54.5 -3q100 2 160.5 54t103.5 152l68 160l-435 1073h105l383 -946l387 946h106l-516 -1243q-23 -55 -66.5 -121.5t-114.5 -115t-175 -48.5q-25 0 -57.5 4.5t-63.5 14.5v84zM496 1311l188 307h125l-221 -307h-92z" />
<glyph unicode="&#xfe;" horiz-adv-x="1380" d="M180 -410v1936h92v-686q59 111 166 180q123 82 276.5 82t272.5 -74t188.5 -201t69.5 -288q0 -160 -69 -287q-70 -129 -189 -203t-272.5 -74t-276.5 82q-106 70 -166 181v-648h-92zM279 539q0 -135 57 -242t155.5 -168t223.5 -61t223 61t152 168q57 106 57 241.5 t-57.5 242t-151.5 167.5q-98 61 -223 61.5t-223 -61.5q-98 -59 -155.5 -165.5t-57.5 -243.5z" />
<glyph unicode="&#x2000;" horiz-adv-x="1052" />
<glyph unicode="&#x2001;" horiz-adv-x="2104" />
<glyph unicode="&#x2002;" horiz-adv-x="1052" />
<glyph unicode="&#x2003;" horiz-adv-x="2104" />
<glyph unicode="&#x2004;" horiz-adv-x="701" />
<glyph unicode="&#x2005;" horiz-adv-x="526" />
<glyph unicode="&#x2006;" horiz-adv-x="350" />
<glyph unicode="&#x2007;" horiz-adv-x="350" />
<glyph unicode="&#x2008;" horiz-adv-x="263" />
<glyph unicode="&#x2009;" horiz-adv-x="420" />
<glyph unicode="&#x200a;" horiz-adv-x="116" />
<glyph unicode="&#x2010;" horiz-adv-x="958" d="M152 494v92h655v-92h-655z" />
<glyph unicode="&#x2011;" horiz-adv-x="958" d="M152 494v92h655v-92h-655z" />
<glyph unicode="&#x2012;" horiz-adv-x="958" d="M152 494v92h655v-92h-655z" />
<glyph unicode="&#x2013;" horiz-adv-x="1327" d="M152 494v92h1024v-92h-1024z" />
<glyph unicode="&#x2014;" horiz-adv-x="2351" d="M152 494v92h2048v-92h-2048z" />
<glyph unicode="&#x202f;" horiz-adv-x="420" />
<glyph unicode="&#x205f;" horiz-adv-x="526" />
<glyph unicode="&#x25fc;" horiz-adv-x="1075" d="M0 0v1075h1075v-1075h-1075z" />
</font>
</defs>
</svg>
