<?xml version="1.0" standalone="no"?>
<!DOCTYPE svg PUBLIC "-//W3C//DTD SVG 1.1//EN" "http://www.w3.org/Graphics/SVG/1.1/DTD/svg11.dtd" >
<svg xmlns="http://www.w3.org/2000/svg" xmlns:xlink="http://www.w3.org/1999/xlink" version="1.1">
<metadata></metadata>
<defs>
<font id="plus_jakarta_sansbold" horiz-adv-x="1351" >
<font-face units-per-em="2048" ascent="1638" descent="-410" />
<missing-glyph horiz-adv-x="364" />
<glyph horiz-adv-x="0" />
<glyph unicode="&#xd;" horiz-adv-x="681" />
<glyph unicode=" "  horiz-adv-x="364" />
<glyph unicode="&#x09;" horiz-adv-x="364" />
<glyph unicode="&#xa0;" horiz-adv-x="364" />
<glyph unicode="!" horiz-adv-x="759" d="M244 0v287h272v-287h-272zM244 1526h272l-18 -1063h-236z" />
<glyph unicode="&#x22;" horiz-adv-x="1019" d="M197 1526h241l-32 -580h-175zM580 1526h241l-33 -580h-174z" />
<glyph unicode="#" horiz-adv-x="1873" d="M127 336v235h313l113 385h-246v236h311l97 334h272l-96 -334h338l94 334h272l-96 -334h246v-236h-313l-111 -385h246v-235h-314l-96 -336h-270l94 336h-336l-96 -336h-273l97 336h-246zM713 571h338l108 385h-336z" />
<glyph unicode="$" horiz-adv-x="1325" d="M80 399q39 -129 129 -223t213 -147q82 -35 172 -47v251q-66 20 -123 62q-104 74 -160 205zM137 1106q0 -150 90 -260.5t269 -165.5l98 -31v277l-16 6q-84 27 -125 76t-41 110q2 57 30.5 98t81.5 66q33 14 70 21v245q-119 -8 -213 -53q-115 -57 -180.5 -157.5 t-63.5 -231.5zM594 -18q47 -6 98 -7q39 0 76 5v-185h-174v187zM594 233v416l174 -57v-369q-29 -4 -61 -4q-60 0 -113 14zM594 926v377q25 4 53 4q66 -1 121 -19v-416zM594 1548v183h174v-191q-57 10 -121 10q-26 0 -53 -2zM768 -20q111 10 201 53q119 57 186.5 157.5 t67.5 231.5q-2 154 -92.5 258t-272.5 164l-90 28v-280l20 -6q80 -25 121 -70t39 -110q-2 -57 -30.5 -98.5t-81.5 -65.5q-29 -13 -68 -19v-243zM768 1288q47 -14 88 -43q90 -61 135 -178l230 102q-41 113 -123 199t-199 135q-61 25 -131 37v-252z" />
<glyph unicode="%" horiz-adv-x="2142" d="M150 1151q0 111 53 201q55 90 145 145q90 53 205 53q113 0 203 -53q90 -55 143 -145t53 -201t-53 -201t-143 -143t-203 -55q-115 2 -205 55t-145 143q-53 90 -53 201zM313 0l1237 1526h287l-1237 -1526h-287zM365 1151q0 -47 22 -92q23 -43 64 -72t100 -29q61 0 102 29 q43 29 64 70q20 45 20 94q0 51 -20.5 94t-63.5 72q-41 29 -102 29q-59 0 -100 -29q-41 -27 -63.5 -72t-22.5 -94zM1190 375q0 113 53 203q55 90 145.5 143t202.5 53q115 0 205 -53t143.5 -143.5t53.5 -202.5q0 -111 -54 -201q-53 -92 -143 -145.5t-205 -53.5 q-113 0 -203 53.5t-145 145.5q-53 90 -53 201zM1405 375q0 -47 22.5 -92t63.5 -74t100 -27q59 -2 100.5 27t65.5 74q20 45 21 92q0 51 -20.5 94t-65.5 72q-41 29 -100.5 28.5t-100.5 -29t-63.5 -73.5t-22.5 -92z" />
<glyph unicode="&#x26;" horiz-adv-x="1624" d="M156 389q0 102 36.5 180t94 131.5t110.5 90.5q20 14 39 24q-18 20 -35 45q-47 61 -77 133q-31 74 -31 164q-2 117 55.5 207t151.5 139t202 47q113 0 203 -49t148 -135q53 -86 53 -197q0 -113 -53.5 -190.5t-122.5 -134.5q-61 -45 -117 -78l207 -231l147 213h281 l-258 -402l309 -346h-321l-134 147q-27 -29 -57 -53q-66 -53 -151.5 -86t-204.5 -33q-141 0 -248 52q-104 51 -165.5 145t-61.5 217zM438 393q0 -90 53.5 -139t149.5 -49q57 0 102 20.5t80 48.5q31 27 54 56l-281 307q-18 -10 -39 -27q-49 -37 -84 -90t-35 -127zM547 1169 q-2 -51 22.5 -100t57.5 -90q16 -21 32 -41q45 25 82 49q53 37 86 82t33 102q0 70 -45 115t-110.5 45t-110.5 -45t-47 -117z" />
<glyph unicode="'" horiz-adv-x="636" d="M197 1526h241l-32 -580h-175z" />
<glyph unicode="(" horiz-adv-x="776" d="M131 590q0 266 86 501.5t260 434.5h225q-147 -219 -219.5 -453.5t-72.5 -482.5t73.5 -483.5t218.5 -454.5h-225q-172 201 -259 436.5t-87 501.5z" />
<glyph unicode=")" horiz-adv-x="776" d="M76 -348q145 219 218 454.5t73 483.5t-73 482.5t-218 453.5h225q172 -199 258 -434.5t86 -501.5t-86 -501.5t-258 -436.5h-225z" />
<glyph unicode="*" horiz-adv-x="1105" d="M152 1149l63 192l236 -77v262h204v-262l236 77l63 -192l-235 -80l149 -203l-166 -121l-149 203l-152 -203l-163 121l149 203z" />
<glyph unicode="+" d="M164 397v232h397v395h232v-395h395v-232h-395v-397h-232v397h-397z" />
<glyph unicode="," horiz-adv-x="731" d="M211 -186q68 18 108.5 63t53.5 123h-121v287h270v-176q-2 -180 -79.5 -288.5t-231.5 -141.5v133z" />
<glyph unicode="-" horiz-adv-x="1228" d="M180 438v236h871v-236h-871z" />
<glyph unicode="." horiz-adv-x="774" d="M252 0v287h270v-287h-270z" />
<glyph unicode="/" horiz-adv-x="1036" d="M33 -246l680 1690h293l-680 -1690h-293z" />
<glyph unicode="0" horiz-adv-x="1449" d="M115 764q0 238 75.5 414t213 274t319.5 98q186 0 321 -98q135 -100 216 -276q78 -176 77 -412q2 -236 -75.5 -412t-214.5 -278q-138 -99 -322 -99q-182 0 -319 99q-135 98 -213 276t-78 414zM393 764q0 -166 41 -285t115 -184.5t178 -65.5t178 65.5t115 184.5t39 285 q2 166 -39 284.5t-115 184.5q-74 63 -182 63q-102 0 -176 -63q-72 -66 -113 -184.5t-41 -284.5z" />
<glyph unicode="1" horiz-adv-x="825" d="M59 1288v238h574v-1526h-279v1288h-295z" />
<glyph unicode="2" horiz-adv-x="1222" d="M84 1155q25 119 100 209q74 90 184.5 139t233.5 47q147 0 258 -53t176 -149q61 -96 62 -226q0 -82 -31 -161.5t-92.5 -161.5t-159.5 -187l-358 -376h661v-236h-1024v211l414 432q123 127 188.5 205t94.5 133q27 55 26 113q2 96 -59.5 151t-155.5 55q-98 2 -170 -55 t-104 -166z" />
<glyph unicode="3" horiz-adv-x="1251" d="M66 354l243 86q37 -104 113 -157.5t178 -55.5q80 0 141 31q61 33 96 90.5t35 137t-32.5 137t-96.5 86.5q-61 31 -145 30q-41 0 -82 -8t-74 -24l-63 133l395 450h-622v236h935v-219l-313 -367q88 -12 160 -53q102 -57 159.5 -157.5t57.5 -235.5q0 -145 -71.5 -264 t-196.5 -187t-283 -68q-125 0 -235.5 45.5t-192.5 131.5q-78 86 -106 202z" />
<glyph unicode="4" horiz-adv-x="1339" d="M74 336v233l684 957h291v-957h223v-233h-223v-336h-275v336h-700zM229 569l50 -100l69 100h-119zM774 1182l72 102l-72 23v-125z" />
<glyph unicode="5" horiz-adv-x="1259" d="M82 346l242 86q35 -104 112.5 -153.5t171.5 -51.5q76 2 137.5 35t94 94.5t32.5 139.5q0 80 -32 139q-33 61 -95 94q-59 33 -137 33q-80 0 -145.5 -35t-91.5 -100l-228 51l121 848h832v-236h-633l-47 -350q18 12 39 21q82 39 200 38q152 0 262.5 -65.5t174.5 -177.5 q61 -113 61 -260.5t-71.5 -266t-194.5 -186.5t-279 -68q-121 0 -231.5 45.5t-188 127t-106.5 198.5z" />
<glyph unicode="6" horiz-adv-x="1232" d="M88 481q-2 74 14.5 147.5t57.5 157.5t123 187l426 553h331l-436 -561q29 6 62 6q139 0 247 -64q111 -63 172.5 -173.5t61.5 -246.5q0 -147 -67.5 -261.5t-186.5 -184.5q-119 -66 -274.5 -66t-274.5 65.5t-188 180.5q-68 115 -68 260zM367 483q2 -74 34.5 -133t89.5 -92 t127 -31q70 -2 127.5 31t90 92.5t32.5 132.5q0 78 -32.5 135.5t-90.5 88.5q-55 33 -127 32q-70 0 -126 -32q-57 -31 -90 -88.5t-35 -135.5z" />
<glyph unicode="7" horiz-adv-x="1144" d="M63 1290v236h1012v-236l-620 -1290h-308l635 1290h-719z" />
<glyph unicode="8" horiz-adv-x="1294" d="M104 440q0 150 80 252q55 72 146 119q-59 37 -101 102q-61 100 -63 222q0 121 61.5 215t170 147t249.5 53q139 0 245.5 -53t172.5 -147q61 -94 61 -215q0 -123 -61 -222q-41 -63 -100 -102q90 -45 145 -119q80 -102 80 -254q-2 -127 -67.5 -233.5t-188.5 -168t-287 -61.5 t-286.5 61.5t-188.5 170.5q-66 106 -68 233zM385 448.5q0 -71.5 33 -125t90 -82t139 -30.5q80 2 139.5 30.5t92 82t32.5 125t-32.5 125t-92 82t-139.5 28.5q-82 0 -139 -28.5t-90 -82t-33 -125zM444 1118q2 -57 27 -102t70 -70q45 -26 106 -26q59 0 105 26q47 25 71.5 70 t24.5 102.5t-24.5 102.5t-71.5 69q-45 25 -105 25q-61 0 -106 -24.5t-70 -69.5t-27 -103z" />
<glyph unicode="9" horiz-adv-x="1232" d="M86 1040q0 147 69.5 262t188.5 180.5t272 67.5q156 0 275 -65q117 -63 186.5 -178t69.5 -263q0 -74 -16.5 -147.5t-57.5 -155.5t-121 -188l-426 -553h-333l434 559q-29 -4 -60 -4q-139 0 -248 63q-111 61 -172 172t-61 250zM365 1042q0 -76 32.5 -133t91.5 -90 q57 -33 127 -31q72 -2 129.5 31t88.5 90q33 57 32 133q-2 78 -34.5 135.5t-88 90t-127.5 32.5q-70 0 -127 -32q-59 -33 -91.5 -90.5t-32.5 -135.5z" />
<glyph unicode=":" horiz-adv-x="774" d="M252 0v287h270v-287h-270zM252 827v287h270v-287h-270z" />
<glyph unicode=";" horiz-adv-x="815" d="M252 -188q68 16 111 63t55 125h-125v287h270v-176q-2 -180 -79.5 -288.5t-231.5 -141.5v131zM293 827v287h270v-287h-270z" />
<glyph unicode="&#x3c;" d="M201 426v262l940 402v-275l-611 -258l611 -258v-272z" />
<glyph unicode="=" d="M215 121v229h922v-229h-922zM215 616v232h922v-232h-922z" />
<glyph unicode="&#x3e;" d="M213 27v272l608 258l-608 258v275l938 -402v-262z" />
<glyph unicode="?" horiz-adv-x="1193" d="M113 1167q18 115 83.5 201t168 135t229.5 47q147 0 253.5 -59t162 -153.5t55.5 -198.5q0 -82 -33 -145.5t-82 -117t-98 -102.5q-66 -61 -115 -128.5t-49 -158.5v-24h-256v41q-2 90 26.5 159.5t71.5 123t91 100.5q63 63 112 116.5t51 129.5q0 45 -22 84q-20 39 -65.5 61 t-108.5 22q-88 0 -149.5 -53t-76.5 -141zM426 0v287h272v-287h-272z" />
<glyph unicode="@" horiz-adv-x="1898" d="M102 430q0 193 65.5 353.5t186.5 276.5t283 180.5t352 64.5q193 0 350.5 -65.5t271 -182.5t175 -276.5t61.5 -348.5q0 -133 -46 -230.5t-127 -149.5t-189 -52q-70 0 -138.5 27.5t-113.5 85.5l-16 20q-20 -35 -54 -59q-47 -37 -109.5 -55.5t-129.5 -18.5 q-119 0 -216.5 56.5t-155.5 155.5t-58 224q0 123 57 225.5t156.5 164t224.5 61.5q100 -2 180 -39q55 -27 86 -66v84h186v-518q0 -74 29 -112.5t78 -38.5q68 0 100.5 56t32.5 187q0 141 -42 261t-122 209t-197.5 139.5t-271.5 50.5q-150 0 -271.5 -50.5t-210.5 -140.5 t-137 -210.5t-48 -266.5q0 -147 50 -271t140 -214t212 -139.5t265 -49.5q96 0 185.5 23.5t162.5 71.5l95 -181q-193 -118 -443 -118q-193 0 -354.5 63.5t-282.5 180t-186.5 277.5t-65.5 355zM707 444q0 -70 31.5 -126t85.5 -88.5t122 -32.5q70 0 123 32.5t83 89t30 123.5 q0 104 -65.5 174t-168.5 72q-68 0 -123 -30.5t-86.5 -86t-31.5 -127.5z" />
<glyph unicode="A" horiz-adv-x="1458" d="M23 0l526 1526h360l527 -1526h-303l-109 328h-590l-110 -328h-301zM514 573h430l-215 644z" />
<glyph unicode="B" horiz-adv-x="1415" d="M147 0v1526h644q152 0 259 -52.5t165.5 -147.5t58.5 -230q0 -104 -57 -195q-27 -43 -66 -78q37 -23 66 -51q66 -63 92 -141t26 -164q0 -219 -144 -343t-400 -124h-644zM426 246h393q109 0 173.5 60.5t64.5 160.5t-64.5 161.5t-173.5 61.5h-393v-444zM426 934h379 q86 0 137 50t51 130t-51 127t-137 47h-379v-354z" />
<glyph unicode="C" horiz-adv-x="1585" d="M102 764q0 170 56.5 314.5t160 250t242.5 163.5t303 58t294 -55t220 -146.5t129 -199.5l-250 -117q-43 115 -145 189.5t-248 74.5q-143 0 -252.5 -67.5t-170 -186t-60.5 -278.5t60.5 -279.5t170 -187.5t252.5 -68q145 0 247.5 75t145.5 190l250 -117q-39 -109 -129 -200 t-220 -146.5t-294 -55.5t-302 59.5t-241.5 166t-161 250t-57.5 313.5z" />
<glyph unicode="D" horiz-adv-x="1515" d="M147 0v1526h498q242 0 421 -97.5t277.5 -268.5t98.5 -396q0 -223 -98.5 -396t-277.5 -270.5t-421 -97.5h-498zM426 246h225q156 0 269.5 64.5t177 180t63.5 273.5q0 160 -63.5 274.5t-177 178t-269.5 63.5h-225v-1034z" />
<glyph unicode="E" horiz-adv-x="1218" d="M147 0v1526h1014v-246h-735v-391h694v-246h-694v-397h735v-246h-1014z" />
<glyph unicode="F" horiz-adv-x="1200" d="M147 0v1526h1018v-246h-739v-422h647v-246h-647v-612h-279z" />
<glyph unicode="G" horiz-adv-x="1654" d="M102 764q0 170 56.5 314.5t160 250t242.5 163.5t303 58t294 -55t220 -146.5t129 -199.5l-247 -119q-43 119 -145.5 192.5t-250.5 73.5q-143 0 -252.5 -67.5t-170 -186t-60.5 -278.5t62.5 -279.5t173 -187.5t253.5 -68q117 0 215.5 46.5t158 131.5t59.5 201v6h-439v236 h717v-154q0 -176 -59.5 -311t-160.5 -226t-228.5 -137.5t-262.5 -46.5q-164 0 -303 59.5t-243.5 166t-163 250t-58.5 313.5z" />
<glyph unicode="H" horiz-adv-x="1501" d="M147 0v1526h279v-666h649v666h281v-1526h-281v614h-649v-614h-279z" />
<glyph unicode="I" horiz-adv-x="571" d="M147 0v1526h279v-1526h-279z" />
<glyph unicode="J" horiz-adv-x="804" d="M80 0v256h88q98 0 156.5 56.5t58.5 150.5v1063h281v-1053q0 -141 -60.5 -247.5t-172.5 -166t-263 -59.5h-88z" />
<glyph unicode="K" horiz-adv-x="1390" d="M147 0v1526h279v-678l573 678h351l-529 -627l547 -899h-328l-409 672l-205 -244v-428h-279z" />
<glyph unicode="L" horiz-adv-x="1112" d="M147 0v1526h279v-1280h653v-246h-932z" />
<glyph unicode="M" horiz-adv-x="1828" d="M147 0v1526h267l508 -688l495 688h266v-1526h-280v1036l-471 -626h-33l-473 647v-1057h-279z" />
<glyph unicode="N" horiz-adv-x="1517" d="M147 0v1526h218l727 -979v979h278v-1526h-219l-725 997v-997h-279z" />
<glyph unicode="O" horiz-adv-x="1798" d="M102 764q0 170 59.5 313.5t168 250t254 164.5t315.5 58t315.5 -59t254 -164.5t169 -249t60.5 -313.5q0 -168 -61.5 -312.5t-170 -251t-253 -166t-314.5 -59.5q-168 0 -313.5 59.5t-254 166t-169 251t-60.5 312.5zM381 764q0 -115 39 -213t109.5 -170t164.5 -112t205 -40 q113 0 207 40t164.5 112t108.5 170t38 213t-38 212t-108.5 170t-164.5 111.5t-207 38.5q-111 0 -205 -38.5t-164.5 -111.5t-109.5 -170t-39 -212z" />
<glyph unicode="P" horiz-adv-x="1327" d="M147 0v1526h570q156 0 275.5 -56.5t187 -164t67.5 -261.5q0 -152 -68.5 -259t-187.5 -164.5t-274 -57.5h-291v-563h-279zM426 809h295q76 0 131 29.5t86 83t31 122.5q0 72 -31 124.5t-86 82t-131 29.5h-295v-471z" />
<glyph unicode="Q" horiz-adv-x="1798" d="M102 764q0 170 59.5 313.5t168 250t254 164.5t315.5 58t315.5 -59t254 -164.5t169 -249t60.5 -313.5q0 -168 -61.5 -312.5t-170.5 -250.5q-47 -47 -100 -84l182 -301h-297l-114 192q-113 -33 -238 -33q-168 0 -313.5 59.5t-254 166t-169 251t-60.5 312.5zM381 764 q0 -115 39 -213t109.5 -170t164.5 -112t205 -40q51 0 100 9l-223 372h291l162 -268q20 18 41 39q70 72 108.5 170t38.5 213t-38 212t-108.5 170t-164.5 111.5t-207 38.5q-111 0 -205 -38.5t-164.5 -111.5t-109.5 -170t-39 -212z" />
<glyph unicode="R" horiz-adv-x="1353" d="M147 0v1526h568q156 0 275.5 -56.5t187 -164t67.5 -261.5q0 -158 -74.5 -268t-201.5 -164l350 -612h-315l-316 563h-262v-563h-279zM426 809h293q76 0 131 29.5t86 83t31 122.5q0 72 -31 124.5t-86 82t-131 29.5h-293v-471z" />
<glyph unicode="S" horiz-adv-x="1325" d="M80 399l231 101q55 -131 159.5 -206t236.5 -75q74 0 128 23.5t83.5 64.5t29.5 99q0 68 -40 111.5t-120 68.5l-292 94q-178 55 -268.5 165.5t-90.5 260.5q0 131 64.5 231.5t180.5 156.5t265 56q137 0 252 -48t198 -133t124 -200l-230 -102q-45 115 -135 177.5t-209 62.5 q-70 0 -123 -23.5t-82.5 -65.5t-29.5 -100q0 -63 41 -111.5t125 -74.5l280 -88q182 -59 273.5 -164t91.5 -258q0 -131 -68 -231.5t-186.5 -158t-276.5 -57.5q-145 0 -269 53.5t-213 148.5t-130 222z" />
<glyph unicode="T" horiz-adv-x="1110" d="M23 1280v246h1064v-246h-389v-1280h-280v1280h-395z" />
<glyph unicode="U" horiz-adv-x="1470" d="M131 545v981h279v-967q0 -94 42 -170t115.5 -118t167.5 -42q96 0 169 42t115 118t42 170v967h278v-981q0 -164 -77.5 -293t-214 -203t-312.5 -74t-312 74t-214 203t-78 293z" />
<glyph unicode="V" horiz-adv-x="1427" d="M23 1526h303l387 -1174l389 1174h303l-531 -1526h-319z" />
<glyph unicode="W" horiz-adv-x="2088" d="M23 1526h299l282 -1147l297 1147h289l295 -1147l282 1147h299l-409 -1526h-320l-293 1098l-292 -1098h-320z" />
<glyph unicode="X" horiz-adv-x="1353" d="M23 0l499 768l-495 758h319l332 -508l330 508h319l-493 -758l497 -768h-319l-334 516l-336 -516h-319z" />
<glyph unicode="Y" d="M23 1526h317l336 -568l336 568h317l-512 -848v-678h-280v676z" />
<glyph unicode="Z" horiz-adv-x="1169" d="M29 0v219l739 1061h-696v246h1050v-219l-737 -1061h758v-246h-1114z" />
<glyph unicode="[" horiz-adv-x="851" d="M215 -348v1874h533v-236h-263v-1403h263v-235h-533z" />
<glyph unicode="\" horiz-adv-x="1036" d="M33 1444h293l680 -1690h-293z" />
<glyph unicode="]" horiz-adv-x="851" d="M104 -113h263v1403h-263v236h533v-1874h-533v235z" />
<glyph unicode="^" d="M201 860l348 666h258l346 -666h-295l-180 344l-180 -344h-297z" />
<glyph unicode="_" horiz-adv-x="1357" d="M180 0h998v-236h-998v236z" />
<glyph unicode="`" horiz-adv-x="780" d="M252 1665h348l133 -354h-264z" />
<glyph unicode="a" horiz-adv-x="1187" d="M80 295q0 92 41 164.5t127 122t217 69.5l332 54v36q0 72 -56.5 120t-148.5 48q-86 0 -152.5 -46t-97.5 -122l-219 107q33 88 103.5 152.5t166.5 101.5t209 37q137 0 241.5 -50.5t163 -139.5t58.5 -208v-741h-254v117q-20 -23 -45 -43q-59 -49 -135 -74t-168 -25 q-117 0 -203 39t-133 112t-47 169zM358 305q0 -57 44 -91t110 -34q84 0 148.5 36t100.5 99.5t36 139.5v45l-281 -47q-80 -14 -119 -51t-39 -97z" />
<glyph unicode="b" horiz-adv-x="1376" d="M125 0v1550h268v-549q47 55 115 89q98 49 227 49q158 0 285 -78t201.5 -209t74.5 -295q0 -162 -73.5 -295t-200.5 -210t-289 -77q-119 0 -221 50q-80 39 -135 102v-127h-252zM393 557q0 -98 40 -174t110.5 -119t158.5 -43q92 0 164 43t112 119t40 174t-40 173t-111.5 119 t-164.5 44q-88 0 -158.5 -43t-110.5 -120t-40 -173z" />
<glyph unicode="c" horiz-adv-x="1245" d="M80 559q0 166 75.5 297t208 207t298.5 76q119 0 221 -42t177 -115t107 -173l-235 -102q-31 84 -103.5 135t-166.5 51q-88 0 -157 -43t-108 -119t-39 -174t39 -174t107.5 -119t157.5 -43q96 0 167.5 51.5t102.5 137.5l235 -107q-33 -94 -106.5 -169t-175.5 -117t-223 -42 q-166 0 -298.5 77t-208 209t-75.5 298z" />
<glyph unicode="d" horiz-adv-x="1376" d="M80 557q0 164 73.5 295t201.5 209t286 78q129 0 227 -49q68 -35 115 -89v549h268v-1550h-254v123q-51 -61 -131 -98q-102 -50 -223 -50q-162 0 -289 77t-200.5 210t-73.5 295zM358 557q0 -98 40 -174t112 -119t162 -43q92 0 161.5 43t109.5 119t40 174q0 96 -40 173 t-109.5 120t-161.5 43q-90 0 -162 -44t-112 -119t-40 -173z" />
<glyph unicode="e" horiz-adv-x="1253" d="M80 559q0 168 72.5 298t198.5 206t282 76q131 0 230.5 -43t169 -119t106.5 -173t37 -210q0 -29 -3.5 -59.5t-11.5 -53.5h-803q6 -55 27 -104q37 -78 107.5 -122t163 -44t157 39t100.5 104l217 -106q-33 -80 -102.5 -141.5t-164.5 -96.5t-210 -35q-172 0 -301 78 t-200.5 211t-71.5 295zM365 686h524q-4 39 -17 72q-29 74 -90 117t-149 43q-84 0 -150 -41t-98 -123q-12 -31 -20 -68z" />
<glyph unicode="f" horiz-adv-x="831" d="M57 874v240h197v37q0 127 52 216t146.5 136t223.5 47q25 0 54.5 -3t49.5 -7v-231q-20 4 -37.5 5t-31.5 1q-90 0 -139.5 -40t-49.5 -124v-37h248v-240h-248v-874h-268v874h-197z" />
<glyph unicode="g" horiz-adv-x="1335" d="M80 594q0 158 69.5 280.5t190.5 193.5t274 71q127 0 222 -54q70 -39 120 -100v129h254v-1059q0 -145 -70.5 -259.5t-192 -180.5t-281.5 -66q-125 0 -231.5 41t-183.5 114t-112 171l250 94q25 -78 97.5 -126t179.5 -48q82 0 144 31t97 89t35 140v121q-45 -49 -102 -80 q-96 -51 -219 -51q-156 0 -279 71.5t-192.5 196.5t-69.5 281zM358 592q0 -86 38 -153.5t104.5 -106.5t152.5 -39t150.5 38t101.5 105.5t37 155.5q0 86 -38 154.5t-102.5 107.5t-148.5 39t-151.5 -39t-105.5 -107.5t-38 -154.5z" />
<glyph unicode="h" horiz-adv-x="1214" d="M125 0v1550h268v-546q37 49 90 81q90 53 209 54q123 0 218.5 -53.5t148.5 -148.5t53 -220v-717h-268v653q0 74 -29 127.5t-79 83t-118 29.5q-66 0 -116.5 -29.5t-79.5 -83t-29 -127.5v-653h-268z" />
<glyph unicode="i" horiz-adv-x="516" d="M125 0v1114h268v-1114h-268zM125 1239v287h268v-287h-268z" />
<glyph unicode="j" horiz-adv-x="516" d="M-131 -211q37 -6 74 -6q86 0 134 40t48 122v1169h268v-1169q0 -127 -51 -216t-146.5 -135.5t-224.5 -46.5q-27 0 -55.5 2t-46.5 7v233zM125 1239v287h268v-287h-268z" />
<glyph unicode="k" horiz-adv-x="1181" d="M125 0v1550h268v-878l422 442h334l-412 -448l420 -666h-307l-313 496l-144 -156v-340h-268z" />
<glyph unicode="l" horiz-adv-x="516" d="M125 0v1550h268v-1550h-268z" />
<glyph unicode="m" horiz-adv-x="1892" d="M125 0v1114h252v-139q35 66 94 104q92 59 217 60q137 0 242 -72q66 -45 102 -109q45 70 111 115q102 66 235 66q119 0 212 -53.5t146.5 -148.5t53.5 -220v-717h-268v653q0 74 -27 127.5t-74 83t-114 29.5q-63 0 -112.5 -29.5t-76 -83t-26.5 -127.5v-653h-269v653 q0 74 -26.5 127.5t-74.5 83t-114 29.5q-63 0 -112.5 -29.5t-76 -83t-26.5 -127.5v-653h-268z" />
<glyph unicode="n" horiz-adv-x="1214" d="M125 0v1114h252v-137q37 68 106 108q90 53 209 54q123 0 218.5 -53.5t148.5 -148.5t53 -220v-717h-268v653q0 74 -29 127.5t-79 83t-118 29.5q-66 0 -116.5 -29.5t-79.5 -83t-29 -127.5v-653h-268z" />
<glyph unicode="o" horiz-adv-x="1335" d="M80 557q0 168 79 299t212 207t299 76q164 0 297 -76t211.5 -206t78.5 -300q0 -168 -79.5 -299t-212.5 -207t-295 -76q-164 0 -298 76t-213 207t-79 299zM358 557q0 -96 40 -173t110 -120t162 -43q90 0 158.5 43t108.5 120t40 173q0 98 -40 173t-108.5 119t-158.5 44 q-92 0 -162 -44t-110 -119t-40 -173z" />
<glyph unicode="p" horiz-adv-x="1376" d="M125 -410v1524h252v-131q53 66 131 107q98 49 227 49q158 0 285 -78t201.5 -209t74.5 -295q0 -162 -73.5 -295t-200.5 -210t-289 -77q-119 0 -221 50q-68 33 -119 84v-519h-268zM393 557q0 -98 40 -174t110.5 -119t158.5 -43q92 0 164 43t112 119t40 174t-40 173 t-111.5 119t-164.5 44q-88 0 -158.5 -43t-110.5 -120t-40 -173z" />
<glyph unicode="q" horiz-adv-x="1376" d="M80 557q0 164 73.5 295t201.5 209t286 78q129 0 227 -49q78 -42 129 -105v129h254v-1524h-268v516q-49 -49 -117 -81q-102 -49 -223 -50q-162 0 -289 77t-200.5 210t-73.5 295zM358 557q0 -98 40 -174t112 -119t162 -43q92 0 161.5 43t109.5 119t40 174q0 96 -40 173 t-109.5 120t-161.5 43q-90 0 -162 -44t-112 -119t-40 -173z" />
<glyph unicode="r" horiz-adv-x="765" d="M125 0v1114h252v-158q37 82 102 121q82 49 199 49h65v-237h-96q-115 0 -184.5 -70.5t-69.5 -197.5v-621h-268z" />
<glyph unicode="s" horiz-adv-x="1052" d="M57 291l201 96q43 -94 120 -147.5t171 -53.5q74 0 117 33t43 86q0 33 -17.5 54.5t-47.5 37t-64 25.5l-183 51q-141 41 -213.5 125t-72.5 199q0 102 52 179t145 120t214 43q158 0 279 -76t172 -213l-205 -96q-29 76 -96.5 121t-151.5 45q-68 0 -106.5 -31t-38.5 -80 q0 -31 16.5 -53.5t46 -36.5t68.5 -27l178 -53q137 -41 212 -123t75 -201q0 -100 -53.5 -177t-147.5 -120t-221 -43q-178 0 -310.5 85t-181.5 231z" />
<glyph unicode="t" horiz-adv-x="845" d="M45 874v240h21q82 0 127 43t45 125v86h268v-254h256v-240h-256v-477q0 -55 19.5 -94t61.5 -59.5t107 -20.5q14 0 34 2t38 4v-229q-29 -4 -65.5 -8t-67.5 -4q-188 0 -291.5 103.5t-103.5 291.5v491h-193z" />
<glyph unicode="u" horiz-adv-x="1214" d="M102 432v682h269v-659q0 -70 27.5 -122t79.5 -82t118 -30t117 30t79.5 83t28.5 127v653h269v-1114h-254v133q-41 -68 -107 -106q-90 -52 -207 -52q-129 0 -224 57.5t-145.5 160t-50.5 239.5z" />
<glyph unicode="v" horiz-adv-x="1159" d="M23 1114h292l265 -727l264 727h293l-439 -1114h-237z" />
<glyph unicode="w" horiz-adv-x="1808" d="M23 1114h282l234 -702l247 702h238l246 -700l233 700h283l-383 -1114h-240l-258 752l-262 -752h-237z" />
<glyph unicode="x" horiz-adv-x="1142" d="M23 1114h315l235 -346l234 346h313l-389 -555l387 -559h-313l-232 346l-233 -346h-315l389 559z" />
<glyph unicode="y" horiz-adv-x="1200" d="M23 1114h288l289 -768l287 768h291l-486 -1227q-43 -106 -104.5 -182t-142.5 -116t-185 -40q-45 0 -88 7.5t-78 25.5v223q27 -6 65 -12t70 -6q92 0 134.5 42t74.5 112l25 59z" />
<glyph unicode="z" horiz-adv-x="985" d="M29 0v217l567 657h-539v240h897v-219l-557 -657h561v-238h-929z" />
<glyph unicode="{" horiz-adv-x="815" d="M84 461v235h63q53 0 80 33t27 88v381q0 154 95 241t267 87h95v-236h-95q-43 0 -67.5 -25.5t-22.5 -72.5v-352q0 -82 -31.5 -148.5t-91.5 -109.5q59 -35 91 -100.5t32 -145.5v-348q-2 -45 22.5 -73t67.5 -28h95v-235h-95q-172 0 -267 87t-95 243v358q0 57 -26.5 89 t-80.5 32h-63z" />
<glyph unicode="|" horiz-adv-x="808" d="M268 -389v2120h273v-2120h-273z" />
<glyph unicode="}" horiz-adv-x="815" d="M104 -113h95q43 0 67.5 28t24.5 73v348q-2 80 29.5 145.5t91.5 100.5q-59 43 -91 109.5t-30 148.5v352q0 47 -24.5 72.5t-67.5 25.5h-95v236h95q174 0 268 -87t94 -241v-381q0 -55 27.5 -88t79.5 -33h63v-235h-63q-51 0 -79 -32t-28 -89v-358q0 -156 -94 -243t-268 -87 h-95v235z" />
<glyph unicode="~" d="M180 399q10 170 90 259.5t215 89.5q70 0 119 -19.5t87 -47.5t74 -47.5t77 -19.5q45 0 73.5 29t40.5 96h218q-12 -172 -87.5 -261t-212.5 -89q-70 0 -118.5 20.5t-86.5 47t-74 47t-79 20.5q-47 0 -77.5 -31.5t-39.5 -93.5h-219z" />
<glyph unicode="&#xa1;" horiz-adv-x="759" d="M244 -412l18 1063h236l18 -1063h-272zM244 827v287h272v-287h-272z" />
<glyph unicode="&#xa2;" horiz-adv-x="1245" d="M80 766q0 -168 76 -299q78 -131 209 -209q93 -54 204 -70v254q-37 10 -65 29q-70 41 -107 119q-39 78 -39 174q0 98 39 174q37 76 107 119q31 18 65 28v254q-111 -16 -204 -69q-131 -76 -209 -207q-76 -131 -76 -297zM569 0v188q45 -6 93 -6q43 0 81 6v-188h-174z M569 442v643q43 14 93 15q42 0 81 -10v-652q-39 -10 -81 -10q-49 0 -93 14zM569 1339v187h174v-187q-41 6 -81 7q-48 -1 -93 -7zM743 188q74 10 142 37q102 43 176 117t106 168l-235 106q-31 -86 -103 -137q-39 -29 -86 -41v-250zM743 1090q43 -12 84 -41q74 -51 105 -136 l235 105q-33 96 -106.5 170t-177.5 115q-66 24 -140 36v-249z" />
<glyph unicode="&#xa3;" horiz-adv-x="1357" d="M74 0v236h205v454h-205v172h205v191q0 152 61 262t180 172q115 61 273 63q125 0 231 -47q106 -45 176 -131q72 -86 86 -203l-246 -75q-12 102 -81.5 155.5t-165.5 50.5q-113 2 -174.5 -63.5t-61.5 -183.5v-191h377v-172h-377v-454h662v-236h-1145z" />
<glyph unicode="&#xa4;" horiz-adv-x="1216" d="M80 178l162 160q-29 47 -45.5 100.5t-14.5 112.5q-2 59 14.5 112.5t45.5 100.5l-162 162l156 155l161 -161q47 29 100.5 43t110.5 14q59 0 112.5 -14.5t100.5 -42.5l162 161l156 -155l-162 -162q29 -47 43 -100.5t14 -112.5t-14 -112.5t-43 -100.5l162 -160l-156 -155 l-162 159q-47 -27 -100 -43t-113 -14q-55 0 -108.5 14.5t-102.5 42.5l-161 -159zM420 551q2 -51 26.5 -94t67.5 -68t94 -27q55 2 96 27t66 68t27 94q-2 55 -27 96t-65.5 65.5t-96.5 26.5q-51 -2 -94 -26.5t-67.5 -65.5t-26.5 -96z" />
<glyph unicode="&#xa5;" d="M23 1526h317l336 -568l336 568h317l-461 -764h238v-170h-289v-123h289v-172h-289v-297h-280v297h-291v172h291v123h-291v170h239z" />
<glyph unicode="&#xa6;" horiz-adv-x="808" d="M268 -389v856h273v-856h-273zM268 877v854h273v-854h-273z" />
<glyph unicode="&#xa7;" horiz-adv-x="1093" d="M57 131l203 96q47 -96 129 -153.5t182 -57.5q80 0 129.5 35t47.5 96q0 35 -19 60q-18 27 -51 43t-72 26l-192 56q-147 41 -225 131t-76 207q0 106 55 186q31 45 76 80q68 -51 170 -80l26 -8q-10 -8 -18 -17q-43 -45 -43 -114q0 -45 20 -78q23 -33 60 -57.5t88 -36.5 l141 -41q-45 -35 -117 -35v-143q133 0 232 45q43 20 78 45q31 -23 53 -49q78 -88 78 -211q0 -104 -55.5 -184.5t-153.5 -125.5t-232 -45q-186 -2 -323 88.5t-191 241.5zM113 1194q-2 -117 75 -207q25 -29 56 -51q35 27 75 45q98 45 224 45l-2 -149q-61 0 -101 -29l138 -39 q57 -14 94 -39t57.5 -57.5t18.5 -77.5q2 -78 -48 -123l-12 -8l23 -6q102 -31 170 -82q45 35 75 80q55 80 56 184q0 123 -78 211t-223 131l-191 55q-37 12 -69.5 26.5t-53 39t-18.5 63.5q0 55 43 88t119 35q88 2 161.5 -47t104.5 -129l205 96q-55 145 -182.5 223t-286.5 78 q-125 0 -223.5 -45t-151.5 -125q-55 -80 -55 -186z" />
<glyph unicode="&#xa8;" horiz-adv-x="1093" d="M252 1311v282h280v-282h-280zM696 1311v282h283v-282h-283z" />
<glyph unicode="&#xa9;" horiz-adv-x="1921" d="M172 766q0 164 61.5 305t167.5 250q109 109 252.5 170t309.5 59q160 2 303 -59t251.5 -167.5t170 -250t61.5 -307.5t-61.5 -307.5t-168 -252t-250 -170t-307 -61.5t-307 61.5t-252 170t-170 252t-61.5 307.5zM362 766q2 -127 47.5 -235.5t127 -190.5t190.5 -127t236 -47 q127 2 233.5 47t188 127t126.5 190.5t48 235.5q-2 123 -47.5 231.5t-127 190.5t-188 127t-233.5 47q-127 -2 -236 -47t-190.5 -127t-126.5 -188.5t-48 -233.5zM545 764q0 125 57 221t152 152q96 55 217 55q94 0 167.5 -28.5t125.5 -82.5q51 -51 71 -116l-184 -72 q-20 49 -65.5 82t-114.5 35q-98 2 -159.5 -68t-61.5 -178.5t61 -178t160 -67.5q66 0 112.5 33t67.5 82l184 -72q-20 -66 -71.5 -117t-125 -79.5t-167.5 -30.5q-119 -2 -217.5 55t-151.5 156q-57 98 -57 219z" />
<glyph unicode="&#xaa;" horiz-adv-x="911" d="M80 954q-2 98 67.5 164t208.5 88l217 35v21q0 43 -36.5 73.5t-92.5 30.5q-59 0 -104 -33t-59 -82l-175 82q37 98 131.5 155.5t215.5 57.5q150 -2 244 -79.5t91 -204.5v-517h-202v72q-33 -31 -70 -51q-70 -37 -162 -39q-127 0 -200.5 61.5t-73.5 165.5zM303 963 q0 -35 24.5 -55.5t67.5 -20.5q51 -2 92 22.5t63.5 61.5t22.5 88v22l-178 -32q-43 -8 -67.5 -29t-24.5 -57z" />
<glyph unicode="&#xab;" horiz-adv-x="1380" d="M92 551l314 405h296l-311 -405l311 -404h-296zM676 551l313 405h297l-311 -405l311 -404h-297z" />
<glyph unicode="&#xac;" d="M164 397v232h1024v-547h-230v315h-794z" />
<glyph unicode="&#xad;" horiz-adv-x="1228" d="M180 438v236h871v-236h-871z" />
<glyph unicode="&#xae;" horiz-adv-x="1392" d="M172 1081q0 147 69.5 266t192.5 189q119 70 264 70q109 0 203 -41t166 -111q72 -72 113 -168t41 -205q0 -143 -70 -262t-188 -192q-119 -72 -264.5 -72t-264.5 72q-119 74 -192 192q-70 119 -70 262zM315 1081.5q0 -106.5 51.5 -192.5t139.5 -139q88 -50 192.5 -50 t190.5 51.5t137 137.5t51 192.5t-53 192.5t-135 139q-86 51 -191 51q-109 2 -194.5 -51t-137 -139t-51.5 -192.5zM475 805v555h244q90 0 149.5 -45t59.5 -141q-2 -63 -31 -102.5t-74 -61.5l117 -205h-162l-104 188h-47v-188h-152zM627 1120h96q23 0 39 16.5t16 39.5 q0 25 -16.5 41t-38.5 14h-96v-111z" />
<glyph unicode="&#xaf;" horiz-adv-x="931" d="M252 1352v221h659v-221h-659z" />
<glyph unicode="&#xb0;" horiz-adv-x="1095" d="M205 1208.5q0 94.5 45 172t125 122.5q78 45 172 47q96 -2 174 -47t123 -122.5t47 -172.5q-2 -94 -47 -172t-123 -123t-174 -47q-94 2 -172 47q-80 45 -125 123t-45 172.5zM391 1208.5q0 -67.5 45 -112.5t111 -45q68 0 113 45t45 112.5t-47.5 112.5t-110.5 45 q-66 0 -111 -45t-45 -112.5z" />
<glyph unicode="&#xb1;" d="M164 0v231h1024v-231h-1024zM164 674v231h397v299h232v-299h395v-231h-395v-299h-232v299h-397z" />
<glyph unicode="&#xb2;" horiz-adv-x="839" d="M41 1270q18 86 72.5 147.5t132.5 94t160 32.5q106 0 187 -37.5t125 -105.5t44 -158q0 -94 -50 -174t-137 -170l-243 -252h442v-188h-727v172l289 297q74 80 119 130t64.5 87t19.5 72q0 59 -38 93t-95.5 34t-103.5 -34t-66 -101z" />
<glyph unicode="&#xb3;" horiz-adv-x="870" d="M33 711l194 67q27 -68 75 -101.5t112 -33.5q78 0 124 43t46 119q0 72 -45 115t-125 43q-68 0 -121 -27l-51 107l272 299h-414v184h664v-172l-207 -233q57 -8 102 -35q70 -39 109 -111t39 -164q0 -104 -51 -188t-140 -133t-202 -49q-88 0 -169 33.5t-136.5 95t-75.5 141.5 z" />
<glyph unicode="&#xb4;" horiz-adv-x="780" d="M252 1311l133 354h348l-217 -354h-264z" />
<glyph unicode="&#xb5;" horiz-adv-x="1214" d="M102 -287v1401h269v-659q-2 -70 26.5 -123t79.5 -82t119 -29q66 0 117 29t80 84q29 53 28 127v653h269v-1114h-254v137q-33 -63 -93 -102q-92 -59 -221 -60q-63 0 -119 17q-16 4 -32 10v-289h-269z" />
<glyph unicode="&#xb6;" horiz-adv-x="1155" d="M150 1079q0 133 57 234q59 100 161.5 157.5t239.5 55.5h279v-1731h-279v840q-137 0 -239.5 57.5t-161.5 155.5q-57 100 -57 231z" />
<glyph unicode="&#xb7;" horiz-adv-x="774" d="M252 414v286h270v-286h-270z" />
<glyph unicode="&#xb8;" horiz-adv-x="780" d="M252 -418l57 154q31 -20 68 -31.5t72 -11.5q45 0 69.5 18.5t24.5 50.5q0 39 -49.5 62.5t-143.5 34.5l43 161h158l-19 -81q106 -14 168 -66.5t62 -130.5q0 -104 -76 -165.5t-203 -61.5q-53 0 -119.5 17t-111.5 50z" />
<glyph unicode="&#xb9;" horiz-adv-x="645" d="M33 1340v186h430v-1067h-223v881h-207z" />
<glyph unicode="&#xba;" horiz-adv-x="997" d="M80 1136.5q0 118.5 57.5 211t151.5 145.5t211 53q115 0 210 -53t151.5 -145.5t56.5 -211t-56.5 -210.5t-152 -145.5t-210 -53.5t-209.5 53.5t-152.5 145.5t-57.5 210.5zM303 1136.5q0 -61.5 24.5 -109.5t70 -76.5t102.5 -28.5q59 0 102 28.5t67.5 76.5t24.5 110 q0 63 -25.5 111t-68.5 76t-100.5 28t-102.5 -28t-69.5 -77t-24.5 -110.5z" />
<glyph unicode="&#xbb;" horiz-adv-x="1380" d="M94 147l312 404l-312 405h295l316 -405l-316 -404h-295zM678 147l311 404l-311 405h295l315 -405l-315 -404h-295z" />
<glyph unicode="&#xbc;" horiz-adv-x="1804" d="M33 1366v160h356v-854h-190v694h-166zM227 0l913 1526h191l-914 -1526h-190zM1054 182v160l357 512h207v-512h135v-160h-135v-182h-193v182h-371zM1157 342l35 -68l45 68h-80zM1425 621l49 71l-49 17v-88z" />
<glyph unicode="&#xbd;" horiz-adv-x="1689" d="M33 1366v160h356v-854h-190v694h-166zM227 0l913 1526h191l-914 -1526h-190zM1034 651q14 68 58 116t106.5 74.5t130.5 26.5q129 0 208 -66.5t79 -174.5q0 -76 -41 -139.5t-103 -129.5l-190 -196h342v-162h-584v147l229 238q61 59 94 99t47.5 68t14.5 52q0 41 -28.5 66.5 t-67.5 25.5q-43 0 -78 -24.5t-51 -75.5z" />
<glyph unicode="&#xbe;" horiz-adv-x="1951" d="M33 877l170 57q18 -51 53 -77t84 -26q57 0 93 33t36 88q0 51 -34 83t-95 32q-25 0 -52.5 -6t-47.5 -17l-45 91l215 233h-322v158h537v-150l-158 -174q74 -14 123 -63q68 -70 67 -183q0 -84 -42 -151.5t-113.5 -107.5t-161.5 -40q-106 0 -194.5 60.5t-112.5 159.5zM375 0 l913 1526h191l-914 -1526h-190zM1202 182v160l357 512h207v-512h135v-160h-135v-182h-193v182h-371zM1305 342l35 -68l45 68h-80zM1573 621l49 71l-49 17v-88z" />
<glyph unicode="&#xbf;" horiz-adv-x="1193" d="M131 -25q0 82 32 145.5t81 116t100 103.5q63 61 113.5 129t50.5 156v26h256v-41q0 -90 -27.5 -159.5t-71.5 -123t-90 -100.5q-63 -63 -114 -116.5t-51 -128.5q0 -47 22.5 -85t67.5 -60.5t106 -22.5q88 0 149.5 52t78.5 140l249 -61q-18 -113 -83.5 -199t-168 -134 t-231.5 -48q-150 0 -254 59.5t-159.5 153.5t-55.5 198zM496 827v287h272v-287h-272z" />
<glyph unicode="&#xc0;" horiz-adv-x="1458" d="M23 0l526 1526h360l527 -1526h-303l-109 328h-590l-110 -328h-301zM381 2079h348l133 -354h-264zM514 573h430l-215 644z" />
<glyph unicode="&#xc1;" horiz-adv-x="1458" d="M23 0l526 1526h360l527 -1526h-303l-109 328h-590l-110 -328h-301zM514 573h430l-215 644zM598 1725l133 354h348l-217 -354h-264z" />
<glyph unicode="&#xc2;" horiz-adv-x="1458" d="M23 0l526 1526h360l527 -1526h-303l-109 328h-590l-110 -328h-301zM332 1725l240 338h317l242 -338h-267l-133 184l-133 -184h-266zM514 573h430l-215 644z" />
<glyph unicode="&#xc3;" horiz-adv-x="1458" d="M23 0l526 1526h360l527 -1526h-303l-109 328h-590l-110 -328h-301zM326 1733q0 164 73.5 240.5t178.5 76.5q57 0 96 -16t67.5 -38.5t54.5 -39t56 -16.5q41 0 57.5 27.5t16.5 74.5h207q-2 -156 -76 -236.5t-180 -80.5q-55 0 -93 17.5t-65 39t-53.5 38.5t-61 17t-53 -25.5 t-18.5 -78.5h-207zM514 573h430l-215 644z" />
<glyph unicode="&#xc4;" horiz-adv-x="1458" d="M23 0l526 1526h360l527 -1526h-303l-109 328h-590l-110 -328h-301zM367 1725v282h280v-282h-280zM514 573h430l-215 644zM811 1725v282h283v-282h-283z" />
<glyph unicode="&#xc5;" horiz-adv-x="1458" d="M23 0l526 1526h360l527 -1526h-303l-109 328h-590l-110 -328h-301zM475 1887q0 109 72.5 177t183.5 68q109 0 181.5 -68.5t72.5 -176.5q0 -111 -73 -179.5t-181.5 -68.5t-182 68.5t-73.5 179.5zM514 573h430l-215 644zM643 1886.5q0 -38.5 24.5 -63.5t63.5 -25 q37 0 60.5 25t23.5 63.5t-23.5 62.5t-60.5 24t-62.5 -24t-25.5 -62.5z" />
<glyph unicode="&#xc6;" horiz-adv-x="2029" d="M23 0l526 1526h1425v-246h-737v-391h696v-246h-696v-397h737l-2 -246h-1014v328h-524l-110 -328h-301zM514 573h444v707h-206z" />
<glyph unicode="&#xc7;" horiz-adv-x="1585" d="M102 764q0 170 56.5 314.5t160 250t242.5 163.5t303 58t294 -55t220 -146.5t129 -199.5l-250 -117q-43 115 -145 189.5t-248 74.5q-143 0 -252.5 -67.5t-170 -186t-60.5 -278.5t60.5 -279.5t170 -187.5t252.5 -68q145 0 247.5 75t145.5 190l250 -117q-39 -109 -129 -200 t-220 -146.5t-294 -55.5t-302 59.5t-241.5 166t-161 250t-57.5 313.5zM653 -418l57 154q31 -20 68 -31.5t72 -11.5q45 0 69.5 18.5t24.5 50.5q0 39 -49.5 62.5t-143.5 34.5l43 161h158l-19 -81q106 -14 168 -66.5t62 -130.5q0 -104 -76 -165.5t-203 -61.5q-53 0 -119.5 17 t-111.5 50z" />
<glyph unicode="&#xc8;" horiz-adv-x="1218" d="M147 0v1526h1014v-246h-735v-391h694v-246h-694v-397h735v-246h-1014zM307 2079h348l133 -354h-264z" />
<glyph unicode="&#xc9;" horiz-adv-x="1218" d="M147 0v1526h1014v-246h-735v-391h694v-246h-694v-397h735v-246h-1014zM522 1725l133 354h348l-217 -354h-264z" />
<glyph unicode="&#xca;" horiz-adv-x="1218" d="M147 0v1526h1014v-246h-735v-391h694v-246h-694v-397h735v-246h-1014zM256 1725l240 338h317l242 -338h-267l-133 184l-133 -184h-266z" />
<glyph unicode="&#xcb;" horiz-adv-x="1218" d="M147 0v1526h1014v-246h-735v-391h694v-246h-694v-397h735v-246h-1014zM293 1725v282h280v-282h-280zM737 1725v282h283v-282h-283z" />
<glyph unicode="&#xcc;" horiz-adv-x="571" d="M-61 2079h348l133 -354h-264zM147 0v1526h279v-1526h-279z" />
<glyph unicode="&#xcd;" horiz-adv-x="571" d="M147 0v1526h279v-1526h-279zM156 1725l133 354h348l-217 -354h-264z" />
<glyph unicode="&#xce;" horiz-adv-x="571" d="M-110 1725l240 338h317l242 -338h-267l-133 184l-133 -184h-266zM147 0v1526h279v-1526h-279z" />
<glyph unicode="&#xcf;" horiz-adv-x="571" d="M-76 1725v282h280v-282h-280zM147 0v1526h279v-1526h-279zM368 1725v282h283v-282h-283z" />
<glyph unicode="&#xd0;" horiz-adv-x="1515" d="M33 647v236h114v643h498q242 0 421 -97.5t277.5 -268.5t98.5 -396q0 -223 -98.5 -396t-277.5 -270.5t-421 -97.5h-498v647h-114zM426 246h225q156 0 269.5 64.5t177 180t63.5 273.5q0 160 -63.5 274.5t-177 178t-269.5 63.5h-225v-397h322v-236h-322v-401z" />
<glyph unicode="&#xd1;" horiz-adv-x="1517" d="M147 0v1526h218l727 -979v979h278v-1526h-219l-725 997v-997h-279zM356 1733q0 164 73.5 240.5t178.5 76.5q57 0 96 -16t67.5 -38.5t54.5 -39t56 -16.5q41 0 57.5 27.5t16.5 74.5h207q-2 -156 -76 -236.5t-180 -80.5q-55 0 -93 17.5t-65 39t-53.5 38.5t-61 17t-53 -25.5 t-18.5 -78.5h-207z" />
<glyph unicode="&#xd2;" horiz-adv-x="1798" d="M102 764q0 170 59.5 313.5t168 250t254 164.5t315.5 58t315.5 -59t254 -164.5t169 -249t60.5 -313.5q0 -168 -61.5 -312.5t-170 -251t-253 -166t-314.5 -59.5q-168 0 -313.5 59.5t-254 166t-169 251t-60.5 312.5zM381 764q0 -115 39 -213t109.5 -170t164.5 -112t205 -40 q113 0 207 40t164.5 112t108.5 170t38 213t-38 212t-108.5 170t-164.5 111.5t-207 38.5q-111 0 -205 -38.5t-164.5 -111.5t-109.5 -170t-39 -212zM551 2079h348l133 -354h-264z" />
<glyph unicode="&#xd3;" horiz-adv-x="1798" d="M102 764q0 170 59.5 313.5t168 250t254 164.5t315.5 58t315.5 -59t254 -164.5t169 -249t60.5 -313.5q0 -168 -61.5 -312.5t-170 -251t-253 -166t-314.5 -59.5q-168 0 -313.5 59.5t-254 166t-169 251t-60.5 312.5zM381 764q0 -115 39 -213t109.5 -170t164.5 -112t205 -40 q113 0 207 40t164.5 112t108.5 170t38 213t-38 212t-108.5 170t-164.5 111.5t-207 38.5q-111 0 -205 -38.5t-164.5 -111.5t-109.5 -170t-39 -212zM768 1725l133 354h348l-217 -354h-264z" />
<glyph unicode="&#xd4;" horiz-adv-x="1798" d="M102 764q0 170 59.5 313.5t168 250t254 164.5t315.5 58t315.5 -59t254 -164.5t169 -249t60.5 -313.5q0 -168 -61.5 -312.5t-170 -251t-253 -166t-314.5 -59.5q-168 0 -313.5 59.5t-254 166t-169 251t-60.5 312.5zM381 764q0 -115 39 -213t109.5 -170t164.5 -112t205 -40 q113 0 207 40t164.5 112t108.5 170t38 213t-38 212t-108.5 170t-164.5 111.5t-207 38.5q-111 0 -205 -38.5t-164.5 -111.5t-109.5 -170t-39 -212zM502 1725l240 338h317l242 -338h-267l-133 184l-133 -184h-266z" />
<glyph unicode="&#xd5;" horiz-adv-x="1798" d="M102 764q0 170 59.5 313.5t168 250t254 164.5t315.5 58t315.5 -59t254 -164.5t169 -249t60.5 -313.5q0 -168 -61.5 -312.5t-170 -251t-253 -166t-314.5 -59.5q-168 0 -313.5 59.5t-254 166t-169 251t-60.5 312.5zM381 764q0 -115 39 -213t109.5 -170t164.5 -112t205 -40 q113 0 207 40t164.5 112t108.5 170t38 213t-38 212t-108.5 170t-164.5 111.5t-207 38.5q-111 0 -205 -38.5t-164.5 -111.5t-109.5 -170t-39 -212zM496 1733q0 164 73.5 240.5t178.5 76.5q57 0 96 -16t67.5 -38.5t54.5 -39t56 -16.5q41 0 57.5 27.5t16.5 74.5h207 q-2 -156 -76 -236.5t-180 -80.5q-55 0 -93 17.5t-65 39t-53.5 38.5t-61 17t-53 -25.5t-18.5 -78.5h-207z" />
<glyph unicode="&#xd6;" horiz-adv-x="1798" d="M102 764q0 170 59.5 313.5t168 250t254 164.5t315.5 58t315.5 -59t254 -164.5t169 -249t60.5 -313.5q0 -168 -61.5 -312.5t-170 -251t-253 -166t-314.5 -59.5q-168 0 -313.5 59.5t-254 166t-169 251t-60.5 312.5zM381 764q0 -115 39 -213t109.5 -170t164.5 -112t205 -40 q113 0 207 40t164.5 112t108.5 170t38 213t-38 212t-108.5 170t-164.5 111.5t-207 38.5q-111 0 -205 -38.5t-164.5 -111.5t-109.5 -170t-39 -212zM537 1725v282h280v-282h-280zM981 1725v282h283v-282h-283z" />
<glyph unicode="&#xd7;" d="M203 164l311 311l-309 307l164 162l307 -307l309 307l164 -162l-311 -307l311 -311l-162 -164l-311 311l-309 -311z" />
<glyph unicode="&#xd8;" horiz-adv-x="1798" d="M102.5 764q-0.5 170 59 313.5t168 250t254 164.5t315.5 58t315 -59q47 -18 91 -43l63 78h311l-184 -226q90 -96 143 -223q61 -143 60 -313q0 -168 -61.5 -312.5t-170 -251t-253 -166t-314.5 -59.5q-168 0 -313 60q-47 18 -92 43l-64 -78h-311l186 227q-88 96 -141 224 q-61 143 -61.5 313zM381 764q0 -115 39 -213q25 -59 59 -111l658 803q-14 8 -31 14q-94 39 -207 39q-111 0 -205 -38.5t-164.5 -111.5t-109.5 -170t-39 -212zM664 285q16 -6 30 -15q94 -41 205 -41q113 0 207 40t164.5 112t108.5 170t38 213q0 113 -37 211q-23 59 -61 112z " />
<glyph unicode="&#xd9;" horiz-adv-x="1470" d="M131 545v981h279v-967q0 -94 42 -170t115.5 -118t167.5 -42q96 0 169 42t115 118t42 170v967h278v-981q0 -164 -77.5 -293t-214 -203t-312.5 -74t-312 74t-214 203t-78 293zM387 2079h348l133 -354h-264z" />
<glyph unicode="&#xda;" horiz-adv-x="1470" d="M131 545v981h279v-967q0 -94 42 -170t115.5 -118t167.5 -42q96 0 169 42t115 118t42 170v967h278v-981q0 -164 -77.5 -293t-214 -203t-312.5 -74t-312 74t-214 203t-78 293zM604 1725l133 354h348l-217 -354h-264z" />
<glyph unicode="&#xdb;" horiz-adv-x="1470" d="M131 545v981h279v-967q0 -94 42 -170t115.5 -118t167.5 -42q96 0 169 42t115 118t42 170v967h278v-981q0 -164 -77.5 -293t-214 -203t-312.5 -74t-312 74t-214 203t-78 293zM338 1725l240 338h317l242 -338h-267l-133 184l-133 -184h-266z" />
<glyph unicode="&#xdc;" horiz-adv-x="1470" d="M131 545v981h279v-967q0 -94 42 -170t115.5 -118t167.5 -42q96 0 169 42t115 118t42 170v967h278v-981q0 -164 -77.5 -293t-214 -203t-312.5 -74t-312 74t-214 203t-78 293zM373 1725v282h280v-282h-280zM817 1725v282h283v-282h-283z" />
<glyph unicode="&#xdd;" d="M23 1526h317l336 -568l336 568h317l-512 -848v-678h-280v676zM545 1725l133 354h348l-217 -354h-264z" />
<glyph unicode="&#xde;" horiz-adv-x="1331" d="M133 0v1526h279v-281h293q156 0 274.5 -57.5t188 -163.5t67.5 -262q2 -152 -67.5 -258.5t-188.5 -163.5t-274 -57h-293v-283h-279zM412 528h295q76 0 131 29t85.5 82t30.5 123q0 72 -30 125q-31 55 -86.5 83.5t-130.5 28.5h-295v-471z" />
<glyph unicode="&#xdf;" horiz-adv-x="1312" d="M147 -322v1352q0 162 68 278.5t186.5 178t272.5 63.5q150 -2 262.5 -55t173.5 -151.5t61 -225.5q0 -115 -61 -205q-37 -55 -96 -92q96 -47 147 -110q74 -94 74 -244q-2 -143 -63.5 -249.5t-176.5 -160.5q-115 -57 -272 -57h-139v236h123q113 0 182 63t67 168 q2 102 -67.5 163.5t-181.5 61.5h-123v236h104q61 0 107 24q45 23 71.5 68t26.5 100.5t-28.5 100.5t-76.5 69q-49 25 -114 25q-78 0 -135.5 -33t-89.5 -98q-33 -63 -33 -154v-1352h-269z" />
<glyph unicode="&#xe0;" horiz-adv-x="1187" d="M80 295q0 92 41 164.5t127 122t217 69.5l332 54v36q0 72 -56.5 120t-148.5 48q-86 0 -152.5 -46t-97.5 -122l-219 107q33 88 103.5 152.5t166.5 101.5t209 37q137 0 241.5 -50.5t163 -139.5t58.5 -208v-741h-254v117q-20 -23 -45 -43q-59 -49 -135 -74t-168 -25 q-117 0 -203 39t-133 112t-47 169zM256 1665h348l133 -354h-264zM358 305q0 -57 44 -91t110 -34q84 0 148.5 36t100.5 99.5t36 139.5v45l-281 -47q-80 -14 -119 -51t-39 -97z" />
<glyph unicode="&#xe1;" horiz-adv-x="1187" d="M80 295q0 92 41 164.5t127 122t217 69.5l332 54v36q0 72 -56.5 120t-148.5 48q-86 0 -152.5 -46t-97.5 -122l-219 107q33 88 103.5 152.5t166.5 101.5t209 37q137 0 241.5 -50.5t163 -139.5t58.5 -208v-741h-254v117q-20 -23 -45 -43q-59 -49 -135 -74t-168 -25 q-117 0 -203 39t-133 112t-47 169zM358 305q0 -57 44 -91t110 -34q84 0 148.5 36t100.5 99.5t36 139.5v45l-281 -47q-80 -14 -119 -51t-39 -97zM471 1311l133 354h348l-217 -354h-264z" />
<glyph unicode="&#xe2;" horiz-adv-x="1187" d="M80 295q0 92 41 164.5t127 122t217 69.5l332 54v36q0 72 -56.5 120t-148.5 48q-86 0 -152.5 -46t-97.5 -122l-219 107q33 88 103.5 152.5t166.5 101.5t209 37q137 0 241.5 -50.5t163 -139.5t58.5 -208v-741h-254v117q-20 -23 -45 -43q-59 -49 -135 -74t-168 -25 q-117 0 -203 39t-133 112t-47 169zM205 1311l240 338h317l242 -338h-267l-133 184l-133 -184h-266zM358 305q0 -57 44 -91t110 -34q84 0 148.5 36t100.5 99.5t36 139.5v45l-281 -47q-80 -14 -119 -51t-39 -97z" />
<glyph unicode="&#xe3;" horiz-adv-x="1187" d="M80 295q0 92 41 164.5t127 122t217 69.5l332 54v36q0 72 -56.5 120t-148.5 48q-86 0 -152.5 -46t-97.5 -122l-219 107q33 88 103.5 152.5t166.5 101.5t209 37q137 0 241.5 -50.5t163 -139.5t58.5 -208v-741h-254v117q-20 -23 -45 -43q-59 -49 -135 -74t-168 -25 q-117 0 -203 39t-133 112t-47 169zM201 1319q0 164 73.5 240.5t178.5 76.5q57 0 96 -16t67.5 -38.5t54.5 -39t56 -16.5q41 0 57.5 27.5t16.5 74.5h207q-2 -156 -76 -236.5t-180 -80.5q-55 0 -93 17.5t-65 39t-53.5 38.5t-61 17t-53 -25.5t-18.5 -78.5h-207zM358 305 q0 -57 44 -91t110 -34q84 0 148.5 36t100.5 99.5t36 139.5v45l-281 -47q-80 -14 -119 -51t-39 -97z" />
<glyph unicode="&#xe4;" horiz-adv-x="1187" d="M80 295q0 92 41 164.5t127 122t217 69.5l332 54v36q0 72 -56.5 120t-148.5 48q-86 0 -152.5 -46t-97.5 -122l-219 107q33 88 103.5 152.5t166.5 101.5t209 37q137 0 241.5 -50.5t163 -139.5t58.5 -208v-741h-254v117q-20 -23 -45 -43q-59 -49 -135 -74t-168 -25 q-117 0 -203 39t-133 112t-47 169zM242 1311v282h280v-282h-280zM358 305q0 -57 44 -91t110 -34q84 0 148.5 36t100.5 99.5t36 139.5v45l-281 -47q-80 -14 -119 -51t-39 -97zM686 1311v282h283v-282h-283z" />
<glyph unicode="&#xe5;" horiz-adv-x="1187" d="M80 295q0 92 41 164.5t127 122t217 69.5l332 54v36q0 72 -56.5 120t-148.5 48q-86 0 -152.5 -46t-97.5 -122l-219 107q33 88 103.5 152.5t166.5 101.5t209 37q137 0 241.5 -50.5t163 -139.5t58.5 -208v-741h-254v117q-20 -23 -45 -43q-59 -49 -135 -74t-168 -25 q-117 0 -203 39t-133 112t-47 169zM348 1473q0 109 72.5 177t183.5 68q109 0 181.5 -68.5t72.5 -176.5q0 -111 -73 -179.5t-181.5 -68.5t-182 68.5t-73.5 179.5zM358 305q0 -57 44 -91t110 -34q84 0 148.5 36t100.5 99.5t36 139.5v45l-281 -47q-80 -14 -119 -51t-39 -97z M516 1472.5q0 -38.5 24.5 -63.5t63.5 -25q37 0 60.5 25t23.5 63.5t-23.5 62.5t-60.5 24t-62.5 -24t-25.5 -62.5z" />
<glyph unicode="&#xe6;" horiz-adv-x="1980" d="M80 295q0 92 41 164.5t127 122t217 69.5l332 54v36q0 72 -56.5 120t-148.5 48q-86 0 -152.5 -46t-97.5 -122l-219 107q33 88 103.5 152.5t166.5 101.5t209 37q145 0 254 -58q74 -39 121 -96q59 59 135 96q113 57 248 58q129 0 229.5 -43t170 -119t105.5 -173t36 -210 q0 -29 -3.5 -59.5t-9.5 -53.5h-803q8 -82 47 -142t103.5 -94t146.5 -34q92 0 156 39t102 104l218 -106q-33 -80 -101.5 -141.5t-158 -96.5t-189.5 -35q-133 0 -244 52q-72 33 -127 88v-115h-227v115q-25 -25 -51 -45q-59 -45 -133 -70t-164 -25q-117 0 -203 39t-133 112 t-47 169zM358 305q0 -57 44 -91t110 -34q84 0 148.5 36t100.5 99.5t36 139.5v45l-281 -47q-80 -14 -119 -51t-39 -97zM1092 686h524q-6 68 -40 121t-90 82t-126 29q-68 0 -124 -27t-94 -79t-50 -126z" />
<glyph unicode="&#xe7;" horiz-adv-x="1245" d="M80 559q0 166 75.5 297t208 207t298.5 76q119 0 221 -42t177 -115t107 -173l-235 -102q-31 84 -103.5 135t-166.5 51q-88 0 -157 -43t-108 -119t-39 -174t39 -174t107.5 -119t157.5 -43q96 0 167.5 51.5t102.5 137.5l235 -107q-33 -94 -106.5 -169t-175.5 -117t-223 -42 q-166 0 -298.5 77t-208 209t-75.5 298zM451 -418l57 154q31 -20 68 -31.5t72 -11.5q45 0 69.5 18.5t24.5 50.5q0 39 -49.5 62.5t-143.5 34.5l43 161h158l-19 -81q106 -14 168 -66.5t62 -130.5q0 -104 -76 -165.5t-203 -61.5q-53 0 -119.5 17t-111.5 50z" />
<glyph unicode="&#xe8;" horiz-adv-x="1253" d="M80 559q0 168 72.5 298t198.5 206t282 76q131 0 230.5 -43t169 -119t106.5 -173t37 -210q0 -29 -3.5 -59.5t-11.5 -53.5h-803q6 -55 27 -104q37 -78 107.5 -122t163 -44t157 39t100.5 104l217 -106q-33 -80 -102.5 -141.5t-164.5 -96.5t-210 -35q-172 0 -301 78 t-200.5 211t-71.5 295zM279 1665h348l133 -354h-264zM365 686h524q-4 39 -17 72q-29 74 -90 117t-149 43q-84 0 -150 -41t-98 -123q-12 -31 -20 -68z" />
<glyph unicode="&#xe9;" horiz-adv-x="1253" d="M80 559q0 168 72.5 298t198.5 206t282 76q131 0 230.5 -43t169 -119t106.5 -173t37 -210q0 -29 -3.5 -59.5t-11.5 -53.5h-803q6 -55 27 -104q37 -78 107.5 -122t163 -44t157 39t100.5 104l217 -106q-33 -80 -102.5 -141.5t-164.5 -96.5t-210 -35q-172 0 -301 78 t-200.5 211t-71.5 295zM365 686h524q-4 39 -17 72q-29 74 -90 117t-149 43q-84 0 -150 -41t-98 -123q-12 -31 -20 -68zM496 1311l133 354h348l-217 -354h-264z" />
<glyph unicode="&#xea;" horiz-adv-x="1253" d="M80 559q0 168 72.5 298t198.5 206t282 76q131 0 230.5 -43t169 -119t106.5 -173t37 -210q0 -29 -3.5 -59.5t-11.5 -53.5h-803q6 -55 27 -104q37 -78 107.5 -122t163 -44t157 39t100.5 104l217 -106q-33 -80 -102.5 -141.5t-164.5 -96.5t-210 -35q-172 0 -301 78 t-200.5 211t-71.5 295zM229 1311l240 338h317l242 -338h-267l-133 184l-133 -184h-266zM365 686h524q-4 39 -17 72q-29 74 -90 117t-149 43q-84 0 -150 -41t-98 -123q-12 -31 -20 -68z" />
<glyph unicode="&#xeb;" horiz-adv-x="1253" d="M80 559q0 168 72.5 298t198.5 206t282 76q131 0 230.5 -43t169 -119t106.5 -173t37 -210q0 -29 -3.5 -59.5t-11.5 -53.5h-803q6 -55 27 -104q37 -78 107.5 -122t163 -44t157 39t100.5 104l217 -106q-33 -80 -102.5 -141.5t-164.5 -96.5t-210 -35q-172 0 -301 78 t-200.5 211t-71.5 295zM266 1311v282h280v-282h-280zM365 686h524q-4 39 -17 72q-29 74 -90 117t-149 43q-84 0 -150 -41t-98 -123q-12 -31 -20 -68zM710 1311v282h283v-282h-283z" />
<glyph unicode="&#xec;" horiz-adv-x="466" d="M-115 1665h348l133 -354h-264zM100 0v1114h269v-1114h-269z" />
<glyph unicode="&#xed;" horiz-adv-x="466" d="M100 0v1114h269v-1114h-269zM102 1311l133 354h348l-217 -354h-264z" />
<glyph unicode="&#xee;" horiz-adv-x="466" d="M-164 1311l240 338h317l242 -338h-267l-133 184l-133 -184h-266zM100 0v1114h269v-1114h-269z" />
<glyph unicode="&#xef;" horiz-adv-x="466" d="M-129 1311v282h280v-282h-280zM100 0v1114h269v-1114h-269zM315 1311v282h283v-282h-283z" />
<glyph unicode="&#xf0;" horiz-adv-x="1335" d="M80 551q0 162 75.5 289t204.5 204q129 74 293 74q74 0 135.5 -16.5t116.5 -52.5q18 -12 35 -27q-6 14 -10 29q-29 80 -82 145q-35 43 -78 78l-315 -121v123l186 72q-33 16 -68 24q-82 25 -170 23q-51 0 -104 -8.5t-109 -26.5l-30 219q152 51 291 51q147 0 274 -49 q113 -45 203 -123l223 86v-123l-133 -51q55 -66 100 -143q70 -121 103 -260q37 -139 36 -291q0 -233 -77.5 -389t-206.5 -234q-131 -78 -301 -78q-123 0 -229.5 41t-188.5 119t-127 184.5t-47 231.5zM358 549q0 -96 41 -170q43 -76 113 -117t158 -41t157.5 43t110.5 117 t39 168q-2 90 -39 163.5t-106.5 116.5t-161.5 43t-162 -40.5t-111 -116.5q-39 -74 -39 -166z" />
<glyph unicode="&#xf1;" horiz-adv-x="1214" d="M125 0v1114h252v-137q37 68 106 108q90 53 209 54q123 0 218.5 -53.5t148.5 -148.5t53 -220v-717h-268v653q0 74 -29 127.5t-79 83t-118 29.5q-66 0 -116.5 -29.5t-79.5 -83t-29 -127.5v-653h-268zM205 1319q0 164 73.5 240.5t178.5 76.5q57 0 96 -16t67.5 -38.5 t54.5 -39t56 -16.5q41 0 57.5 27.5t16.5 74.5h207q-2 -156 -76 -236.5t-180 -80.5q-55 0 -93 17.5t-65 39t-53.5 38.5t-61 17t-53 -25.5t-18.5 -78.5h-207z" />
<glyph unicode="&#xf2;" horiz-adv-x="1335" d="M80 557q0 168 79 299t212 207t299 76q164 0 297 -76t211.5 -206t78.5 -300q0 -168 -79.5 -299t-212.5 -207t-295 -76q-164 0 -298 76t-213 207t-79 299zM320 1665h348l133 -354h-264zM358 557q0 -96 40 -173t110 -120t162 -43q90 0 158.5 43t108.5 120t40 173 q0 98 -40 173t-108.5 119t-158.5 44q-92 0 -162 -44t-110 -119t-40 -173z" />
<glyph unicode="&#xf3;" horiz-adv-x="1335" d="M80 557q0 168 79 299t212 207t299 76q164 0 297 -76t211.5 -206t78.5 -300q0 -168 -79.5 -299t-212.5 -207t-295 -76q-164 0 -298 76t-213 207t-79 299zM358 557q0 -96 40 -173t110 -120t162 -43q90 0 158.5 43t108.5 120t40 173q0 98 -40 173t-108.5 119t-158.5 44 q-92 0 -162 -44t-110 -119t-40 -173zM537 1311l133 354h348l-217 -354h-264z" />
<glyph unicode="&#xf4;" horiz-adv-x="1335" d="M80 557q0 168 79 299t212 207t299 76q164 0 297 -76t211.5 -206t78.5 -300q0 -168 -79.5 -299t-212.5 -207t-295 -76q-164 0 -298 76t-213 207t-79 299zM270 1311l240 338h317l242 -338h-267l-133 184l-133 -184h-266zM358 557q0 -96 40 -173t110 -120t162 -43 q90 0 158.5 43t108.5 120t40 173q0 98 -40 173t-108.5 119t-158.5 44q-92 0 -162 -44t-110 -119t-40 -173z" />
<glyph unicode="&#xf5;" horiz-adv-x="1335" d="M80 557q0 168 79 299t212 207t299 76q164 0 297 -76t211.5 -206t78.5 -300q0 -168 -79.5 -299t-212.5 -207t-295 -76q-164 0 -298 76t-213 207t-79 299zM266 1319q0 164 73.5 240.5t178.5 76.5q57 0 96 -16t67.5 -38.5t54.5 -39t56 -16.5q41 0 57.5 27.5t16.5 74.5h207 q-2 -156 -76 -236.5t-180 -80.5q-55 0 -93 17.5t-65 39t-53.5 38.5t-61 17t-53 -25.5t-18.5 -78.5h-207zM358 557q0 -96 40 -173t110 -120t162 -43q90 0 158.5 43t108.5 120t40 173q0 98 -40 173t-108.5 119t-158.5 44q-92 0 -162 -44t-110 -119t-40 -173z" />
<glyph unicode="&#xf6;" horiz-adv-x="1335" d="M80 557q0 168 79 299t212 207t299 76q164 0 297 -76t211.5 -206t78.5 -300q0 -168 -79.5 -299t-212.5 -207t-295 -76q-164 0 -298 76t-213 207t-79 299zM307 1311v282h280v-282h-280zM358 557q0 -96 40 -173t110 -120t162 -43q90 0 158.5 43t108.5 120t40 173 q0 98 -40 173t-108.5 119t-158.5 44q-92 0 -162 -44t-110 -119t-40 -173zM751 1311v282h283v-282h-283z" />
<glyph unicode="&#xf7;" d="M164 397v232h1024v-232h-1024zM541 0v233h270v-233h-270zM541 791v233h270v-233h-270z" />
<glyph unicode="&#xf8;" horiz-adv-x="1335" d="M35 0l168 195q-23 31 -43 63q-78 131 -79 299t78 299t212 207t299 76q158 0 286 -70l39 45h308l-168 -194q25 -31 45 -64q78 -131 77.5 -299t-80 -299t-213 -207t-294.5 -76q-158 0 -289 70l-39 -45h-307zM358 557q0 -82 29 -149l399 462q-53 23 -116 23q-92 0 -162 -44 t-110 -119t-40 -173zM551 242q53 -21 119 -21q90 0 158.5 43t108.5 120t40 173q0 82 -27 148z" />
<glyph unicode="&#xf9;" horiz-adv-x="1214" d="M102 432v682h269v-659q0 -70 27.5 -122t79.5 -82t118 -30t117 30t79.5 83t28.5 127v653h269v-1114h-254v133q-41 -68 -107 -106q-90 -52 -207 -52q-129 0 -224 57.5t-145.5 160t-50.5 239.5zM260 1665h348l133 -354h-264z" />
<glyph unicode="&#xfa;" horiz-adv-x="1214" d="M102 432v682h269v-659q0 -70 27.5 -122t79.5 -82t118 -30t117 30t79.5 83t28.5 127v653h269v-1114h-254v133q-41 -68 -107 -106q-90 -52 -207 -52q-129 0 -224 57.5t-145.5 160t-50.5 239.5zM475 1311l133 354h348l-217 -354h-264z" />
<glyph unicode="&#xfb;" horiz-adv-x="1214" d="M102 432v682h269v-659q0 -70 27.5 -122t79.5 -82t118 -30t117 30t79.5 83t28.5 127v653h269v-1114h-254v133q-41 -68 -107 -106q-90 -52 -207 -52q-129 0 -224 57.5t-145.5 160t-50.5 239.5zM209 1311l240 338h317l242 -338h-267l-133 184l-133 -184h-266z" />
<glyph unicode="&#xfc;" horiz-adv-x="1214" d="M102 432v682h269v-659q0 -70 27.5 -122t79.5 -82t118 -30t117 30t79.5 83t28.5 127v653h269v-1114h-254v133q-41 -68 -107 -106q-90 -52 -207 -52q-129 0 -224 57.5t-145.5 160t-50.5 239.5zM246 1311v282h280v-282h-280zM690 1311v282h283v-282h-283z" />
<glyph unicode="&#xfd;" horiz-adv-x="1200" d="M23 1114h288l289 -768l287 768h291l-486 -1227q-43 -106 -104.5 -182t-142.5 -116t-185 -40q-45 0 -88 7.5t-78 25.5v223q27 -6 65 -12t70 -6q92 0 134.5 42t74.5 112l25 59zM467 1311l133 354h348l-217 -354h-264z" />
<glyph unicode="&#xfe;" horiz-adv-x="1376" d="M125 -410v1936h252v-543q53 66 131 107q98 49 227 49q158 0 285 -78t200.5 -209t75.5 -295q0 -162 -73 -295q-74 -131 -201 -209t-289 -78q-119 0 -221 50q-68 33 -119 84v-519h-268zM393 557q0 -98 41 -174t110.5 -119t157.5 -43q92 0 164 43t113 119t39 174 q2 98 -39 172t-112.5 119t-164.5 45q-88 0 -157.5 -43t-110.5 -121t-41 -172z" />
<glyph unicode="&#x2000;" horiz-adv-x="1066" />
<glyph unicode="&#x2001;" horiz-adv-x="2132" />
<glyph unicode="&#x2002;" horiz-adv-x="1066" />
<glyph unicode="&#x2003;" horiz-adv-x="2132" />
<glyph unicode="&#x2004;" horiz-adv-x="710" />
<glyph unicode="&#x2005;" horiz-adv-x="533" />
<glyph unicode="&#x2006;" horiz-adv-x="355" />
<glyph unicode="&#x2007;" horiz-adv-x="355" />
<glyph unicode="&#x2008;" horiz-adv-x="266" />
<glyph unicode="&#x2009;" horiz-adv-x="426" />
<glyph unicode="&#x200a;" horiz-adv-x="118" />
<glyph unicode="&#x2010;" horiz-adv-x="1228" d="M180 438v236h871v-236h-871z" />
<glyph unicode="&#x2011;" horiz-adv-x="1228" d="M180 438v236h871v-236h-871z" />
<glyph unicode="&#x2012;" horiz-adv-x="1228" d="M180 438v236h871v-236h-871z" />
<glyph unicode="&#x2013;" horiz-adv-x="1381" d="M180 438v236h1024v-236h-1024z" />
<glyph unicode="&#x2014;" horiz-adv-x="2405" d="M180 438v236h2048v-236h-2048z" />
<glyph unicode="&#x202f;" horiz-adv-x="426" />
<glyph unicode="&#x205f;" horiz-adv-x="533" />
<glyph unicode="&#x25fc;" horiz-adv-x="1116" d="M0 0v1116h1116v-1116h-1116z" />
</font>
</defs>
</svg>
