<?xml version="1.0" encoding="UTF-8"?>
<svg id="Camada_1" data-name="Camada 1" xmlns="http://www.w3.org/2000/svg" xmlns:xlink="http://www.w3.org/1999/xlink" viewBox="0 0 631.04 544.23">
  <defs>
    <style>
      .cls-1 {
        fill: #fff;
      }

      .cls-2 {
        fill: #1f8efe;
      }

      .cls-3 {
        fill: url(#Gradiente_sem_nome_617);
      }
    </style>
    <linearGradient id="Gradiente_sem_nome_617" data-name="Gradiente sem nome 617" x1="137.03" y1="486.02" x2="435.97" y2="313.42" gradientUnits="userSpaceOnUse">
      <stop offset="0" stop-color="#003f77"/>
      <stop offset=".06" stop-color="#004480"/>
      <stop offset=".25" stop-color="#005099"/>
      <stop offset=".43" stop-color="#0058a7"/>
      <stop offset=".57" stop-color="#005bad"/>
    </linearGradient>
  </defs>
  <path class="cls-1" d="M437,542c-121.33-9-208.3-117.37-197.99-237.49,5.74-66.83,42.47-125.91,97.99-162.51,31.85-16.66,64.59-31.53,101-34,66.37-4.51,135.88,21.95,182.03,69.47,1.43,1.48,10.18,10.84,10.51,11.55.35.77.72,1.41.36,2.28l-81.39,81.68c-32.45-54.18-102.18-71.37-155.22-35.2-56.23,38.34-60.68,122.32-9.75,167.19,51.41,45.3,129.86,31.98,164.97-25.96l81.43,81.35c-35.62,42.87-84.97,72.4-140.59,80.47-18.42,2.67-34.93,2.53-53.33,1.17Z"/>
  <g>
    <path class="cls-2" d="M115,312c-.02-28.32.02-56.68,0-85H0v-119h115V0h130v108h193c-36.41,2.47-69.15,17.34-101,34-21.64,11.32-37.34,20.72-56.9,35.6-53.3,40.56-104.6,85.99-156.63,128.37-2.65,2.16-5.39,4.5-8.48,6.02Z"/>
    <path class="cls-3" d="M337,142c-55.52,36.6-92.25,95.68-97.99,162.51-10.31,120.12,76.66,228.49,197.99,237.49l-5.49,1.02c-62.3-2.94-128.12,3.88-190-.03-63.43-4-122.64-54.36-126.55-119.45-2.14-35.57.07-75.47.04-111.54,3.08-1.53,5.83-3.87,8.48-6.02,52.03-42.38,103.33-87.81,156.63-128.37,19.56-14.88,35.26-24.29,56.9-35.6Z"/>
  </g>
</svg>