<svg width="512" height="512" viewBox="0 0 512 512" xmlns="http://www.w3.org/2000/svg">

  <!-- Fundo circular -->
  <circle cx="256" cy="256" r="256" fill="#2291F2"></circle>

  <!-- Halo interno -->
  <circle cx="256" cy="256" r="190" fill="#03588C" opacity="0.9"></circle>
  <circle cx="256" cy="256" r="155" fill="#011526" opacity="0.95"></circle>

  <!-- Corpo -->
  <path d="M190 330 Q256 295 322 330 Q336 380 330 410 Q256 440 182 410 Q176 380 190 330 Z" fill="#0367A6"></path>

  <!-- Ombros -->
  <path d="M198 320 Q256 290 314 320 Q322 338 322 350 Q256 340 190 350 Q190 338 198 320 Z" fill="#0367A6"></path>

  <!-- Gola -->
  <path d="M230 304 Q256 315 282 304 Q290 318 290 330 Q256 338 222 330 Q222 318 230 304 Z" fill="#011526"></path>

  <!-- Cordões -->
  <rect x="238" y="308" width="4" height="24" rx="2" fill="#F2F2F2"></rect>
  <rect x="270" y="308" width="4" height="24" rx="2" fill="#F2F2F2"></rect>
  <circle cx="240" cy="334" r="3" fill="#F2F2F2"></circle>
  <circle cx="272" cy="334" r="3" fill="#F2F2F2"></circle>

  <!-- Rosto quadrado -->
  <path d="M186 220 
           Q186 160 256 160 
           Q326 160 326 220
           L326 255
           Q326 305 256 305
           Q186 305 186 255
           Z" fill="#F2F2F2"></path>

  <!-- Sombra lateral -->
  <path d="M256 160 Q326 160 326 220 L326 255 Q326 305 256 305 Z" fill="#03588C" opacity="0.12"></path>

  <!-- Orelhas -->
  <circle cx="186" cy="230" r="14" fill="#F2F2F2"></circle>
  <circle cx="326" cy="230" r="14" fill="#F2F2F2"></circle>

  <!-- Cabelo enrolado -->
  <circle cx="210" cy="155" r="26" fill="#000000"></circle>
  <circle cx="245" cy="145" r="28" fill="#000000"></circle>
  <circle cx="280" cy="148" r="28" fill="#000000"></circle>
  <circle cx="305" cy="164" r="26" fill="#000000"></circle>
  <circle cx="225" cy="176" r="24" fill="#000000"></circle>
  <circle cx="292" cy="178" r="24" fill="#000000"></circle>

  <!-- Sobrancelhas -->
  <rect x="214" y="205" width="38" height="6" rx="3" fill="#000000"></rect>
  <rect x="262" y="205" width="38" height="6" rx="3" fill="#000000"></rect>

  <!-- ÓCULOS REDONDOS -->
  <circle cx="232" cy="236" r="22" fill="none" stroke="#0367A6" stroke-width="4"></circle>
  <circle cx="280" cy="236" r="22" fill="none" stroke="#0367A6" stroke-width="4"></circle>
  <rect x="244" y="232" width="24" height="4" rx="2" fill="#0367A6"></rect>
  <path d="M220 226 L232 226 L226 240 Z" fill="#2291F2" opacity="0.5"></path>
  <path d="M270 226 L282 226 L276 240 Z" fill="#2291F2" opacity="0.5"></path>

  <!-- Olhos -->
  <circle cx="232" cy="236" r="7" fill="#000"></circle>
  <circle cx="280" cy="236" r="7" fill="#000"></circle>
  <circle cx="230" cy="234" r="2.3" fill="#F2F2F2"></circle>
  <circle cx="278" cy="234" r="2.3" fill="#F2F2F2"></circle>

  <!-- Nariz -->
  <path d="M252 240 Q256 248 260 252" stroke="#03588C" stroke-width="3" fill="none"></path>

  <!-- BARBA + BIGODE FUNDIDOS (quadrada) -->
  <path d="
      M196 244
      Q210 250 224 252
      Q240 254 256 254
      Q272 254 288 252
      Q302 250 316 244
      L316 292
      Q316 320 298 338
      Q278 360 256 364
      Q234 360 214 338
      Q196 320 196 292
      Z" fill="#000000"></path>

  <!-- Sorriso (sombra) -->
  <path d="M238 270 Q256 284 274 270" stroke="#0367A6" stroke-width="3" fill="none" opacity="0.7"></path>

  <!-- Notebook -->
  <rect x="172" y="328" width="168" height="78" rx="16" fill="#F2F2F2" stroke="#2291F2" stroke-width="4"></rect>
  <circle cx="256" cy="366" r="10" fill="#011526"></circle>
  <path d="M250 366 L254 360 L262 372" stroke="#2291F2" stroke-width="2" fill="none"></path>
  <path d="M250 370 L254 364 L262 376" stroke="#0367A6" stroke-width="2" fill="none"></path>
  <rect x="166" y="404" width="180" height="10" rx="3" fill="#011526"></rect>

  <!-- Balão esquerdo -->
  <rect x="112" y="162" width="96" height="66" rx="12" fill="#FFFFFF" stroke="#011526" stroke-width="2"></rect>
  <rect x="122" y="174" width="58" height="6" rx="3" fill="#2291F2"></rect>
  <rect x="122" y="186" width="48" height="4" rx="2" fill="#0367A6"></rect>
  <rect x="122" y="198" width="62" height="4" rx="2" fill="#03588C"></rect>
  <rect x="122" y="208" width="38" height="4" rx="2" fill="#011526"></rect>

  <!-- Balão direito COM BORDA -->
  <rect x="304" y="150" width="110" height="80" rx="14" fill="#FFFFFF" stroke="#011526" stroke-width="2"></rect>
  <rect x="304" y="150" width="110" height="22" rx="14" fill="#0367A6"></rect>
  <circle cx="316" cy="161" r="4" fill="#F2F2F2"></circle>
  <circle cx="330" cy="161" r="4" fill="#F2F2F2" opacity="0.7"></circle>
  <circle cx="344" cy="161" r="4" fill="#F2F2F2" opacity="0.4"></circle>

  <!-- Ícone </> -->
  <text x="359" y="205" text-anchor="middle" font-size="28" font-family="monospace" fill="#0367A6">&lt;/&gt;</text>

  <!-- Detalhes -->
  <rect x="132" y="296" width="20" height="4" rx="2" fill="#2291F2"></rect>
  <rect x="360" y="292" width="28" height="4" rx="2" fill="#0367A6"></rect>
  <circle cx="146" cy="136" r="3" fill="#F2F2F2"></circle>
  <circle cx="372" cy="132" r="3" fill="#2291F2"></circle>
  <circle cx="378" cy="276" r="4" fill="#03588C"></circle>
  <circle cx="140" cy="276" r="4" fill="#03588C"></circle>
  <path d="M126 312 A155 155 0 0 0 386 312" stroke="#0367A6" stroke-width="4" opacity="0.4" fill="none"></path>

</svg>
